G04 #@! TF.FileFunction,Soldermask,Top*
%FSLAX46Y46*%
G04 Gerber Fmt 4.6, Leading zero omitted, Abs format (unit mm)*
G04 Created by KiCad (PCBNEW 4.0.4-stable) date *
%MOMM*%
%LPD*%
G01*
G04 APERTURE LIST*
%ADD10C,0.100000*%
%ADD11C,1.800000*%
%ADD12R,1.200000X1.150000*%
%ADD13R,1.150000X1.200000*%
%ADD14R,1.400000X2.000000*%
%ADD15R,1.598880X1.598880*%
%ADD16R,1.460000X1.050000*%
%ADD17R,0.600000X1.100000*%
%ADD18R,1.100000X0.600000*%
%ADD19R,1.200000X1.275000*%
%ADD20R,0.680000X1.000000*%
%ADD21R,4.400000X1.100000*%
%ADD22R,1.850000X0.850000*%
%ADD23R,1.100000X1.700000*%
%ADD24R,1.600000X2.100000*%
%ADD25O,1.600000X2.100000*%
%ADD26R,2.432000X2.432000*%
%ADD27O,2.432000X2.432000*%
%ADD28R,2.127200X2.432000*%
%ADD29O,2.127200X2.432000*%
%ADD30R,2.127200X2.127200*%
%ADD31O,2.127200X2.127200*%
%ADD32R,1.200100X1.200100*%
%ADD33R,0.900000X1.300000*%
%ADD34R,1.300000X0.900000*%
%ADD35R,1.200000X1.600000*%
%ADD36R,2.000000X1.400000*%
%ADD37R,2.100000X1.300000*%
G04 APERTURE END LIST*
D10*
D11*
X114169827Y-60871239D03*
X116671239Y-60430173D03*
X139759044Y-38027775D03*
X140627775Y-35640956D03*
X139959044Y-32027775D03*
X140827775Y-29640956D03*
D10*
G36*
X158548008Y-65038820D02*
X159361180Y-65851992D01*
X158512652Y-66700520D01*
X157699480Y-65887348D01*
X158548008Y-65038820D01*
X158548008Y-65038820D01*
G37*
G36*
X157487348Y-66099480D02*
X158300520Y-66912652D01*
X157451992Y-67761180D01*
X156638820Y-66948008D01*
X157487348Y-66099480D01*
X157487348Y-66099480D01*
G37*
G36*
X155447324Y-61396358D02*
X155906943Y-61855977D01*
X154916994Y-62845926D01*
X154457375Y-62386307D01*
X155447324Y-61396358D01*
X155447324Y-61396358D01*
G37*
G36*
X155093771Y-61042804D02*
X155553390Y-61502423D01*
X154563441Y-62492372D01*
X154103822Y-62032753D01*
X155093771Y-61042804D01*
X155093771Y-61042804D01*
G37*
G36*
X154740217Y-60689251D02*
X155199836Y-61148870D01*
X154209887Y-62138819D01*
X153750268Y-61679200D01*
X154740217Y-60689251D01*
X154740217Y-60689251D01*
G37*
G36*
X154386664Y-60335698D02*
X154846283Y-60795317D01*
X153856334Y-61785266D01*
X153396715Y-61325647D01*
X154386664Y-60335698D01*
X154386664Y-60335698D01*
G37*
G36*
X154033111Y-59982144D02*
X154492730Y-60441763D01*
X153502781Y-61431712D01*
X153043162Y-60972093D01*
X154033111Y-59982144D01*
X154033111Y-59982144D01*
G37*
G36*
X153679557Y-59628591D02*
X154139176Y-60088210D01*
X153149227Y-61078159D01*
X152689608Y-60618540D01*
X153679557Y-59628591D01*
X153679557Y-59628591D01*
G37*
G36*
X153326004Y-59275037D02*
X153785623Y-59734656D01*
X152795674Y-60724605D01*
X152336055Y-60264986D01*
X153326004Y-59275037D01*
X153326004Y-59275037D01*
G37*
G36*
X152972450Y-58921484D02*
X153432069Y-59381103D01*
X152442120Y-60371052D01*
X151982501Y-59911433D01*
X152972450Y-58921484D01*
X152972450Y-58921484D01*
G37*
G36*
X152618897Y-58567931D02*
X153078516Y-59027550D01*
X152088567Y-60017499D01*
X151628948Y-59557880D01*
X152618897Y-58567931D01*
X152618897Y-58567931D01*
G37*
G36*
X152265344Y-58214377D02*
X152724963Y-58673996D01*
X151735014Y-59663945D01*
X151275395Y-59204326D01*
X152265344Y-58214377D01*
X152265344Y-58214377D01*
G37*
G36*
X151911790Y-57860824D02*
X152371409Y-58320443D01*
X151381460Y-59310392D01*
X150921841Y-58850773D01*
X151911790Y-57860824D01*
X151911790Y-57860824D01*
G37*
G36*
X151558237Y-57507270D02*
X152017856Y-57966889D01*
X151027907Y-58956838D01*
X150568288Y-58497219D01*
X151558237Y-57507270D01*
X151558237Y-57507270D01*
G37*
G36*
X151204683Y-57153717D02*
X151664302Y-57613336D01*
X150674353Y-58603285D01*
X150214734Y-58143666D01*
X151204683Y-57153717D01*
X151204683Y-57153717D01*
G37*
G36*
X150851130Y-56800164D02*
X151310749Y-57259783D01*
X150320800Y-58249732D01*
X149861181Y-57790113D01*
X150851130Y-56800164D01*
X150851130Y-56800164D01*
G37*
G36*
X150497577Y-56446610D02*
X150957196Y-56906229D01*
X149967247Y-57896178D01*
X149507628Y-57436559D01*
X150497577Y-56446610D01*
X150497577Y-56446610D01*
G37*
G36*
X150144023Y-56093057D02*
X150603642Y-56552676D01*
X149613693Y-57542625D01*
X149154074Y-57083006D01*
X150144023Y-56093057D01*
X150144023Y-56093057D01*
G37*
G36*
X146396358Y-56552676D02*
X146855977Y-56093057D01*
X147845926Y-57083006D01*
X147386307Y-57542625D01*
X146396358Y-56552676D01*
X146396358Y-56552676D01*
G37*
G36*
X146042804Y-56906229D02*
X146502423Y-56446610D01*
X147492372Y-57436559D01*
X147032753Y-57896178D01*
X146042804Y-56906229D01*
X146042804Y-56906229D01*
G37*
G36*
X145689251Y-57259783D02*
X146148870Y-56800164D01*
X147138819Y-57790113D01*
X146679200Y-58249732D01*
X145689251Y-57259783D01*
X145689251Y-57259783D01*
G37*
G36*
X145335698Y-57613336D02*
X145795317Y-57153717D01*
X146785266Y-58143666D01*
X146325647Y-58603285D01*
X145335698Y-57613336D01*
X145335698Y-57613336D01*
G37*
G36*
X144982144Y-57966889D02*
X145441763Y-57507270D01*
X146431712Y-58497219D01*
X145972093Y-58956838D01*
X144982144Y-57966889D01*
X144982144Y-57966889D01*
G37*
G36*
X144628591Y-58320443D02*
X145088210Y-57860824D01*
X146078159Y-58850773D01*
X145618540Y-59310392D01*
X144628591Y-58320443D01*
X144628591Y-58320443D01*
G37*
G36*
X144275037Y-58673996D02*
X144734656Y-58214377D01*
X145724605Y-59204326D01*
X145264986Y-59663945D01*
X144275037Y-58673996D01*
X144275037Y-58673996D01*
G37*
G36*
X143921484Y-59027550D02*
X144381103Y-58567931D01*
X145371052Y-59557880D01*
X144911433Y-60017499D01*
X143921484Y-59027550D01*
X143921484Y-59027550D01*
G37*
G36*
X143567931Y-59381103D02*
X144027550Y-58921484D01*
X145017499Y-59911433D01*
X144557880Y-60371052D01*
X143567931Y-59381103D01*
X143567931Y-59381103D01*
G37*
G36*
X143214377Y-59734656D02*
X143673996Y-59275037D01*
X144663945Y-60264986D01*
X144204326Y-60724605D01*
X143214377Y-59734656D01*
X143214377Y-59734656D01*
G37*
G36*
X142860824Y-60088210D02*
X143320443Y-59628591D01*
X144310392Y-60618540D01*
X143850773Y-61078159D01*
X142860824Y-60088210D01*
X142860824Y-60088210D01*
G37*
G36*
X142507270Y-60441763D02*
X142966889Y-59982144D01*
X143956838Y-60972093D01*
X143497219Y-61431712D01*
X142507270Y-60441763D01*
X142507270Y-60441763D01*
G37*
G36*
X142153717Y-60795317D02*
X142613336Y-60335698D01*
X143603285Y-61325647D01*
X143143666Y-61785266D01*
X142153717Y-60795317D01*
X142153717Y-60795317D01*
G37*
G36*
X141800164Y-61148870D02*
X142259783Y-60689251D01*
X143249732Y-61679200D01*
X142790113Y-62138819D01*
X141800164Y-61148870D01*
X141800164Y-61148870D01*
G37*
G36*
X141446610Y-61502423D02*
X141906229Y-61042804D01*
X142896178Y-62032753D01*
X142436559Y-62492372D01*
X141446610Y-61502423D01*
X141446610Y-61502423D01*
G37*
G36*
X141093057Y-61855977D02*
X141552676Y-61396358D01*
X142542625Y-62386307D01*
X142083006Y-62845926D01*
X141093057Y-61855977D01*
X141093057Y-61855977D01*
G37*
G36*
X142083006Y-64154074D02*
X142542625Y-64613693D01*
X141552676Y-65603642D01*
X141093057Y-65144023D01*
X142083006Y-64154074D01*
X142083006Y-64154074D01*
G37*
G36*
X142436559Y-64507628D02*
X142896178Y-64967247D01*
X141906229Y-65957196D01*
X141446610Y-65497577D01*
X142436559Y-64507628D01*
X142436559Y-64507628D01*
G37*
G36*
X142790113Y-64861181D02*
X143249732Y-65320800D01*
X142259783Y-66310749D01*
X141800164Y-65851130D01*
X142790113Y-64861181D01*
X142790113Y-64861181D01*
G37*
G36*
X143143666Y-65214734D02*
X143603285Y-65674353D01*
X142613336Y-66664302D01*
X142153717Y-66204683D01*
X143143666Y-65214734D01*
X143143666Y-65214734D01*
G37*
G36*
X143497219Y-65568288D02*
X143956838Y-66027907D01*
X142966889Y-67017856D01*
X142507270Y-66558237D01*
X143497219Y-65568288D01*
X143497219Y-65568288D01*
G37*
G36*
X143850773Y-65921841D02*
X144310392Y-66381460D01*
X143320443Y-67371409D01*
X142860824Y-66911790D01*
X143850773Y-65921841D01*
X143850773Y-65921841D01*
G37*
G36*
X144204326Y-66275395D02*
X144663945Y-66735014D01*
X143673996Y-67724963D01*
X143214377Y-67265344D01*
X144204326Y-66275395D01*
X144204326Y-66275395D01*
G37*
G36*
X144557880Y-66628948D02*
X145017499Y-67088567D01*
X144027550Y-68078516D01*
X143567931Y-67618897D01*
X144557880Y-66628948D01*
X144557880Y-66628948D01*
G37*
G36*
X144911433Y-66982501D02*
X145371052Y-67442120D01*
X144381103Y-68432069D01*
X143921484Y-67972450D01*
X144911433Y-66982501D01*
X144911433Y-66982501D01*
G37*
G36*
X145264986Y-67336055D02*
X145724605Y-67795674D01*
X144734656Y-68785623D01*
X144275037Y-68326004D01*
X145264986Y-67336055D01*
X145264986Y-67336055D01*
G37*
G36*
X145618540Y-67689608D02*
X146078159Y-68149227D01*
X145088210Y-69139176D01*
X144628591Y-68679557D01*
X145618540Y-67689608D01*
X145618540Y-67689608D01*
G37*
G36*
X145972093Y-68043162D02*
X146431712Y-68502781D01*
X145441763Y-69492730D01*
X144982144Y-69033111D01*
X145972093Y-68043162D01*
X145972093Y-68043162D01*
G37*
G36*
X146325647Y-68396715D02*
X146785266Y-68856334D01*
X145795317Y-69846283D01*
X145335698Y-69386664D01*
X146325647Y-68396715D01*
X146325647Y-68396715D01*
G37*
G36*
X146679200Y-68750268D02*
X147138819Y-69209887D01*
X146148870Y-70199836D01*
X145689251Y-69740217D01*
X146679200Y-68750268D01*
X146679200Y-68750268D01*
G37*
G36*
X147032753Y-69103822D02*
X147492372Y-69563441D01*
X146502423Y-70553390D01*
X146042804Y-70093771D01*
X147032753Y-69103822D01*
X147032753Y-69103822D01*
G37*
G36*
X147386307Y-69457375D02*
X147845926Y-69916994D01*
X146855977Y-70906943D01*
X146396358Y-70447324D01*
X147386307Y-69457375D01*
X147386307Y-69457375D01*
G37*
G36*
X149154074Y-69916994D02*
X149613693Y-69457375D01*
X150603642Y-70447324D01*
X150144023Y-70906943D01*
X149154074Y-69916994D01*
X149154074Y-69916994D01*
G37*
G36*
X149507628Y-69563441D02*
X149967247Y-69103822D01*
X150957196Y-70093771D01*
X150497577Y-70553390D01*
X149507628Y-69563441D01*
X149507628Y-69563441D01*
G37*
G36*
X149861181Y-69209887D02*
X150320800Y-68750268D01*
X151310749Y-69740217D01*
X150851130Y-70199836D01*
X149861181Y-69209887D01*
X149861181Y-69209887D01*
G37*
G36*
X150214734Y-68856334D02*
X150674353Y-68396715D01*
X151664302Y-69386664D01*
X151204683Y-69846283D01*
X150214734Y-68856334D01*
X150214734Y-68856334D01*
G37*
G36*
X150568288Y-68502781D02*
X151027907Y-68043162D01*
X152017856Y-69033111D01*
X151558237Y-69492730D01*
X150568288Y-68502781D01*
X150568288Y-68502781D01*
G37*
G36*
X150921841Y-68149227D02*
X151381460Y-67689608D01*
X152371409Y-68679557D01*
X151911790Y-69139176D01*
X150921841Y-68149227D01*
X150921841Y-68149227D01*
G37*
G36*
X151275395Y-67795674D02*
X151735014Y-67336055D01*
X152724963Y-68326004D01*
X152265344Y-68785623D01*
X151275395Y-67795674D01*
X151275395Y-67795674D01*
G37*
G36*
X151628948Y-67442120D02*
X152088567Y-66982501D01*
X153078516Y-67972450D01*
X152618897Y-68432069D01*
X151628948Y-67442120D01*
X151628948Y-67442120D01*
G37*
G36*
X151982501Y-67088567D02*
X152442120Y-66628948D01*
X153432069Y-67618897D01*
X152972450Y-68078516D01*
X151982501Y-67088567D01*
X151982501Y-67088567D01*
G37*
G36*
X152336055Y-66735014D02*
X152795674Y-66275395D01*
X153785623Y-67265344D01*
X153326004Y-67724963D01*
X152336055Y-66735014D01*
X152336055Y-66735014D01*
G37*
G36*
X152689608Y-66381460D02*
X153149227Y-65921841D01*
X154139176Y-66911790D01*
X153679557Y-67371409D01*
X152689608Y-66381460D01*
X152689608Y-66381460D01*
G37*
G36*
X153043162Y-66027907D02*
X153502781Y-65568288D01*
X154492730Y-66558237D01*
X154033111Y-67017856D01*
X153043162Y-66027907D01*
X153043162Y-66027907D01*
G37*
G36*
X153396715Y-65674353D02*
X153856334Y-65214734D01*
X154846283Y-66204683D01*
X154386664Y-66664302D01*
X153396715Y-65674353D01*
X153396715Y-65674353D01*
G37*
G36*
X153750268Y-65320800D02*
X154209887Y-64861181D01*
X155199836Y-65851130D01*
X154740217Y-66310749D01*
X153750268Y-65320800D01*
X153750268Y-65320800D01*
G37*
G36*
X154103822Y-64967247D02*
X154563441Y-64507628D01*
X155553390Y-65497577D01*
X155093771Y-65957196D01*
X154103822Y-64967247D01*
X154103822Y-64967247D01*
G37*
G36*
X154457375Y-64613693D02*
X154916994Y-64154074D01*
X155906943Y-65144023D01*
X155447324Y-65603642D01*
X154457375Y-64613693D01*
X154457375Y-64613693D01*
G37*
D12*
X145250000Y-53000000D03*
X146750000Y-53000000D03*
X134750000Y-104500000D03*
X133250000Y-104500000D03*
X152250000Y-103500000D03*
X150750000Y-103500000D03*
X134750000Y-102500000D03*
X133250000Y-102500000D03*
X152250000Y-101500000D03*
X150750000Y-101500000D03*
X134750000Y-96500000D03*
X133250000Y-96500000D03*
X152250000Y-95500000D03*
X150750000Y-95500000D03*
X138750000Y-101500000D03*
X137250000Y-101500000D03*
X156750000Y-101000000D03*
X155250000Y-101000000D03*
D13*
X159000000Y-100250000D03*
X159000000Y-101750000D03*
X140750000Y-99750000D03*
X140750000Y-101250000D03*
D14*
X159000000Y-98000000D03*
X162000000Y-98000000D03*
X141500000Y-97500000D03*
X144500000Y-97500000D03*
D12*
X165750000Y-66500000D03*
X164250000Y-66500000D03*
D13*
X161500000Y-62750000D03*
X161500000Y-64250000D03*
D12*
X166000000Y-60750000D03*
X167500000Y-60750000D03*
X129250000Y-60250000D03*
X130750000Y-60250000D03*
X141750000Y-56750000D03*
X143250000Y-56750000D03*
D13*
X144000000Y-71850000D03*
X144000000Y-73350000D03*
D12*
X167750000Y-101000000D03*
X166250000Y-101000000D03*
D13*
X145600000Y-71850000D03*
X145600000Y-73350000D03*
D10*
G36*
X139748008Y-61038820D02*
X140561180Y-61851992D01*
X139712652Y-62700520D01*
X138899480Y-61887348D01*
X139748008Y-61038820D01*
X139748008Y-61038820D01*
G37*
G36*
X138687348Y-62099480D02*
X139500520Y-62912652D01*
X138651992Y-63761180D01*
X137838820Y-62948008D01*
X138687348Y-62099480D01*
X138687348Y-62099480D01*
G37*
D12*
X145250000Y-54750000D03*
X146750000Y-54750000D03*
X143250000Y-53750000D03*
X141750000Y-53750000D03*
D10*
G36*
X153138820Y-54201992D02*
X153951992Y-53388820D01*
X154800520Y-54237348D01*
X153987348Y-55050520D01*
X153138820Y-54201992D01*
X153138820Y-54201992D01*
G37*
G36*
X154199480Y-55262652D02*
X155012652Y-54449480D01*
X155861180Y-55298008D01*
X155048008Y-56111180D01*
X154199480Y-55262652D01*
X154199480Y-55262652D01*
G37*
G36*
X151888820Y-55701992D02*
X152701992Y-54888820D01*
X153550520Y-55737348D01*
X152737348Y-56550520D01*
X151888820Y-55701992D01*
X151888820Y-55701992D01*
G37*
G36*
X152949480Y-56762652D02*
X153762652Y-55949480D01*
X154611180Y-56798008D01*
X153798008Y-57611180D01*
X152949480Y-56762652D01*
X152949480Y-56762652D01*
G37*
D12*
X144250000Y-77300000D03*
X142750000Y-77300000D03*
X144250000Y-75250000D03*
X142750000Y-75250000D03*
X147750000Y-80500000D03*
X149250000Y-80500000D03*
X160250000Y-80000000D03*
X158750000Y-80000000D03*
D13*
X162500000Y-75250000D03*
X162500000Y-76750000D03*
D12*
X134550000Y-80000000D03*
X133050000Y-80000000D03*
X123150000Y-60600000D03*
X121650000Y-60600000D03*
D13*
X125000000Y-60750000D03*
X125000000Y-62250000D03*
X125000000Y-65750000D03*
X125000000Y-64250000D03*
D12*
X173850000Y-60600000D03*
X175350000Y-60600000D03*
D13*
X172000000Y-62250000D03*
X172000000Y-60750000D03*
D12*
X173850000Y-63000000D03*
X175350000Y-63000000D03*
D13*
X172000000Y-64750000D03*
X172000000Y-66250000D03*
D15*
X176549020Y-94500000D03*
X174450980Y-94500000D03*
X123849020Y-41600000D03*
X121750980Y-41600000D03*
X142649020Y-41600000D03*
X140550980Y-41600000D03*
X154350980Y-41600000D03*
X156449020Y-41600000D03*
X173150980Y-41600000D03*
X175249020Y-41600000D03*
X120450980Y-94500000D03*
X122549020Y-94500000D03*
D11*
X119569827Y-58271239D03*
X122071239Y-57830173D03*
X156172225Y-35640956D03*
X157040956Y-38027775D03*
X174928761Y-57830173D03*
X177430173Y-58271239D03*
X155972225Y-29640956D03*
X156840956Y-32027775D03*
X180328761Y-60430173D03*
X182830173Y-60871239D03*
D16*
X132900000Y-98550000D03*
X132900000Y-99500000D03*
X132900000Y-100450000D03*
X135100000Y-100450000D03*
X135100000Y-98550000D03*
X135100000Y-99500000D03*
X150400000Y-97550000D03*
X150400000Y-98500000D03*
X150400000Y-99450000D03*
X152600000Y-99450000D03*
X152600000Y-97550000D03*
X152600000Y-98500000D03*
X163900000Y-62800000D03*
X163900000Y-63750000D03*
X163900000Y-64700000D03*
X166100000Y-64700000D03*
X166100000Y-62800000D03*
D17*
X149500000Y-74400000D03*
X149100000Y-74400000D03*
X148700000Y-74400000D03*
X148300000Y-74400000D03*
X147900000Y-74400000D03*
X147500000Y-74400000D03*
D18*
X146900000Y-75000000D03*
X146900000Y-75400000D03*
X146900000Y-75800000D03*
X146900000Y-76200000D03*
X146900000Y-76600000D03*
X146900000Y-77000000D03*
D17*
X147500000Y-77600000D03*
X147900000Y-77600000D03*
X148300000Y-77600000D03*
X148700000Y-77600000D03*
X149100000Y-77600000D03*
X149500000Y-77600000D03*
D18*
X150100000Y-77000000D03*
X150100000Y-76600000D03*
X150100000Y-76200000D03*
X150100000Y-75800000D03*
X150100000Y-75400000D03*
X150100000Y-75000000D03*
D19*
X148100000Y-76435000D03*
X148900000Y-76435000D03*
X148100000Y-75565000D03*
X148900000Y-75565000D03*
D20*
X159750000Y-77500000D03*
X159250000Y-77500000D03*
X158750000Y-77500000D03*
X158250000Y-77500000D03*
X157750000Y-77500000D03*
X157250000Y-77500000D03*
X159750000Y-75500000D03*
X159250000Y-75500000D03*
X158750000Y-75500000D03*
X158250000Y-75500000D03*
X157750000Y-75500000D03*
X157250000Y-75500000D03*
D21*
X158500000Y-76500000D03*
D20*
X133750000Y-77500000D03*
X133250000Y-77500000D03*
X132750000Y-77500000D03*
X132250000Y-77500000D03*
X131750000Y-77500000D03*
X131250000Y-77500000D03*
X133750000Y-75500000D03*
X133250000Y-75500000D03*
X132750000Y-75500000D03*
X132250000Y-75500000D03*
X131750000Y-75500000D03*
X131250000Y-75500000D03*
D21*
X132500000Y-76500000D03*
D22*
X151350000Y-50875000D03*
X151350000Y-50225000D03*
X151350000Y-49575000D03*
X151350000Y-48925000D03*
X145450000Y-48925000D03*
X145450000Y-49575000D03*
X145450000Y-50225000D03*
X145450000Y-50875000D03*
D23*
X137050000Y-97000000D03*
X138950000Y-97000000D03*
X155050000Y-96500000D03*
X156950000Y-96500000D03*
D24*
X161600000Y-107800000D03*
D25*
X159600000Y-107800000D03*
D24*
X154400000Y-107800000D03*
D25*
X152400000Y-107800000D03*
D26*
X166400000Y-107400000D03*
D27*
X168940000Y-107400000D03*
D28*
X147000000Y-107400000D03*
D29*
X144460000Y-107400000D03*
X141920000Y-107400000D03*
D30*
X159750000Y-72250000D03*
D31*
X159750000Y-69710000D03*
X162290000Y-72250000D03*
X162290000Y-69710000D03*
X164830000Y-72250000D03*
X164830000Y-69710000D03*
D30*
X131670000Y-72250000D03*
D31*
X131670000Y-69710000D03*
X134210000Y-72250000D03*
X134210000Y-69710000D03*
X136750000Y-72250000D03*
X136750000Y-69710000D03*
D32*
X154300000Y-46250760D03*
X156200000Y-46250760D03*
X155250000Y-44251780D03*
X140550000Y-46000760D03*
X142450000Y-46000760D03*
X141500000Y-44001780D03*
D33*
X174250000Y-98000000D03*
X175750000Y-98000000D03*
X138750000Y-99500000D03*
X137250000Y-99500000D03*
X137250000Y-103500000D03*
X138750000Y-103500000D03*
X156750000Y-99000000D03*
X155250000Y-99000000D03*
X155250000Y-103000000D03*
X156750000Y-103000000D03*
X122650000Y-39400000D03*
X124150000Y-39400000D03*
X141450000Y-39400000D03*
X142950000Y-39400000D03*
X155550000Y-39600000D03*
X154050000Y-39600000D03*
X174350000Y-39600000D03*
X172850000Y-39600000D03*
X122750000Y-98000000D03*
X121250000Y-98000000D03*
X170750000Y-103000000D03*
X169250000Y-103000000D03*
X167750000Y-103000000D03*
X166250000Y-103000000D03*
X119950000Y-60600000D03*
X118450000Y-60600000D03*
D34*
X127000000Y-61250000D03*
X127000000Y-62750000D03*
D33*
X119950000Y-63000000D03*
X118450000Y-63000000D03*
D34*
X127000000Y-66750000D03*
X127000000Y-65250000D03*
D33*
X177050000Y-60600000D03*
X178550000Y-60600000D03*
D34*
X170000000Y-62750000D03*
X170000000Y-61250000D03*
D33*
X177050000Y-63000000D03*
X178550000Y-63000000D03*
D34*
X170000000Y-65250000D03*
X170000000Y-66750000D03*
D33*
X151000000Y-46750000D03*
X152500000Y-46750000D03*
D35*
X124200000Y-107200000D03*
X121800000Y-107200000D03*
X124200000Y-102800000D03*
X121800000Y-102800000D03*
X175200000Y-107200000D03*
X172800000Y-107200000D03*
X175200000Y-102800000D03*
X172800000Y-102800000D03*
D36*
X165000000Y-75500000D03*
X165000000Y-78500000D03*
D13*
X136000000Y-75250000D03*
X136000000Y-76750000D03*
D36*
X138500000Y-75500000D03*
X138500000Y-78500000D03*
D12*
X123150000Y-63000000D03*
X121650000Y-63000000D03*
D37*
X154750000Y-48550000D03*
X154750000Y-51450000D03*
D33*
X146000000Y-46750000D03*
X144500000Y-46750000D03*
D37*
X142250000Y-48550000D03*
X142250000Y-51450000D03*
D28*
X137000000Y-107400000D03*
D29*
X134460000Y-107400000D03*
X131920000Y-107400000D03*
X129380000Y-107400000D03*
D22*
X130650000Y-62450000D03*
X130650000Y-63100000D03*
X130650000Y-63750000D03*
X130650000Y-64400000D03*
X130650000Y-65050000D03*
X130650000Y-65700000D03*
X130650000Y-66350000D03*
X136550000Y-66350000D03*
X136550000Y-65700000D03*
X136550000Y-65050000D03*
X136550000Y-64400000D03*
X136550000Y-63750000D03*
X136550000Y-63100000D03*
X136550000Y-62450000D03*
M02*
