M48
;DRILL file {KiCad 4.0.4-stable} date 
;FORMAT={3:3/ absolute / metric / suppress trailing zeros}
FMAT,2
METRIC,LZ
T1C0.300
T2C0.400
T3C0.600
T4C0.700
T5C0.800
T6C1.016
%
G90
G05
M71
T1
X112Y-0535
X1125Y-056
X113Y-0515
X113Y-058
X113Y-06
X1155Y-048
X11625Y-05825
X11625Y-059
X117Y-0455
X117Y-05825
X11705Y-059
X1175Y-064
X1175Y-0633
X11775Y-0615
X11775Y-06225
X11825Y-064
X11845Y-0615
X1185Y-0435
X11875Y-062
X119Y-06425
X1198Y-0642
X12Y-0415
X12025Y-065
X1208Y-0616
X1215Y-0395
X1215Y-04775
X12175Y-05
X122Y-052
X1222Y-0616
X12225Y-043
X12225Y-06575
X1225Y-04575
X1225Y-05375
X123Y-0375
X123Y-0555
X1232Y-0572
X12375Y-0665
X124Y-044
X12475Y-06775
X125Y-035
X125Y-069
X125Y-07025
X125Y-07125
X125Y-0725
X125Y-07375
X125Y-075
X1252Y-0578
X12525Y-04225
X1265Y-04075
X127Y-033
X127Y-0584
X127Y-0915
X12775Y-03925
X1282Y-0798
X12825Y-067
X129Y-031
X129Y-0775
X129Y-07825
X129Y-079
X129Y-07975
X12925Y-06725
X1294Y-0592
X1294Y-077
X1298Y-0766
X1302Y-0748
X1304Y-0594
X1304Y-0754
X1304Y-076
X1304Y-0766
X1306Y-0784
X130601Y-10638
X1308Y-0748
X130825Y-0618
X131Y-0285
X131Y-031
X131Y-079
X131Y-0798
X131Y-0804
X131Y-081
X1312Y-033
X1312Y-0348
X1312Y-0364
X1315Y-06725
X13175Y-098651
X13175Y-099251
X13175Y-099851
X13175Y-100451
X13175Y-101046
X13175Y-1016
X13175Y-1022
X13175Y-1028
X13175Y-1034
X13175Y-104
X131764Y-104586
X1318Y-06
X1318Y-0608
X1318Y-0798
X1318Y-0804
X1318Y-081
X131829Y-087829
X132Y-0624
X132Y-0658
X132Y-07425
X1322Y-0604
X1322Y-0784
X1322Y-1016
X1322Y-1022
X1322Y-1028
X1322Y-1034
X1322Y-104
X1322Y-1046
X1324Y-0812
X1324Y-0818
X1324Y-0866
X1325Y-0765
X1326Y-066
X13275Y-067
X1328Y-0608
X133Y-0812
X133Y-0818
X133296Y-064306
X1336Y-0608
X1336Y-0812
X1336Y-0818
X13375Y-06575
X13375Y-067
X13375Y-10125
X1338Y-0824
X1338Y-088
X1338Y-0888
X133948Y-0645
X134Y-0866
X134Y-0872
X13425Y-064
X1344Y-0826
X1345Y-0285
X1345Y-031
X1346Y-033
X1346Y-0348
X1346Y-0366
X1346Y-0765
X1346Y-0816
X1346Y-0862
X1346Y-0872
X1346Y-0888
X13475Y-067
X135Y-0638
X135Y-06575
X135Y-0762
X135Y-0768
X135Y-081
X135Y-0822
X135Y-0858
X1352Y-0644
X1352Y-0872
X1354Y-0814
X1354Y-0888
X1356Y-079
X135704Y-081704
X1358Y-0872
X136Y-06725
X1362Y-079
X1362Y-0796
X1364Y-0872
X1364Y-0888
X1365Y-10075
X1368Y-079
X1368Y-0796
X137Y-0872
X1372Y-0888
X1374Y-0828
X1374Y-0842
X137451Y-079551
X13775Y-06725
X138Y-0285
X138Y-031
X138Y-033
X138Y-0348
X138Y-0378
X138Y-0648
X138Y-0826
X138Y-0888
X1382Y-0842
X13825Y-06625
X1386Y-0826
X13875Y-067
X139Y-0814
X139Y-0842
X1392Y-072
X1392Y-0826
X1394Y-0802
X1394Y-0808
X1395Y-06625
X1396Y-0814
X1396Y-1024
X1396Y-103
X1396Y-1038
X1398Y-0826
X1398Y-0842
X1398Y-0888
X14Y-0736
X14Y-0802
X14Y-0808
X140213Y-063345
X1404Y-0828
X1404Y-1024
X1404Y-103
X1404Y-1038
X140479Y-063079
X140556Y-07393
X1406Y-0842
X1406Y-0888
X1408Y-043
X1408Y-0632
X1408Y-0834
X140875Y-074439
X140879Y-062679
X1412Y-0828
X1412Y-1024
X1412Y-1032
X1412Y-1038
X1414Y-0628
X1414Y-0842
X1414Y-0852
X1414Y-0872
X1414Y-0888
X1416Y-037732
X141912Y-05025
X141912Y-0526
X141912Y-05269
X141912Y-0558
X142Y-0782
X142112Y-0578
X1422Y-0526
X1422Y-0558
X1422Y-0842
X1422Y-0852
X1422Y-0872
X1422Y-0888
X14225Y-05025
X142325Y-0732
X1424Y-0584
X1424Y-0592
X1424Y-081
X1425Y-060018
X1426Y-0782
X1426Y-0926
X1428Y-0526
X1428Y-0724
X143Y-05025
X143Y-081
X143Y-0844
X143Y-0852
X143Y-0872
X143Y-0888
X1432Y-0642
X1432Y-0782
X1432Y-092
X1434Y-0526
X1434Y-0822
X1434Y-0992
X1434Y-0998
X1436Y-081
X1436Y-0916
X1438Y-0742
X1438Y-0852
X1438Y-0872
X1438Y-0888
X143937Y-046051
X144Y-0488
X144Y-0504
X144Y-0822
X144Y-0844
X144Y-0912
X1442Y-052
X1442Y-0562
X1442Y-0612
X1442Y-081
X1444Y-0556
X1444Y-0742
X1444Y-0908
X1444Y-0992
X1444Y-0998
X1446Y-0654
X1446Y-0822
X1446Y-0852
X1446Y-0872
X1446Y-0888
X1448Y-057678
X1448Y-0622
X1448Y-081
X1448Y-0844
X1448Y-0904
X145Y-0642
X145Y-0742
X145Y-0946
X145099Y-07592
X1452Y-0822
X1452Y-09
X1452Y-0992
X1452Y-0998
X145351Y-057205
X145352Y-076996
X1454Y-0776
X1454Y-0782
X1454Y-081
X1454Y-0852
X1454Y-0872
X1454Y-0888
X1454Y-0942
X1456Y-0626
X1456Y-0748
X1456Y-0844
X1458Y-0656
X1458Y-0822
X1458Y-0894
X1458Y-0938
X145949Y-077057
X146Y-056
X146Y-0782
X146Y-081
X146Y-0962
X146Y-0968
X146Y-0974
X146Y-098
X146Y-0986
X146Y-0992
X1462Y-054
X1462Y-0852
X1462Y-0872
X1462Y-0934
X146201Y-077602
X1464Y-0822
X1464Y-0844
X1466Y-0538
X1466Y-0728
X1466Y-081
X1466Y-093
X1468Y-0558
X1468Y-0962
X1468Y-0968
X1468Y-0974
X1468Y-098
X1468Y-0986
X1468Y-0992
X147Y-0714
X147Y-0822
X147Y-0852
X147Y-0926
X147091Y-0478
X1472Y-0844
X1474Y-071
X1474Y-0718
X1474Y-0728
X1474Y-0922
X1475Y-05825
X1476Y-0822
X1476Y-0892
X1478Y-0526
X1478Y-0542
X1478Y-0548
X1478Y-0652
X1478Y-0706
X1478Y-0714
X1478Y-0852
X1478Y-0918
X148Y-0494
X148Y-05775
X148Y-05775
X148Y-0844
X1482Y-0626
X1482Y-071
X1482Y-0914
X1486Y-0498
X1486Y-0852
X1486Y-0862
X14875Y-05875
X148821Y-048801
X149Y-079
X149Y-0796
X149Y-0974
X149Y-098
X149Y-0986
X149Y-0992
X149Y-0998
X149Y-1004
X149Y-101
X149Y-1016
X149Y-1024
X149Y-103
X149Y-1036
X14925Y-05775
X14925Y-0585
X1494Y-0786
X1494Y-1062
X1494Y-107
X1494Y-1078
X1494Y-1086
X1494Y-1094
X149475Y-048925
X1495Y-0792
X1496Y-0504
X1496Y-101
X1496Y-1018
X1496Y-1024
X1496Y-103
X1496Y-1036
X14964Y-0478
X14969Y-064184
X1498Y-0608
X15Y-0484
X15Y-049
X15Y-0532
X15Y-0585
X15Y-0786
X15Y-0792
X150113Y-074236
X1502Y-1062
X1502Y-107
X1502Y-1078
X1502Y-1086
X1502Y-1094
X1505Y-059
X150561Y-082
X15067Y-074012
X150689Y-0658
X151Y-0734
X151044Y-085
X15143Y-066431
X1515Y-10025
X151596Y-081453
X1516Y-0614
X151613Y-07327
X151877Y-085
X152Y-0522
X152Y-0528
X152Y-0536
X152085Y-081877
X152087Y-072903
X15252Y-072487
X1526Y-0574
X15275Y-0522
X1528Y-049
X1528Y-051
X1528Y-0528
X1528Y-0536
X152825Y-076211
X152945Y-072064
X153Y-0578
X153Y-0768
X153Y-0774
X153Y-078
X153Y-0786
X153Y-0792
X153Y-0798
X1532Y-0584
X153201Y-062458
X1534Y-0522
X1534Y-0528
X153789Y-062025
X1538Y-058
X1538Y-0768
X1538Y-0774
X1538Y-078
X1538Y-0786
X1538Y-0792
X1538Y-0798
X153842Y-075042
X153857Y-071579
X154Y-0505
X154Y-10025
X1544Y-0578
X154568Y-043558
X15475Y-0505
X1548Y-0534
X1548Y-0574
X155008Y-042875
X155341Y-0384
X155583Y-069546
X1556Y-0566
X1556Y-0594
X1556Y-0666
X1558Y-08
X1558Y-0806
X155824Y-067224
X155891Y-063452
X156Y-069
X156108Y-070837
X156122Y-065002
X1562Y-0698
X1564Y-0672
X1564Y-0762
X1564Y-0768
X1564Y-0806
X1566Y-069
X1566Y-0752
X1566Y-0758
X1566Y-0776
X15668Y-063325
X1568Y-0698
X1568Y-073
X1568Y-0734
X1568Y-074
X1568Y-0746
X1568Y-0794
X157Y-064875
X157Y-0808
X157Y-0852
X157Y-086
X1574Y-069
X1574Y-0698
X1574Y-0734
X1576Y-0728
X1576Y-0746
X1576Y-0796
X1576Y-0808
X1578Y-0852
X1578Y-086
X1578Y-1028
X1578Y-1034
X1578Y-104
X1582Y-0784
X1582Y-0808
X1584Y-064
X1585Y-0765
X1586Y-0672
X1586Y-0852
X1586Y-086
X1586Y-1028
X1586Y-1034
X1586Y-104
X15875Y-028
X1588Y-0296
X1588Y-0324
X1588Y-0378
X1594Y-067325
X1594Y-0852
X1594Y-086
X1594Y-1028
X1594Y-1034
X1594Y-104
X1598Y-0658
X159838Y-063925
X159992Y-063925
X16Y-07425
X1602Y-0852
X1602Y-086
X1602Y-0958
X1604Y-064
X1604Y-0818
X160471Y-064329
X1606Y-0774
X1606Y-0782
X1606Y-0996
X1606Y-1002
X161Y-0765
X161Y-0852
X161Y-086
X161Y-0958
X161Y-0964
X1612Y-0782
X1612Y-0818
X1612Y-0996
X1612Y-1002
X1614Y-0774
X1614Y-0792
X1614Y-081
X1615Y-028
X1615Y-0765
X1616Y-0296
X1616Y-0324
X1616Y-036
X1618Y-0852
X1618Y-086
X1618Y-0958
X1618Y-0964
X1618Y-0996
X1618Y-1002
X162Y-0776
X162Y-0782
X162Y-0818
X162161Y-063925
X1622Y-06565
X1622Y-0792
X1622Y-081
X1624Y-0646
X1624Y-0996
X1624Y-1002
X1626Y-0852
X1626Y-086
X1626Y-0958
X1626Y-0964
X16275Y-064
X1628Y-0784
X1628Y-0818
X163Y-0792
X163Y-0804
X163Y-081
X1632Y-0656
X1632Y-097
X1632Y-0976
X1632Y-0982
X1632Y-0988
X1632Y-0994
X1634Y-0852
X1634Y-086
X1634Y-0958
X1634Y-0964
X1636Y-0818
X16375Y-07675
X164Y-0656
X164Y-07975
X1642Y-0296
X16425Y-028
X164378Y-063925
X1644Y-0326
X1644Y-036
X1645Y-07675
X1645Y-0805
X1648Y-0656
X165Y-063925
X165Y-07975
X16525Y-07675
X1655Y-0805
X16575Y-07725
X16575Y-07975
X1658Y-063925
X1658Y-0822
X1664Y-0656
X1665Y-07825
X1665Y-079
X1665Y-07975
X1665Y-0805
X1666Y-063925
X1668Y-061375
X167Y-037
X167Y-0654
X167039Y-067375
X1675Y-061375
X1675Y-07875
X1675Y-0795
X1675Y-08025
X16775Y-0295
X1682Y-0634
X16825Y-0585
X168254Y-062711
X1684Y-0592
X1684Y-06
X1684Y-062
X1684Y-0652
X1684Y-0846
X168532Y-065863
X1686Y-0608
X1688Y-0664
X169Y-039
X169Y-0585
X169Y-06
X1695Y-0315
X1695Y-0585
X1696Y-06
X1702Y-06
X17025Y-0585
X171Y-0335
X171Y-04125
X171Y-0585
X171Y-06
X17175Y-069
X17175Y-0705
X17175Y-07175
X17175Y-0735
X17175Y-07475
X17175Y-096
X17225Y-035
X17225Y-05725
X17225Y-0675
X1725Y-04325
X1735Y-0365
X1735Y-05625
X1735Y-06625
X17375Y-1
X174Y-04525
X174Y-0616
X1745Y-0545
X17475Y-03825
X17475Y-052
X1752Y-0594
X17525Y-05
X1755Y-0475
X1755Y-0655
X176Y-04
X1762Y-0596
X177141Y-042884
X17725Y-04175
X17725Y-0645
X17775Y-064
X178Y-06125
X1785Y-064
X179Y-044
X17925Y-05975
X17925Y-06125
X17925Y-064
X1795Y-06325
X18025Y-06325
X1805Y-046
X182Y-048
X18325Y-0495
X18425Y-0605
X1845Y-05925
X18475Y-052
X18475Y-0575
X18525Y-05375
X18525Y-05575
T2
X1436Y-0552
T3
X141Y-08125
X1548Y-0738
X169Y-083
T4
X1524Y-1078
X1544Y-1078
X1596Y-1078
X1616Y-1078
T5
X11417Y-060871
X116671Y-06043
X11957Y-058271
X122071Y-05783
X139759Y-038028
X139959Y-032028
X140628Y-035641
X140828Y-029641
X155972Y-029641
X156172Y-035641
X156841Y-032028
X157041Y-038028
X174929Y-05783
X17743Y-058271
X180329Y-06043
X18283Y-060871
T6
X12938Y-1074
X13167Y-06971
X13167Y-07225
X13192Y-1074
X13421Y-06971
X13421Y-07225
X13446Y-1074
X13675Y-06971
X13675Y-07225
X137Y-1074
X14192Y-1074
X14446Y-1074
X147Y-1074
X15975Y-06971
X15975Y-07225
X16229Y-06971
X16229Y-07225
X16483Y-06971
X16483Y-07225
X1664Y-1074
X16894Y-1074
T0
M30
