G04 #@! TF.FileFunction,Legend,Bot*
%FSLAX46Y46*%
G04 Gerber Fmt 4.6, Leading zero omitted, Abs format (unit mm)*
G04 Created by KiCad (PCBNEW 4.0.4-stable) date *
%MOMM*%
%LPD*%
G01*
G04 APERTURE LIST*
%ADD10C,0.100000*%
%ADD11C,1.800000*%
%ADD12R,1.600000X2.100000*%
%ADD13O,1.600000X2.100000*%
%ADD14R,2.432000X2.432000*%
%ADD15O,2.432000X2.432000*%
%ADD16R,2.127200X2.432000*%
%ADD17O,2.127200X2.432000*%
%ADD18R,2.127200X2.127200*%
%ADD19O,2.127200X2.127200*%
G04 APERTURE END LIST*
D10*
%LPC*%
D11*
X114169827Y-60871239D03*
X116671239Y-60430173D03*
X139759044Y-38027775D03*
X140627775Y-35640956D03*
X139959044Y-32027775D03*
X140827775Y-29640956D03*
X119569827Y-58271239D03*
X122071239Y-57830173D03*
X156172225Y-35640956D03*
X157040956Y-38027775D03*
X174928761Y-57830173D03*
X177430173Y-58271239D03*
X155972225Y-29640956D03*
X156840956Y-32027775D03*
X180328761Y-60430173D03*
X182830173Y-60871239D03*
D12*
X161600000Y-107800000D03*
D13*
X159600000Y-107800000D03*
D12*
X154400000Y-107800000D03*
D13*
X152400000Y-107800000D03*
D14*
X166400000Y-107400000D03*
D15*
X168940000Y-107400000D03*
D16*
X147000000Y-107400000D03*
D17*
X144460000Y-107400000D03*
X141920000Y-107400000D03*
D18*
X159750000Y-72250000D03*
D19*
X159750000Y-69710000D03*
X162290000Y-72250000D03*
X162290000Y-69710000D03*
X164830000Y-72250000D03*
X164830000Y-69710000D03*
D18*
X131670000Y-72250000D03*
D19*
X131670000Y-69710000D03*
X134210000Y-72250000D03*
X134210000Y-69710000D03*
X136750000Y-72250000D03*
X136750000Y-69710000D03*
D16*
X137000000Y-107400000D03*
D17*
X134460000Y-107400000D03*
X131920000Y-107400000D03*
X129380000Y-107400000D03*
M02*
