G04 #@! TF.FileFunction,Legend,Top*
%FSLAX46Y46*%
G04 Gerber Fmt 4.6, Leading zero omitted, Abs format (unit mm)*
G04 Created by KiCad (PCBNEW 4.0.4-stable) date *
%MOMM*%
%LPD*%
G01*
G04 APERTURE LIST*
%ADD10C,0.100000*%
%ADD11C,0.200000*%
%ADD12C,0.150000*%
%ADD13C,1.800000*%
%ADD14R,1.200000X1.150000*%
%ADD15R,1.150000X1.200000*%
%ADD16R,1.400000X2.000000*%
%ADD17R,1.598880X1.598880*%
%ADD18R,1.460000X1.050000*%
%ADD19R,0.600000X1.100000*%
%ADD20R,1.100000X0.600000*%
%ADD21R,1.200000X1.275000*%
%ADD22R,0.680000X1.000000*%
%ADD23R,4.400000X1.100000*%
%ADD24R,1.850000X0.850000*%
%ADD25R,1.100000X1.700000*%
%ADD26R,1.600000X2.100000*%
%ADD27O,1.600000X2.100000*%
%ADD28R,2.432000X2.432000*%
%ADD29O,2.432000X2.432000*%
%ADD30R,2.127200X2.432000*%
%ADD31O,2.127200X2.432000*%
%ADD32R,2.127200X2.127200*%
%ADD33O,2.127200X2.127200*%
%ADD34R,1.200100X1.200100*%
%ADD35R,0.900000X1.300000*%
%ADD36R,1.300000X0.900000*%
%ADD37R,1.200000X1.600000*%
%ADD38R,2.000000X1.400000*%
%ADD39R,2.100000X1.300000*%
G04 APERTURE END LIST*
D10*
D11*
X125200000Y-101300000D02*
X125200000Y-101600000D01*
X130900000Y-101300000D02*
X125200000Y-101300000D01*
X130900000Y-101600000D02*
X130900000Y-101300000D01*
X130900000Y-104800000D02*
X130900000Y-101600000D01*
X125200000Y-104800000D02*
X130900000Y-104800000D01*
X125200000Y-101600000D02*
X125200000Y-104800000D01*
X147400000Y-105400000D02*
X147100000Y-105400000D01*
X147400000Y-102000000D02*
X147400000Y-105400000D01*
X142000000Y-102000000D02*
X147400000Y-102000000D01*
X142000000Y-105400000D02*
X142000000Y-102000000D01*
X147200000Y-105400000D02*
X142000000Y-105400000D01*
D12*
X125500000Y-103861904D02*
X125452381Y-103957142D01*
X125452381Y-104099999D01*
X125500000Y-104242857D01*
X125595238Y-104338095D01*
X125690476Y-104385714D01*
X125880952Y-104433333D01*
X126023810Y-104433333D01*
X126214286Y-104385714D01*
X126309524Y-104338095D01*
X126404762Y-104242857D01*
X126452381Y-104099999D01*
X126452381Y-104004761D01*
X126404762Y-103861904D01*
X126357143Y-103814285D01*
X126023810Y-103814285D01*
X126023810Y-104004761D01*
X126452381Y-103385714D02*
X125452381Y-103385714D01*
X126452381Y-102814285D01*
X125452381Y-102814285D01*
X126452381Y-102338095D02*
X125452381Y-102338095D01*
X125452381Y-102100000D01*
X125500000Y-101957142D01*
X125595238Y-101861904D01*
X125690476Y-101814285D01*
X125880952Y-101766666D01*
X126023810Y-101766666D01*
X126214286Y-101814285D01*
X126309524Y-101861904D01*
X126404762Y-101957142D01*
X126452381Y-102100000D01*
X126452381Y-102338095D01*
X127857143Y-103695238D02*
X127904762Y-103742857D01*
X127952381Y-103885714D01*
X127952381Y-103980952D01*
X127904762Y-104123810D01*
X127809524Y-104219048D01*
X127714286Y-104266667D01*
X127523810Y-104314286D01*
X127380952Y-104314286D01*
X127190476Y-104266667D01*
X127095238Y-104219048D01*
X127000000Y-104123810D01*
X126952381Y-103980952D01*
X126952381Y-103885714D01*
X127000000Y-103742857D01*
X127047619Y-103695238D01*
X127952381Y-102790476D02*
X127952381Y-103266667D01*
X126952381Y-103266667D01*
X127952381Y-102457143D02*
X126952381Y-102457143D01*
X127952381Y-101885714D02*
X127380952Y-102314286D01*
X126952381Y-101885714D02*
X127523810Y-102457143D01*
X129352381Y-104223809D02*
X128352381Y-104223809D01*
X128352381Y-103557143D02*
X128352381Y-103366666D01*
X128400000Y-103271428D01*
X128495238Y-103176190D01*
X128685714Y-103128571D01*
X129019048Y-103128571D01*
X129209524Y-103176190D01*
X129304762Y-103271428D01*
X129352381Y-103366666D01*
X129352381Y-103557143D01*
X129304762Y-103652381D01*
X129209524Y-103747619D01*
X129019048Y-103795238D01*
X128685714Y-103795238D01*
X128495238Y-103747619D01*
X128400000Y-103652381D01*
X128352381Y-103557143D01*
X130652381Y-103647619D02*
X130176190Y-103980953D01*
X130652381Y-104219048D02*
X129652381Y-104219048D01*
X129652381Y-103838095D01*
X129700000Y-103742857D01*
X129747619Y-103695238D01*
X129842857Y-103647619D01*
X129985714Y-103647619D01*
X130080952Y-103695238D01*
X130128571Y-103742857D01*
X130176190Y-103838095D01*
X130176190Y-104219048D01*
X130604762Y-103266667D02*
X130652381Y-103123810D01*
X130652381Y-102885714D01*
X130604762Y-102790476D01*
X130557143Y-102742857D01*
X130461905Y-102695238D01*
X130366667Y-102695238D01*
X130271429Y-102742857D01*
X130223810Y-102790476D01*
X130176190Y-102885714D01*
X130128571Y-103076191D01*
X130080952Y-103171429D01*
X130033333Y-103219048D01*
X129938095Y-103266667D01*
X129842857Y-103266667D01*
X129747619Y-103219048D01*
X129700000Y-103171429D01*
X129652381Y-103076191D01*
X129652381Y-102838095D01*
X129700000Y-102695238D01*
X129652381Y-102409524D02*
X129652381Y-101838095D01*
X130652381Y-102123810D02*
X129652381Y-102123810D01*
X145900000Y-104361904D02*
X145852381Y-104457142D01*
X145852381Y-104599999D01*
X145900000Y-104742857D01*
X145995238Y-104838095D01*
X146090476Y-104885714D01*
X146280952Y-104933333D01*
X146423810Y-104933333D01*
X146614286Y-104885714D01*
X146709524Y-104838095D01*
X146804762Y-104742857D01*
X146852381Y-104599999D01*
X146852381Y-104504761D01*
X146804762Y-104361904D01*
X146757143Y-104314285D01*
X146423810Y-104314285D01*
X146423810Y-104504761D01*
X146852381Y-103885714D02*
X145852381Y-103885714D01*
X146852381Y-103314285D01*
X145852381Y-103314285D01*
X146852381Y-102838095D02*
X145852381Y-102838095D01*
X145852381Y-102600000D01*
X145900000Y-102457142D01*
X145995238Y-102361904D01*
X146090476Y-102314285D01*
X146280952Y-102266666D01*
X146423810Y-102266666D01*
X146614286Y-102314285D01*
X146709524Y-102361904D01*
X146804762Y-102457142D01*
X146852381Y-102600000D01*
X146852381Y-102838095D01*
X144352381Y-104861905D02*
X144352381Y-104290476D01*
X145352381Y-104576191D02*
X144352381Y-104576191D01*
X144352381Y-104052381D02*
X145352381Y-103385714D01*
X144352381Y-103385714D02*
X145352381Y-104052381D01*
X143652381Y-104266666D02*
X143176190Y-104600000D01*
X143652381Y-104838095D02*
X142652381Y-104838095D01*
X142652381Y-104457142D01*
X142700000Y-104361904D01*
X142747619Y-104314285D01*
X142842857Y-104266666D01*
X142985714Y-104266666D01*
X143080952Y-104314285D01*
X143128571Y-104361904D01*
X143176190Y-104457142D01*
X143176190Y-104838095D01*
X142652381Y-103933333D02*
X143652381Y-103266666D01*
X142652381Y-103266666D02*
X143652381Y-103933333D01*
X112245577Y-59920945D02*
X112071929Y-58936137D01*
X112737981Y-59834120D02*
X112245577Y-59920945D01*
X112564332Y-58849313D02*
X112071929Y-58936137D01*
X117662019Y-58965880D02*
X118154423Y-58879055D01*
X117488371Y-57981072D02*
X117980775Y-57894248D01*
X117980775Y-57894248D02*
X118154423Y-58879055D01*
X113932368Y-52210903D02*
X113463518Y-49551922D01*
X111661362Y-53728312D02*
X112720616Y-59735640D01*
X116585401Y-52860071D02*
X117662019Y-58965880D01*
X116585400Y-52860072D02*
G75*
G03X111661362Y-53728312I-2462019J-434120D01*
G01*
X117662019Y-58965880D02*
X112737981Y-59834120D01*
X137973940Y-39219078D02*
X137034247Y-38877058D01*
X138144950Y-38749232D02*
X137973940Y-39219078D01*
X137205257Y-38407211D02*
X137034247Y-38877058D01*
X139855050Y-34050768D02*
X140026060Y-33580922D01*
X138915358Y-33708748D02*
X139086368Y-33238902D01*
X139086368Y-33238902D02*
X140026060Y-33580922D01*
X132140244Y-33903253D02*
X129603074Y-32979799D01*
X132318855Y-36628707D02*
X138050980Y-38715030D01*
X134028956Y-31930244D02*
X139855050Y-34050768D01*
X134028957Y-31930243D02*
G75*
G03X132318855Y-36628707I-855051J-2349232D01*
G01*
X139855050Y-34050768D02*
X138144950Y-38749232D01*
X138173940Y-33219078D02*
X137234247Y-32877058D01*
X138344950Y-32749232D02*
X138173940Y-33219078D01*
X137405257Y-32407211D02*
X137234247Y-32877058D01*
X140055050Y-28050768D02*
X140226060Y-27580922D01*
X139115358Y-27708748D02*
X139286368Y-27238902D01*
X139286368Y-27238902D02*
X140226060Y-27580922D01*
X132340244Y-27903253D02*
X129803074Y-26979799D01*
X132518855Y-30628707D02*
X138250980Y-32715030D01*
X134228956Y-25930244D02*
X140055050Y-28050768D01*
X134228957Y-25930243D02*
G75*
G03X132518855Y-30628707I-855051J-2349232D01*
G01*
X140055050Y-28050768D02*
X138344950Y-32749232D01*
X158671751Y-66576777D02*
X158176777Y-67071751D01*
X157328249Y-66223223D02*
X157823223Y-65728249D01*
X155818555Y-63500000D02*
X155111448Y-62792893D01*
X148500000Y-70818555D02*
X147739860Y-70058415D01*
X141181445Y-63500000D02*
X141941585Y-64260140D01*
X148500000Y-56181445D02*
X149260140Y-56941585D01*
X155818555Y-63500000D02*
X155058415Y-64260140D01*
X148500000Y-56181445D02*
X147739860Y-56941585D01*
X141181445Y-63500000D02*
X141941585Y-62739860D01*
X148500000Y-70818555D02*
X149260140Y-70058415D01*
X155111448Y-62792893D02*
X155836233Y-62068109D01*
X145650000Y-52400000D02*
X146350000Y-52400000D01*
X146350000Y-53600000D02*
X145650000Y-53600000D01*
X134350000Y-105100000D02*
X133650000Y-105100000D01*
X133650000Y-103900000D02*
X134350000Y-103900000D01*
X151850000Y-104100000D02*
X151150000Y-104100000D01*
X151150000Y-102900000D02*
X151850000Y-102900000D01*
X134350000Y-103100000D02*
X133650000Y-103100000D01*
X133650000Y-101900000D02*
X134350000Y-101900000D01*
X151850000Y-102100000D02*
X151150000Y-102100000D01*
X151150000Y-100900000D02*
X151850000Y-100900000D01*
X134350000Y-97100000D02*
X133650000Y-97100000D01*
X133650000Y-95900000D02*
X134350000Y-95900000D01*
X151850000Y-96100000D02*
X151150000Y-96100000D01*
X151150000Y-94900000D02*
X151850000Y-94900000D01*
X138350000Y-102100000D02*
X137650000Y-102100000D01*
X137650000Y-100900000D02*
X138350000Y-100900000D01*
X156350000Y-101600000D02*
X155650000Y-101600000D01*
X155650000Y-100400000D02*
X156350000Y-100400000D01*
X159600000Y-100650000D02*
X159600000Y-101350000D01*
X158400000Y-101350000D02*
X158400000Y-100650000D01*
X141350000Y-100150000D02*
X141350000Y-100850000D01*
X140150000Y-100850000D02*
X140150000Y-100150000D01*
X161500000Y-96975000D02*
X159500000Y-96975000D01*
X159500000Y-99025000D02*
X161500000Y-99025000D01*
X144000000Y-96475000D02*
X142000000Y-96475000D01*
X142000000Y-98525000D02*
X144000000Y-98525000D01*
X165350000Y-67100000D02*
X164650000Y-67100000D01*
X164650000Y-65900000D02*
X165350000Y-65900000D01*
X162100000Y-63150000D02*
X162100000Y-63850000D01*
X160900000Y-63850000D02*
X160900000Y-63150000D01*
X166400000Y-60150000D02*
X167100000Y-60150000D01*
X167100000Y-61350000D02*
X166400000Y-61350000D01*
X129650000Y-59650000D02*
X130350000Y-59650000D01*
X130350000Y-60850000D02*
X129650000Y-60850000D01*
X142150000Y-56150000D02*
X142850000Y-56150000D01*
X142850000Y-57350000D02*
X142150000Y-57350000D01*
X144600000Y-72250000D02*
X144600000Y-72950000D01*
X143400000Y-72950000D02*
X143400000Y-72250000D01*
X167350000Y-101600000D02*
X166650000Y-101600000D01*
X166650000Y-100400000D02*
X167350000Y-100400000D01*
X146200000Y-72250000D02*
X146200000Y-72950000D01*
X145000000Y-72950000D02*
X145000000Y-72250000D01*
X139871751Y-62576777D02*
X139376777Y-63071751D01*
X138528249Y-62223223D02*
X139023223Y-61728249D01*
X145650000Y-54150000D02*
X146350000Y-54150000D01*
X146350000Y-55350000D02*
X145650000Y-55350000D01*
X142850000Y-54350000D02*
X142150000Y-54350000D01*
X142150000Y-53150000D02*
X142850000Y-53150000D01*
X154676777Y-54078249D02*
X155171751Y-54573223D01*
X154323223Y-55421751D02*
X153828249Y-54926777D01*
X153426777Y-55578249D02*
X153921751Y-56073223D01*
X153073223Y-56921751D02*
X152578249Y-56426777D01*
X143850000Y-77900000D02*
X143150000Y-77900000D01*
X143150000Y-76700000D02*
X143850000Y-76700000D01*
X143850000Y-75850000D02*
X143150000Y-75850000D01*
X143150000Y-74650000D02*
X143850000Y-74650000D01*
X148150000Y-79900000D02*
X148850000Y-79900000D01*
X148850000Y-81100000D02*
X148150000Y-81100000D01*
X159850000Y-80600000D02*
X159150000Y-80600000D01*
X159150000Y-79400000D02*
X159850000Y-79400000D01*
X163100000Y-75650000D02*
X163100000Y-76350000D01*
X161900000Y-76350000D02*
X161900000Y-75650000D01*
X134150000Y-80600000D02*
X133450000Y-80600000D01*
X133450000Y-79400000D02*
X134150000Y-79400000D01*
X122750000Y-61200000D02*
X122050000Y-61200000D01*
X122050000Y-60000000D02*
X122750000Y-60000000D01*
X125600000Y-61150000D02*
X125600000Y-61850000D01*
X124400000Y-61850000D02*
X124400000Y-61150000D01*
X124400000Y-65350000D02*
X124400000Y-64650000D01*
X125600000Y-64650000D02*
X125600000Y-65350000D01*
X174250000Y-60000000D02*
X174950000Y-60000000D01*
X174950000Y-61200000D02*
X174250000Y-61200000D01*
X171400000Y-61850000D02*
X171400000Y-61150000D01*
X172600000Y-61150000D02*
X172600000Y-61850000D01*
X174250000Y-62400000D02*
X174950000Y-62400000D01*
X174950000Y-63600000D02*
X174250000Y-63600000D01*
X172600000Y-65150000D02*
X172600000Y-65850000D01*
X171400000Y-65850000D02*
X171400000Y-65150000D01*
X173900000Y-95250000D02*
X176600000Y-95250000D01*
X173900000Y-93750000D02*
X176600000Y-93750000D01*
X175400000Y-94650000D02*
X175400000Y-94400000D01*
X175400000Y-94400000D02*
X175250000Y-94550000D01*
X175150000Y-94150000D02*
X175150000Y-94850000D01*
X175500000Y-94500000D02*
X175850000Y-94500000D01*
X175150000Y-94500000D02*
X175500000Y-94150000D01*
X175500000Y-94150000D02*
X175500000Y-94850000D01*
X175500000Y-94850000D02*
X175150000Y-94500000D01*
X121200000Y-42350000D02*
X123900000Y-42350000D01*
X121200000Y-40850000D02*
X123900000Y-40850000D01*
X122700000Y-41750000D02*
X122700000Y-41500000D01*
X122700000Y-41500000D02*
X122550000Y-41650000D01*
X122450000Y-41250000D02*
X122450000Y-41950000D01*
X122800000Y-41600000D02*
X123150000Y-41600000D01*
X122450000Y-41600000D02*
X122800000Y-41250000D01*
X122800000Y-41250000D02*
X122800000Y-41950000D01*
X122800000Y-41950000D02*
X122450000Y-41600000D01*
X140000000Y-42350000D02*
X142700000Y-42350000D01*
X140000000Y-40850000D02*
X142700000Y-40850000D01*
X141500000Y-41750000D02*
X141500000Y-41500000D01*
X141500000Y-41500000D02*
X141350000Y-41650000D01*
X141250000Y-41250000D02*
X141250000Y-41950000D01*
X141600000Y-41600000D02*
X141950000Y-41600000D01*
X141250000Y-41600000D02*
X141600000Y-41250000D01*
X141600000Y-41250000D02*
X141600000Y-41950000D01*
X141600000Y-41950000D02*
X141250000Y-41600000D01*
X157000000Y-40850000D02*
X154300000Y-40850000D01*
X157000000Y-42350000D02*
X154300000Y-42350000D01*
X155500000Y-41450000D02*
X155500000Y-41700000D01*
X155500000Y-41700000D02*
X155650000Y-41550000D01*
X155750000Y-41950000D02*
X155750000Y-41250000D01*
X155400000Y-41600000D02*
X155050000Y-41600000D01*
X155750000Y-41600000D02*
X155400000Y-41950000D01*
X155400000Y-41950000D02*
X155400000Y-41250000D01*
X155400000Y-41250000D02*
X155750000Y-41600000D01*
X175800000Y-40850000D02*
X173100000Y-40850000D01*
X175800000Y-42350000D02*
X173100000Y-42350000D01*
X174300000Y-41450000D02*
X174300000Y-41700000D01*
X174300000Y-41700000D02*
X174450000Y-41550000D01*
X174550000Y-41950000D02*
X174550000Y-41250000D01*
X174200000Y-41600000D02*
X173850000Y-41600000D01*
X174550000Y-41600000D02*
X174200000Y-41950000D01*
X174200000Y-41950000D02*
X174200000Y-41250000D01*
X174200000Y-41250000D02*
X174550000Y-41600000D01*
X123100000Y-93750000D02*
X120400000Y-93750000D01*
X123100000Y-95250000D02*
X120400000Y-95250000D01*
X121600000Y-94350000D02*
X121600000Y-94600000D01*
X121600000Y-94600000D02*
X121750000Y-94450000D01*
X121850000Y-94850000D02*
X121850000Y-94150000D01*
X121500000Y-94500000D02*
X121150000Y-94500000D01*
X121850000Y-94500000D02*
X121500000Y-94850000D01*
X121500000Y-94850000D02*
X121500000Y-94150000D01*
X121500000Y-94150000D02*
X121850000Y-94500000D01*
X117645577Y-57320945D02*
X117471929Y-56336137D01*
X118137981Y-57234120D02*
X117645577Y-57320945D01*
X117964332Y-56249313D02*
X117471929Y-56336137D01*
X123062019Y-56365880D02*
X123554423Y-56279055D01*
X122888371Y-55381072D02*
X123380775Y-55294248D01*
X123380775Y-55294248D02*
X123554423Y-56279055D01*
X119332368Y-49610903D02*
X118863518Y-46951922D01*
X117061362Y-51128312D02*
X118120616Y-57135640D01*
X121985401Y-50260071D02*
X123062019Y-56365880D01*
X121985400Y-50260072D02*
G75*
G03X117061362Y-51128312I-2462019J-434120D01*
G01*
X123062019Y-56365880D02*
X118137981Y-57234120D01*
X156773940Y-33580922D02*
X157713632Y-33238902D01*
X156944950Y-34050768D02*
X156773940Y-33580922D01*
X157884642Y-33708748D02*
X157713632Y-33238902D01*
X158655050Y-38749232D02*
X158826060Y-39219078D01*
X159594743Y-38407211D02*
X159765753Y-38877058D01*
X159765753Y-38877058D02*
X158826060Y-39219078D01*
X164659756Y-33903253D02*
X167196926Y-32979799D01*
X162771044Y-31930244D02*
X157038919Y-34016566D01*
X164481145Y-36628707D02*
X158655050Y-38749232D01*
X164481144Y-36628706D02*
G75*
G03X162771044Y-31930244I-855050J2349231D01*
G01*
X158655050Y-38749232D02*
X156944950Y-34050768D01*
X173445577Y-56279055D02*
X173619225Y-55294248D01*
X173937981Y-56365880D02*
X173445577Y-56279055D01*
X174111629Y-55381072D02*
X173619225Y-55294248D01*
X178862019Y-57234120D02*
X179354423Y-57320945D01*
X179035668Y-56249313D02*
X179528071Y-56336137D01*
X179528071Y-56336137D02*
X179354423Y-57320945D01*
X177667632Y-49610903D02*
X178136482Y-46951922D01*
X175014599Y-50260071D02*
X173955345Y-56267399D01*
X179938638Y-51128312D02*
X178862019Y-57234120D01*
X179938639Y-51128313D02*
G75*
G03X175014599Y-50260071I-2462020J434121D01*
G01*
X178862019Y-57234120D02*
X173937981Y-56365880D01*
X156573940Y-27580922D02*
X157513632Y-27238902D01*
X156744950Y-28050768D02*
X156573940Y-27580922D01*
X157684642Y-27708748D02*
X157513632Y-27238902D01*
X158455050Y-32749232D02*
X158626060Y-33219078D01*
X159394743Y-32407211D02*
X159565753Y-32877058D01*
X159565753Y-32877058D02*
X158626060Y-33219078D01*
X164459756Y-27903253D02*
X166996926Y-26979799D01*
X162571044Y-25930244D02*
X156838919Y-28016566D01*
X164281145Y-30628707D02*
X158455050Y-32749232D01*
X164281144Y-30628706D02*
G75*
G03X162571044Y-25930244I-855050J2349231D01*
G01*
X158455050Y-32749232D02*
X156744950Y-28050768D01*
X178845577Y-58879055D02*
X179019225Y-57894248D01*
X179337981Y-58965880D02*
X178845577Y-58879055D01*
X179511629Y-57981072D02*
X179019225Y-57894248D01*
X184262019Y-59834120D02*
X184754423Y-59920945D01*
X184435668Y-58849313D02*
X184928071Y-58936137D01*
X184928071Y-58936137D02*
X184754423Y-59920945D01*
X183067632Y-52210903D02*
X183536482Y-49551922D01*
X180414599Y-52860071D02*
X179355345Y-58867399D01*
X185338638Y-53728312D02*
X184262019Y-59834120D01*
X185338639Y-53728313D02*
G75*
G03X180414599Y-52860071I-2462020J434121D01*
G01*
X184262019Y-59834120D02*
X179337981Y-58965880D01*
X133700000Y-97800000D02*
G75*
G03X133700000Y-97800000I-100000J0D01*
G01*
X134250000Y-98050000D02*
X133750000Y-98050000D01*
X134250000Y-100950000D02*
X134250000Y-98050000D01*
X133750000Y-100950000D02*
X134250000Y-100950000D01*
X133750000Y-98050000D02*
X133750000Y-100950000D01*
X151200000Y-96800000D02*
G75*
G03X151200000Y-96800000I-100000J0D01*
G01*
X151750000Y-97050000D02*
X151250000Y-97050000D01*
X151750000Y-99950000D02*
X151750000Y-97050000D01*
X151250000Y-99950000D02*
X151750000Y-99950000D01*
X151250000Y-97050000D02*
X151250000Y-99950000D01*
X164800000Y-62050000D02*
G75*
G03X164800000Y-62050000I-100000J0D01*
G01*
X165250000Y-62300000D02*
X164750000Y-62300000D01*
X165250000Y-65200000D02*
X165250000Y-62300000D01*
X164750000Y-65200000D02*
X165250000Y-65200000D01*
X164750000Y-62300000D02*
X164750000Y-65200000D01*
X146900000Y-74400000D02*
X147300000Y-74400000D01*
X146900000Y-74400000D02*
X146900000Y-74800000D01*
X146900000Y-77600000D02*
X147300000Y-77600000D01*
X146900000Y-77600000D02*
X146900000Y-77200000D01*
X150100000Y-77600000D02*
X149700000Y-77600000D01*
X150100000Y-77600000D02*
X150100000Y-77200000D01*
X150100000Y-74400000D02*
X150100000Y-74800000D01*
X156800000Y-75900000D02*
X156800000Y-75700000D01*
X156800000Y-77400000D02*
X156800000Y-77200000D01*
X160200000Y-75900000D02*
X160200000Y-75600000D01*
X160200000Y-77400000D02*
X160200000Y-77100000D01*
X160541421Y-75600000D02*
G75*
G03X160541421Y-75600000I-141421J0D01*
G01*
X130800000Y-75900000D02*
X130800000Y-75700000D01*
X130800000Y-77400000D02*
X130800000Y-77200000D01*
X134200000Y-75900000D02*
X134200000Y-75600000D01*
X134200000Y-77400000D02*
X134200000Y-77100000D01*
X134541421Y-75600000D02*
G75*
G03X134541421Y-75600000I-141421J0D01*
G01*
X150725000Y-51525000D02*
X150725000Y-51425000D01*
X146075000Y-51525000D02*
X146075000Y-51325000D01*
X146075000Y-48275000D02*
X146075000Y-48475000D01*
X150725000Y-48275000D02*
X150725000Y-48475000D01*
X150725000Y-51525000D02*
X146075000Y-51525000D01*
X150725000Y-48275000D02*
X146075000Y-48275000D01*
X150725000Y-51425000D02*
X152075000Y-51425000D01*
X138600000Y-97875000D02*
X137400000Y-97875000D01*
X137400000Y-96125000D02*
X138600000Y-96125000D01*
X156600000Y-97375000D02*
X155400000Y-97375000D01*
X155400000Y-95625000D02*
X156600000Y-95625000D01*
X163550000Y-105000000D02*
X163550000Y-109500000D01*
X163550000Y-109500000D02*
X157650000Y-109500000D01*
X157650000Y-109500000D02*
X157650000Y-105000000D01*
X157650000Y-105000000D02*
X163550000Y-105000000D01*
X161100000Y-109500000D02*
X161100000Y-109000000D01*
X161100000Y-109000000D02*
X163050000Y-109000000D01*
X163050000Y-109000000D02*
X163050000Y-105500000D01*
X163050000Y-105500000D02*
X158150000Y-105500000D01*
X158150000Y-105500000D02*
X158150000Y-109000000D01*
X158150000Y-109000000D02*
X160100000Y-109000000D01*
X160100000Y-109000000D02*
X160100000Y-109500000D01*
X163550000Y-108300000D02*
X163050000Y-108300000D01*
X163550000Y-107000000D02*
X163050000Y-107000000D01*
X158150000Y-108300000D02*
X157650000Y-108300000D01*
X158150000Y-107000000D02*
X157650000Y-107000000D01*
X161900000Y-109500000D02*
X161900000Y-109700000D01*
X161900000Y-109700000D02*
X162200000Y-109700000D01*
X162200000Y-109700000D02*
X162200000Y-109500000D01*
X161900000Y-109600000D02*
X162200000Y-109600000D01*
X160700000Y-105500000D02*
X160700000Y-106000000D01*
X160700000Y-106000000D02*
X160500000Y-106000000D01*
X160500000Y-106000000D02*
X160500000Y-105500000D01*
X160600000Y-105500000D02*
X160600000Y-106000000D01*
X156350000Y-105000000D02*
X156350000Y-109500000D01*
X156350000Y-109500000D02*
X150450000Y-109500000D01*
X150450000Y-109500000D02*
X150450000Y-105000000D01*
X150450000Y-105000000D02*
X156350000Y-105000000D01*
X153900000Y-109500000D02*
X153900000Y-109000000D01*
X153900000Y-109000000D02*
X155850000Y-109000000D01*
X155850000Y-109000000D02*
X155850000Y-105500000D01*
X155850000Y-105500000D02*
X150950000Y-105500000D01*
X150950000Y-105500000D02*
X150950000Y-109000000D01*
X150950000Y-109000000D02*
X152900000Y-109000000D01*
X152900000Y-109000000D02*
X152900000Y-109500000D01*
X156350000Y-108300000D02*
X155850000Y-108300000D01*
X156350000Y-107000000D02*
X155850000Y-107000000D01*
X150950000Y-108300000D02*
X150450000Y-108300000D01*
X150950000Y-107000000D02*
X150450000Y-107000000D01*
X154700000Y-109500000D02*
X154700000Y-109700000D01*
X154700000Y-109700000D02*
X155000000Y-109700000D01*
X155000000Y-109700000D02*
X155000000Y-109500000D01*
X154700000Y-109600000D02*
X155000000Y-109600000D01*
X153500000Y-105500000D02*
X153500000Y-106000000D01*
X153500000Y-106000000D02*
X153300000Y-106000000D01*
X153300000Y-106000000D02*
X153300000Y-105500000D01*
X153400000Y-105500000D02*
X153400000Y-106000000D01*
X167670000Y-106130000D02*
X170210000Y-106130000D01*
X164850000Y-105850000D02*
X166400000Y-105850000D01*
X167670000Y-106130000D02*
X167670000Y-108670000D01*
X166400000Y-108950000D02*
X164850000Y-108950000D01*
X164850000Y-108950000D02*
X164850000Y-105850000D01*
X167670000Y-108670000D02*
X170210000Y-108670000D01*
X170210000Y-108670000D02*
X170210000Y-106130000D01*
X145730000Y-106130000D02*
X140650000Y-106130000D01*
X140650000Y-106130000D02*
X140650000Y-108670000D01*
X140650000Y-108670000D02*
X145730000Y-108670000D01*
X148550000Y-108950000D02*
X147000000Y-108950000D01*
X145730000Y-108670000D02*
X145730000Y-106130000D01*
X147000000Y-105850000D02*
X148550000Y-105850000D01*
X148550000Y-105850000D02*
X148550000Y-108950000D01*
X161020000Y-73520000D02*
X166100000Y-73520000D01*
X158200000Y-73800000D02*
X158200000Y-72250000D01*
X158480000Y-70980000D02*
X161020000Y-70980000D01*
X161020000Y-70980000D02*
X161020000Y-73520000D01*
X166100000Y-73520000D02*
X166100000Y-68440000D01*
X166100000Y-68440000D02*
X161020000Y-68440000D01*
X158200000Y-73800000D02*
X159750000Y-73800000D01*
X158480000Y-68440000D02*
X158480000Y-70980000D01*
X161020000Y-68440000D02*
X158480000Y-68440000D01*
X132940000Y-73520000D02*
X138020000Y-73520000D01*
X130120000Y-73800000D02*
X130120000Y-72250000D01*
X130400000Y-70980000D02*
X132940000Y-70980000D01*
X132940000Y-70980000D02*
X132940000Y-73520000D01*
X138020000Y-73520000D02*
X138020000Y-68440000D01*
X138020000Y-68440000D02*
X132940000Y-68440000D01*
X130120000Y-73800000D02*
X131670000Y-73800000D01*
X130400000Y-68440000D02*
X130400000Y-70980000D01*
X132940000Y-68440000D02*
X130400000Y-68440000D01*
X156549160Y-44599760D02*
X156500900Y-44599760D01*
X153750180Y-45300800D02*
X153750180Y-44599760D01*
X153750180Y-44599760D02*
X153999100Y-44599760D01*
X156549160Y-44599760D02*
X156749820Y-44599760D01*
X156749820Y-44599760D02*
X156749820Y-45300800D01*
X142799160Y-44349760D02*
X142750900Y-44349760D01*
X140000180Y-45050800D02*
X140000180Y-44349760D01*
X140000180Y-44349760D02*
X140249100Y-44349760D01*
X142799160Y-44349760D02*
X142999820Y-44349760D01*
X142999820Y-44349760D02*
X142999820Y-45050800D01*
X175500000Y-98675000D02*
X174500000Y-98675000D01*
X174500000Y-97325000D02*
X175500000Y-97325000D01*
X137500000Y-98825000D02*
X138500000Y-98825000D01*
X138500000Y-100175000D02*
X137500000Y-100175000D01*
X138500000Y-104175000D02*
X137500000Y-104175000D01*
X137500000Y-102825000D02*
X138500000Y-102825000D01*
X155500000Y-98325000D02*
X156500000Y-98325000D01*
X156500000Y-99675000D02*
X155500000Y-99675000D01*
X156500000Y-103675000D02*
X155500000Y-103675000D01*
X155500000Y-102325000D02*
X156500000Y-102325000D01*
X123900000Y-40075000D02*
X122900000Y-40075000D01*
X122900000Y-38725000D02*
X123900000Y-38725000D01*
X142700000Y-40075000D02*
X141700000Y-40075000D01*
X141700000Y-38725000D02*
X142700000Y-38725000D01*
X154300000Y-38925000D02*
X155300000Y-38925000D01*
X155300000Y-40275000D02*
X154300000Y-40275000D01*
X173100000Y-38925000D02*
X174100000Y-38925000D01*
X174100000Y-40275000D02*
X173100000Y-40275000D01*
X121500000Y-97325000D02*
X122500000Y-97325000D01*
X122500000Y-98675000D02*
X121500000Y-98675000D01*
X169500000Y-102325000D02*
X170500000Y-102325000D01*
X170500000Y-103675000D02*
X169500000Y-103675000D01*
X166500000Y-102325000D02*
X167500000Y-102325000D01*
X167500000Y-103675000D02*
X166500000Y-103675000D01*
X118700000Y-59925000D02*
X119700000Y-59925000D01*
X119700000Y-61275000D02*
X118700000Y-61275000D01*
X126325000Y-62500000D02*
X126325000Y-61500000D01*
X127675000Y-61500000D02*
X127675000Y-62500000D01*
X118700000Y-62325000D02*
X119700000Y-62325000D01*
X119700000Y-63675000D02*
X118700000Y-63675000D01*
X127675000Y-65500000D02*
X127675000Y-66500000D01*
X126325000Y-66500000D02*
X126325000Y-65500000D01*
X178300000Y-61275000D02*
X177300000Y-61275000D01*
X177300000Y-59925000D02*
X178300000Y-59925000D01*
X170675000Y-61500000D02*
X170675000Y-62500000D01*
X169325000Y-62500000D02*
X169325000Y-61500000D01*
X178300000Y-63675000D02*
X177300000Y-63675000D01*
X177300000Y-62325000D02*
X178300000Y-62325000D01*
X169325000Y-66500000D02*
X169325000Y-65500000D01*
X170675000Y-65500000D02*
X170675000Y-66500000D01*
X152250000Y-47425000D02*
X151250000Y-47425000D01*
X151250000Y-46075000D02*
X152250000Y-46075000D01*
X121500000Y-106400000D02*
X121500000Y-103600000D01*
X124500000Y-103600000D02*
X124500000Y-106400000D01*
X123600000Y-102900000D02*
X122400000Y-102900000D01*
X123600000Y-107100000D02*
X122500000Y-107100000D01*
X172500000Y-106400000D02*
X172500000Y-103600000D01*
X175500000Y-103600000D02*
X175500000Y-106400000D01*
X174600000Y-102900000D02*
X173400000Y-102900000D01*
X174600000Y-107100000D02*
X173500000Y-107100000D01*
X166025000Y-78000000D02*
X166025000Y-76000000D01*
X163975000Y-76000000D02*
X163975000Y-78000000D01*
X136600000Y-75650000D02*
X136600000Y-76350000D01*
X135400000Y-76350000D02*
X135400000Y-75650000D01*
X139525000Y-78000000D02*
X139525000Y-76000000D01*
X137475000Y-76000000D02*
X137475000Y-78000000D01*
X122750000Y-63600000D02*
X122050000Y-63600000D01*
X122050000Y-62400000D02*
X122750000Y-62400000D01*
X153675000Y-51000000D02*
X153675000Y-49000000D01*
X155825000Y-49000000D02*
X155825000Y-51000000D01*
X144750000Y-46075000D02*
X145750000Y-46075000D01*
X145750000Y-47425000D02*
X144750000Y-47425000D01*
X141175000Y-51000000D02*
X141175000Y-49000000D01*
X143325000Y-49000000D02*
X143325000Y-51000000D01*
X135730000Y-106130000D02*
X128110000Y-106130000D01*
X135730000Y-108670000D02*
X128110000Y-108670000D01*
X138550000Y-108950000D02*
X137000000Y-108950000D01*
X128110000Y-106130000D02*
X128110000Y-108670000D01*
X135730000Y-108670000D02*
X135730000Y-106130000D01*
X137000000Y-105850000D02*
X138550000Y-105850000D01*
X138550000Y-105850000D02*
X138550000Y-108950000D01*
X131275000Y-61775000D02*
X131275000Y-61900000D01*
X135925000Y-61775000D02*
X135925000Y-62000000D01*
X135925000Y-67025000D02*
X135925000Y-66800000D01*
X131275000Y-67025000D02*
X131275000Y-66800000D01*
X131275000Y-61775000D02*
X135925000Y-61775000D01*
X131275000Y-67025000D02*
X135925000Y-67025000D01*
X131275000Y-61900000D02*
X129925000Y-61900000D01*
X113782717Y-59056367D02*
X113609069Y-58071559D01*
X113843546Y-58030214D01*
X113992503Y-58052303D01*
X114102832Y-58129556D01*
X114166266Y-58215078D01*
X114246237Y-58394392D01*
X114271044Y-58535079D01*
X114257224Y-58730930D01*
X114226867Y-58832990D01*
X114149613Y-58943320D01*
X114017195Y-59015022D01*
X113782717Y-59056367D01*
X115283377Y-58791760D02*
X114720629Y-58890988D01*
X115002002Y-58841374D02*
X114828354Y-57856566D01*
X114759370Y-58013791D01*
X114682117Y-58124120D01*
X114596595Y-58187553D01*
X116221289Y-58626381D02*
X115658541Y-58725608D01*
X115939915Y-58675995D02*
X115766266Y-57691187D01*
X115697282Y-57848412D01*
X115620029Y-57958741D01*
X115534507Y-58022174D01*
X138222656Y-36848306D02*
X137282963Y-36506286D01*
X137364396Y-36282550D01*
X137458004Y-36164594D01*
X137580072Y-36107672D01*
X137685853Y-36095499D01*
X137881128Y-36115898D01*
X138015371Y-36164758D01*
X138178073Y-36274652D01*
X138251281Y-36351973D01*
X138308202Y-36474040D01*
X138304089Y-36624570D01*
X138222656Y-36848306D01*
X138076568Y-35578931D02*
X137999248Y-35652139D01*
X137938214Y-35680600D01*
X137832433Y-35692774D01*
X137787685Y-35676487D01*
X137714478Y-35599166D01*
X137686017Y-35538133D01*
X137673843Y-35432351D01*
X137738990Y-35253362D01*
X137816311Y-35180154D01*
X137877345Y-35151693D01*
X137983126Y-35139519D01*
X138027873Y-35155806D01*
X138101081Y-35233127D01*
X138129541Y-35294160D01*
X138141715Y-35399941D01*
X138076568Y-35578931D01*
X138088742Y-35684712D01*
X138117203Y-35745746D01*
X138190411Y-35823067D01*
X138369400Y-35888214D01*
X138475181Y-35876040D01*
X138536215Y-35847579D01*
X138613536Y-35774372D01*
X138678683Y-35595382D01*
X138666509Y-35489601D01*
X138638048Y-35428567D01*
X138564841Y-35351246D01*
X138385852Y-35286100D01*
X138280070Y-35298273D01*
X138219036Y-35326734D01*
X138141715Y-35399941D01*
X138209789Y-31295779D02*
X137270096Y-30953759D01*
X137351529Y-30730023D01*
X137445137Y-30612067D01*
X137567205Y-30555146D01*
X137672986Y-30542972D01*
X137868261Y-30563371D01*
X138002504Y-30612231D01*
X138165206Y-30722125D01*
X138238414Y-30799446D01*
X138295335Y-30921514D01*
X138291222Y-31072043D01*
X138209789Y-31295779D01*
X138730963Y-29863866D02*
X138535522Y-30400834D01*
X138633242Y-30132350D02*
X137693550Y-29790330D01*
X137795218Y-29928685D01*
X137852139Y-30050752D01*
X137864313Y-30156533D01*
X138397661Y-28830402D02*
X139024123Y-29058415D01*
X137958249Y-28923845D02*
X138548025Y-29391882D01*
X138759752Y-28810167D01*
X160197970Y-67307107D02*
X160197970Y-67374450D01*
X160130626Y-67509137D01*
X160063283Y-67576481D01*
X159928595Y-67643825D01*
X159793908Y-67643825D01*
X159692893Y-67610153D01*
X159524535Y-67509138D01*
X159423519Y-67408122D01*
X159322504Y-67239763D01*
X159288832Y-67138748D01*
X159288832Y-67004061D01*
X159356176Y-66869374D01*
X159423519Y-66802030D01*
X159558206Y-66734687D01*
X159625550Y-66734687D01*
X159894924Y-66465313D02*
X159894924Y-66397970D01*
X159928595Y-66296955D01*
X160096955Y-66128595D01*
X160197970Y-66094924D01*
X160265313Y-66094924D01*
X160366328Y-66128595D01*
X160433672Y-66195939D01*
X160501015Y-66330626D01*
X160501015Y-67138748D01*
X160938748Y-66701015D01*
X161073435Y-65623519D02*
X161544840Y-66094924D01*
X160635702Y-65522504D02*
X160972420Y-66195939D01*
X161410153Y-65758206D01*
X153229612Y-69810152D02*
X152522505Y-69103045D01*
X153903047Y-69002030D02*
X153903047Y-69069374D01*
X153835704Y-69204061D01*
X153768360Y-69271404D01*
X153633673Y-69338748D01*
X153498986Y-69338748D01*
X153397971Y-69305076D01*
X153229612Y-69204061D01*
X153128596Y-69103045D01*
X153027581Y-68934687D01*
X152993909Y-68833672D01*
X152993909Y-68698985D01*
X153061254Y-68564297D01*
X153128597Y-68496954D01*
X153263284Y-68429610D01*
X153330627Y-68429610D01*
X154105077Y-67991877D02*
X154576482Y-68463282D01*
X153667344Y-67890863D02*
X154004062Y-68564298D01*
X154441795Y-68126565D01*
X148433334Y-53757143D02*
X148385715Y-53804762D01*
X148242858Y-53852381D01*
X148147620Y-53852381D01*
X148004762Y-53804762D01*
X147909524Y-53709524D01*
X147861905Y-53614286D01*
X147814286Y-53423810D01*
X147814286Y-53280952D01*
X147861905Y-53090476D01*
X147909524Y-52995238D01*
X148004762Y-52900000D01*
X148147620Y-52852381D01*
X148242858Y-52852381D01*
X148385715Y-52900000D01*
X148433334Y-52947619D01*
X149385715Y-53852381D02*
X148814286Y-53852381D01*
X149100000Y-53852381D02*
X149100000Y-52852381D01*
X149004762Y-52995238D01*
X148909524Y-53090476D01*
X148814286Y-53138095D01*
X131957143Y-104766666D02*
X132004762Y-104814285D01*
X132052381Y-104957142D01*
X132052381Y-105052380D01*
X132004762Y-105195238D01*
X131909524Y-105290476D01*
X131814286Y-105338095D01*
X131623810Y-105385714D01*
X131480952Y-105385714D01*
X131290476Y-105338095D01*
X131195238Y-105290476D01*
X131100000Y-105195238D01*
X131052381Y-105052380D01*
X131052381Y-104957142D01*
X131100000Y-104814285D01*
X131147619Y-104766666D01*
X131147619Y-104385714D02*
X131100000Y-104338095D01*
X131052381Y-104242857D01*
X131052381Y-104004761D01*
X131100000Y-103909523D01*
X131147619Y-103861904D01*
X131242857Y-103814285D01*
X131338095Y-103814285D01*
X131480952Y-103861904D01*
X132052381Y-104433333D01*
X132052381Y-103814285D01*
X149157143Y-103966666D02*
X149204762Y-104014285D01*
X149252381Y-104157142D01*
X149252381Y-104252380D01*
X149204762Y-104395238D01*
X149109524Y-104490476D01*
X149014286Y-104538095D01*
X148823810Y-104585714D01*
X148680952Y-104585714D01*
X148490476Y-104538095D01*
X148395238Y-104490476D01*
X148300000Y-104395238D01*
X148252381Y-104252380D01*
X148252381Y-104157142D01*
X148300000Y-104014285D01*
X148347619Y-103966666D01*
X148252381Y-103633333D02*
X148252381Y-103014285D01*
X148633333Y-103347619D01*
X148633333Y-103204761D01*
X148680952Y-103109523D01*
X148728571Y-103061904D01*
X148823810Y-103014285D01*
X149061905Y-103014285D01*
X149157143Y-103061904D01*
X149204762Y-103109523D01*
X149252381Y-103204761D01*
X149252381Y-103490476D01*
X149204762Y-103585714D01*
X149157143Y-103633333D01*
X131957143Y-102166666D02*
X132004762Y-102214285D01*
X132052381Y-102357142D01*
X132052381Y-102452380D01*
X132004762Y-102595238D01*
X131909524Y-102690476D01*
X131814286Y-102738095D01*
X131623810Y-102785714D01*
X131480952Y-102785714D01*
X131290476Y-102738095D01*
X131195238Y-102690476D01*
X131100000Y-102595238D01*
X131052381Y-102452380D01*
X131052381Y-102357142D01*
X131100000Y-102214285D01*
X131147619Y-102166666D01*
X131385714Y-101309523D02*
X132052381Y-101309523D01*
X131004762Y-101547619D02*
X131719048Y-101785714D01*
X131719048Y-101166666D01*
X149157143Y-101566666D02*
X149204762Y-101614285D01*
X149252381Y-101757142D01*
X149252381Y-101852380D01*
X149204762Y-101995238D01*
X149109524Y-102090476D01*
X149014286Y-102138095D01*
X148823810Y-102185714D01*
X148680952Y-102185714D01*
X148490476Y-102138095D01*
X148395238Y-102090476D01*
X148300000Y-101995238D01*
X148252381Y-101852380D01*
X148252381Y-101757142D01*
X148300000Y-101614285D01*
X148347619Y-101566666D01*
X148252381Y-100661904D02*
X148252381Y-101138095D01*
X148728571Y-101185714D01*
X148680952Y-101138095D01*
X148633333Y-101042857D01*
X148633333Y-100804761D01*
X148680952Y-100709523D01*
X148728571Y-100661904D01*
X148823810Y-100614285D01*
X149061905Y-100614285D01*
X149157143Y-100661904D01*
X149204762Y-100709523D01*
X149252381Y-100804761D01*
X149252381Y-101042857D01*
X149204762Y-101138095D01*
X149157143Y-101185714D01*
X133833334Y-95157143D02*
X133785715Y-95204762D01*
X133642858Y-95252381D01*
X133547620Y-95252381D01*
X133404762Y-95204762D01*
X133309524Y-95109524D01*
X133261905Y-95014286D01*
X133214286Y-94823810D01*
X133214286Y-94680952D01*
X133261905Y-94490476D01*
X133309524Y-94395238D01*
X133404762Y-94300000D01*
X133547620Y-94252381D01*
X133642858Y-94252381D01*
X133785715Y-94300000D01*
X133833334Y-94347619D01*
X134690477Y-94252381D02*
X134500000Y-94252381D01*
X134404762Y-94300000D01*
X134357143Y-94347619D01*
X134261905Y-94490476D01*
X134214286Y-94680952D01*
X134214286Y-95061905D01*
X134261905Y-95157143D01*
X134309524Y-95204762D01*
X134404762Y-95252381D01*
X134595239Y-95252381D01*
X134690477Y-95204762D01*
X134738096Y-95157143D01*
X134785715Y-95061905D01*
X134785715Y-94823810D01*
X134738096Y-94728571D01*
X134690477Y-94680952D01*
X134595239Y-94633333D01*
X134404762Y-94633333D01*
X134309524Y-94680952D01*
X134261905Y-94728571D01*
X134214286Y-94823810D01*
X151433334Y-94157143D02*
X151385715Y-94204762D01*
X151242858Y-94252381D01*
X151147620Y-94252381D01*
X151004762Y-94204762D01*
X150909524Y-94109524D01*
X150861905Y-94014286D01*
X150814286Y-93823810D01*
X150814286Y-93680952D01*
X150861905Y-93490476D01*
X150909524Y-93395238D01*
X151004762Y-93300000D01*
X151147620Y-93252381D01*
X151242858Y-93252381D01*
X151385715Y-93300000D01*
X151433334Y-93347619D01*
X151766667Y-93252381D02*
X152433334Y-93252381D01*
X152004762Y-94252381D01*
X140233334Y-103157143D02*
X140185715Y-103204762D01*
X140042858Y-103252381D01*
X139947620Y-103252381D01*
X139804762Y-103204762D01*
X139709524Y-103109524D01*
X139661905Y-103014286D01*
X139614286Y-102823810D01*
X139614286Y-102680952D01*
X139661905Y-102490476D01*
X139709524Y-102395238D01*
X139804762Y-102300000D01*
X139947620Y-102252381D01*
X140042858Y-102252381D01*
X140185715Y-102300000D01*
X140233334Y-102347619D01*
X140804762Y-102680952D02*
X140709524Y-102633333D01*
X140661905Y-102585714D01*
X140614286Y-102490476D01*
X140614286Y-102442857D01*
X140661905Y-102347619D01*
X140709524Y-102300000D01*
X140804762Y-102252381D01*
X140995239Y-102252381D01*
X141090477Y-102300000D01*
X141138096Y-102347619D01*
X141185715Y-102442857D01*
X141185715Y-102490476D01*
X141138096Y-102585714D01*
X141090477Y-102633333D01*
X140995239Y-102680952D01*
X140804762Y-102680952D01*
X140709524Y-102728571D01*
X140661905Y-102776190D01*
X140614286Y-102871429D01*
X140614286Y-103061905D01*
X140661905Y-103157143D01*
X140709524Y-103204762D01*
X140804762Y-103252381D01*
X140995239Y-103252381D01*
X141090477Y-103204762D01*
X141138096Y-103157143D01*
X141185715Y-103061905D01*
X141185715Y-102871429D01*
X141138096Y-102776190D01*
X141090477Y-102728571D01*
X140995239Y-102680952D01*
X154107143Y-101416666D02*
X154154762Y-101464285D01*
X154202381Y-101607142D01*
X154202381Y-101702380D01*
X154154762Y-101845238D01*
X154059524Y-101940476D01*
X153964286Y-101988095D01*
X153773810Y-102035714D01*
X153630952Y-102035714D01*
X153440476Y-101988095D01*
X153345238Y-101940476D01*
X153250000Y-101845238D01*
X153202381Y-101702380D01*
X153202381Y-101607142D01*
X153250000Y-101464285D01*
X153297619Y-101416666D01*
X154202381Y-100940476D02*
X154202381Y-100750000D01*
X154154762Y-100654761D01*
X154107143Y-100607142D01*
X153964286Y-100511904D01*
X153773810Y-100464285D01*
X153392857Y-100464285D01*
X153297619Y-100511904D01*
X153250000Y-100559523D01*
X153202381Y-100654761D01*
X153202381Y-100845238D01*
X153250000Y-100940476D01*
X153297619Y-100988095D01*
X153392857Y-101035714D01*
X153630952Y-101035714D01*
X153726190Y-100988095D01*
X153773810Y-100940476D01*
X153821429Y-100845238D01*
X153821429Y-100654761D01*
X153773810Y-100559523D01*
X153726190Y-100511904D01*
X153630952Y-100464285D01*
X161257143Y-101642857D02*
X161304762Y-101690476D01*
X161352381Y-101833333D01*
X161352381Y-101928571D01*
X161304762Y-102071429D01*
X161209524Y-102166667D01*
X161114286Y-102214286D01*
X160923810Y-102261905D01*
X160780952Y-102261905D01*
X160590476Y-102214286D01*
X160495238Y-102166667D01*
X160400000Y-102071429D01*
X160352381Y-101928571D01*
X160352381Y-101833333D01*
X160400000Y-101690476D01*
X160447619Y-101642857D01*
X161352381Y-100690476D02*
X161352381Y-101261905D01*
X161352381Y-100976191D02*
X160352381Y-100976191D01*
X160495238Y-101071429D01*
X160590476Y-101166667D01*
X160638095Y-101261905D01*
X160352381Y-100071429D02*
X160352381Y-99976190D01*
X160400000Y-99880952D01*
X160447619Y-99833333D01*
X160542857Y-99785714D01*
X160733333Y-99738095D01*
X160971429Y-99738095D01*
X161161905Y-99785714D01*
X161257143Y-99833333D01*
X161304762Y-99880952D01*
X161352381Y-99976190D01*
X161352381Y-100071429D01*
X161304762Y-100166667D01*
X161257143Y-100214286D01*
X161161905Y-100261905D01*
X160971429Y-100309524D01*
X160733333Y-100309524D01*
X160542857Y-100261905D01*
X160447619Y-100214286D01*
X160400000Y-100166667D01*
X160352381Y-100071429D01*
X143007143Y-101142857D02*
X143054762Y-101190476D01*
X143102381Y-101333333D01*
X143102381Y-101428571D01*
X143054762Y-101571429D01*
X142959524Y-101666667D01*
X142864286Y-101714286D01*
X142673810Y-101761905D01*
X142530952Y-101761905D01*
X142340476Y-101714286D01*
X142245238Y-101666667D01*
X142150000Y-101571429D01*
X142102381Y-101428571D01*
X142102381Y-101333333D01*
X142150000Y-101190476D01*
X142197619Y-101142857D01*
X143102381Y-100190476D02*
X143102381Y-100761905D01*
X143102381Y-100476191D02*
X142102381Y-100476191D01*
X142245238Y-100571429D01*
X142340476Y-100666667D01*
X142388095Y-100761905D01*
X143102381Y-99238095D02*
X143102381Y-99809524D01*
X143102381Y-99523810D02*
X142102381Y-99523810D01*
X142245238Y-99619048D01*
X142340476Y-99714286D01*
X142388095Y-99809524D01*
X159857143Y-96057143D02*
X159809524Y-96104762D01*
X159666667Y-96152381D01*
X159571429Y-96152381D01*
X159428571Y-96104762D01*
X159333333Y-96009524D01*
X159285714Y-95914286D01*
X159238095Y-95723810D01*
X159238095Y-95580952D01*
X159285714Y-95390476D01*
X159333333Y-95295238D01*
X159428571Y-95200000D01*
X159571429Y-95152381D01*
X159666667Y-95152381D01*
X159809524Y-95200000D01*
X159857143Y-95247619D01*
X160809524Y-96152381D02*
X160238095Y-96152381D01*
X160523809Y-96152381D02*
X160523809Y-95152381D01*
X160428571Y-95295238D01*
X160333333Y-95390476D01*
X160238095Y-95438095D01*
X161190476Y-95247619D02*
X161238095Y-95200000D01*
X161333333Y-95152381D01*
X161571429Y-95152381D01*
X161666667Y-95200000D01*
X161714286Y-95247619D01*
X161761905Y-95342857D01*
X161761905Y-95438095D01*
X161714286Y-95580952D01*
X161142857Y-96152381D01*
X161761905Y-96152381D01*
X142357143Y-95557143D02*
X142309524Y-95604762D01*
X142166667Y-95652381D01*
X142071429Y-95652381D01*
X141928571Y-95604762D01*
X141833333Y-95509524D01*
X141785714Y-95414286D01*
X141738095Y-95223810D01*
X141738095Y-95080952D01*
X141785714Y-94890476D01*
X141833333Y-94795238D01*
X141928571Y-94700000D01*
X142071429Y-94652381D01*
X142166667Y-94652381D01*
X142309524Y-94700000D01*
X142357143Y-94747619D01*
X143309524Y-95652381D02*
X142738095Y-95652381D01*
X143023809Y-95652381D02*
X143023809Y-94652381D01*
X142928571Y-94795238D01*
X142833333Y-94890476D01*
X142738095Y-94938095D01*
X143642857Y-94652381D02*
X144261905Y-94652381D01*
X143928571Y-95033333D01*
X144071429Y-95033333D01*
X144166667Y-95080952D01*
X144214286Y-95128571D01*
X144261905Y-95223810D01*
X144261905Y-95461905D01*
X144214286Y-95557143D01*
X144166667Y-95604762D01*
X144071429Y-95652381D01*
X143785714Y-95652381D01*
X143690476Y-95604762D01*
X143642857Y-95557143D01*
X168157143Y-67242857D02*
X168204762Y-67290476D01*
X168252381Y-67433333D01*
X168252381Y-67528571D01*
X168204762Y-67671429D01*
X168109524Y-67766667D01*
X168014286Y-67814286D01*
X167823810Y-67861905D01*
X167680952Y-67861905D01*
X167490476Y-67814286D01*
X167395238Y-67766667D01*
X167300000Y-67671429D01*
X167252381Y-67528571D01*
X167252381Y-67433333D01*
X167300000Y-67290476D01*
X167347619Y-67242857D01*
X168252381Y-66290476D02*
X168252381Y-66861905D01*
X168252381Y-66576191D02*
X167252381Y-66576191D01*
X167395238Y-66671429D01*
X167490476Y-66766667D01*
X167538095Y-66861905D01*
X167585714Y-65433333D02*
X168252381Y-65433333D01*
X167204762Y-65671429D02*
X167919048Y-65909524D01*
X167919048Y-65290476D01*
X160157143Y-63842857D02*
X160204762Y-63890476D01*
X160252381Y-64033333D01*
X160252381Y-64128571D01*
X160204762Y-64271429D01*
X160109524Y-64366667D01*
X160014286Y-64414286D01*
X159823810Y-64461905D01*
X159680952Y-64461905D01*
X159490476Y-64414286D01*
X159395238Y-64366667D01*
X159300000Y-64271429D01*
X159252381Y-64128571D01*
X159252381Y-64033333D01*
X159300000Y-63890476D01*
X159347619Y-63842857D01*
X160252381Y-62890476D02*
X160252381Y-63461905D01*
X160252381Y-63176191D02*
X159252381Y-63176191D01*
X159395238Y-63271429D01*
X159490476Y-63366667D01*
X159538095Y-63461905D01*
X159252381Y-61985714D02*
X159252381Y-62461905D01*
X159728571Y-62509524D01*
X159680952Y-62461905D01*
X159633333Y-62366667D01*
X159633333Y-62128571D01*
X159680952Y-62033333D01*
X159728571Y-61985714D01*
X159823810Y-61938095D01*
X160061905Y-61938095D01*
X160157143Y-61985714D01*
X160204762Y-62033333D01*
X160252381Y-62128571D01*
X160252381Y-62366667D01*
X160204762Y-62461905D01*
X160157143Y-62509524D01*
X167857143Y-59607143D02*
X167809524Y-59654762D01*
X167666667Y-59702381D01*
X167571429Y-59702381D01*
X167428571Y-59654762D01*
X167333333Y-59559524D01*
X167285714Y-59464286D01*
X167238095Y-59273810D01*
X167238095Y-59130952D01*
X167285714Y-58940476D01*
X167333333Y-58845238D01*
X167428571Y-58750000D01*
X167571429Y-58702381D01*
X167666667Y-58702381D01*
X167809524Y-58750000D01*
X167857143Y-58797619D01*
X168809524Y-59702381D02*
X168238095Y-59702381D01*
X168523809Y-59702381D02*
X168523809Y-58702381D01*
X168428571Y-58845238D01*
X168333333Y-58940476D01*
X168238095Y-58988095D01*
X169666667Y-58702381D02*
X169476190Y-58702381D01*
X169380952Y-58750000D01*
X169333333Y-58797619D01*
X169238095Y-58940476D01*
X169190476Y-59130952D01*
X169190476Y-59511905D01*
X169238095Y-59607143D01*
X169285714Y-59654762D01*
X169380952Y-59702381D01*
X169571429Y-59702381D01*
X169666667Y-59654762D01*
X169714286Y-59607143D01*
X169761905Y-59511905D01*
X169761905Y-59273810D01*
X169714286Y-59178571D01*
X169666667Y-59130952D01*
X169571429Y-59083333D01*
X169380952Y-59083333D01*
X169285714Y-59130952D01*
X169238095Y-59178571D01*
X169190476Y-59273810D01*
X126557143Y-59757143D02*
X126509524Y-59804762D01*
X126366667Y-59852381D01*
X126271429Y-59852381D01*
X126128571Y-59804762D01*
X126033333Y-59709524D01*
X125985714Y-59614286D01*
X125938095Y-59423810D01*
X125938095Y-59280952D01*
X125985714Y-59090476D01*
X126033333Y-58995238D01*
X126128571Y-58900000D01*
X126271429Y-58852381D01*
X126366667Y-58852381D01*
X126509524Y-58900000D01*
X126557143Y-58947619D01*
X127509524Y-59852381D02*
X126938095Y-59852381D01*
X127223809Y-59852381D02*
X127223809Y-58852381D01*
X127128571Y-58995238D01*
X127033333Y-59090476D01*
X126938095Y-59138095D01*
X127842857Y-58852381D02*
X128509524Y-58852381D01*
X128080952Y-59852381D01*
X141757143Y-58757143D02*
X141709524Y-58804762D01*
X141566667Y-58852381D01*
X141471429Y-58852381D01*
X141328571Y-58804762D01*
X141233333Y-58709524D01*
X141185714Y-58614286D01*
X141138095Y-58423810D01*
X141138095Y-58280952D01*
X141185714Y-58090476D01*
X141233333Y-57995238D01*
X141328571Y-57900000D01*
X141471429Y-57852381D01*
X141566667Y-57852381D01*
X141709524Y-57900000D01*
X141757143Y-57947619D01*
X142709524Y-58852381D02*
X142138095Y-58852381D01*
X142423809Y-58852381D02*
X142423809Y-57852381D01*
X142328571Y-57995238D01*
X142233333Y-58090476D01*
X142138095Y-58138095D01*
X143280952Y-58280952D02*
X143185714Y-58233333D01*
X143138095Y-58185714D01*
X143090476Y-58090476D01*
X143090476Y-58042857D01*
X143138095Y-57947619D01*
X143185714Y-57900000D01*
X143280952Y-57852381D01*
X143471429Y-57852381D01*
X143566667Y-57900000D01*
X143614286Y-57947619D01*
X143661905Y-58042857D01*
X143661905Y-58090476D01*
X143614286Y-58185714D01*
X143566667Y-58233333D01*
X143471429Y-58280952D01*
X143280952Y-58280952D01*
X143185714Y-58328571D01*
X143138095Y-58376190D01*
X143090476Y-58471429D01*
X143090476Y-58661905D01*
X143138095Y-58757143D01*
X143185714Y-58804762D01*
X143280952Y-58852381D01*
X143471429Y-58852381D01*
X143566667Y-58804762D01*
X143614286Y-58757143D01*
X143661905Y-58661905D01*
X143661905Y-58471429D01*
X143614286Y-58376190D01*
X143566667Y-58328571D01*
X143471429Y-58280952D01*
X142757143Y-73242857D02*
X142804762Y-73290476D01*
X142852381Y-73433333D01*
X142852381Y-73528571D01*
X142804762Y-73671429D01*
X142709524Y-73766667D01*
X142614286Y-73814286D01*
X142423810Y-73861905D01*
X142280952Y-73861905D01*
X142090476Y-73814286D01*
X141995238Y-73766667D01*
X141900000Y-73671429D01*
X141852381Y-73528571D01*
X141852381Y-73433333D01*
X141900000Y-73290476D01*
X141947619Y-73242857D01*
X142852381Y-72290476D02*
X142852381Y-72861905D01*
X142852381Y-72576191D02*
X141852381Y-72576191D01*
X141995238Y-72671429D01*
X142090476Y-72766667D01*
X142138095Y-72861905D01*
X142852381Y-71814286D02*
X142852381Y-71623810D01*
X142804762Y-71528571D01*
X142757143Y-71480952D01*
X142614286Y-71385714D01*
X142423810Y-71338095D01*
X142042857Y-71338095D01*
X141947619Y-71385714D01*
X141900000Y-71433333D01*
X141852381Y-71528571D01*
X141852381Y-71719048D01*
X141900000Y-71814286D01*
X141947619Y-71861905D01*
X142042857Y-71909524D01*
X142280952Y-71909524D01*
X142376190Y-71861905D01*
X142423810Y-71814286D01*
X142471429Y-71719048D01*
X142471429Y-71528571D01*
X142423810Y-71433333D01*
X142376190Y-71385714D01*
X142280952Y-71338095D01*
X164957143Y-101042857D02*
X165004762Y-101090476D01*
X165052381Y-101233333D01*
X165052381Y-101328571D01*
X165004762Y-101471429D01*
X164909524Y-101566667D01*
X164814286Y-101614286D01*
X164623810Y-101661905D01*
X164480952Y-101661905D01*
X164290476Y-101614286D01*
X164195238Y-101566667D01*
X164100000Y-101471429D01*
X164052381Y-101328571D01*
X164052381Y-101233333D01*
X164100000Y-101090476D01*
X164147619Y-101042857D01*
X164147619Y-100661905D02*
X164100000Y-100614286D01*
X164052381Y-100519048D01*
X164052381Y-100280952D01*
X164100000Y-100185714D01*
X164147619Y-100138095D01*
X164242857Y-100090476D01*
X164338095Y-100090476D01*
X164480952Y-100138095D01*
X165052381Y-100709524D01*
X165052381Y-100090476D01*
X164052381Y-99471429D02*
X164052381Y-99376190D01*
X164100000Y-99280952D01*
X164147619Y-99233333D01*
X164242857Y-99185714D01*
X164433333Y-99138095D01*
X164671429Y-99138095D01*
X164861905Y-99185714D01*
X164957143Y-99233333D01*
X165004762Y-99280952D01*
X165052381Y-99376190D01*
X165052381Y-99471429D01*
X165004762Y-99566667D01*
X164957143Y-99614286D01*
X164861905Y-99661905D01*
X164671429Y-99709524D01*
X164433333Y-99709524D01*
X164242857Y-99661905D01*
X164147619Y-99614286D01*
X164100000Y-99566667D01*
X164052381Y-99471429D01*
X147757143Y-72842857D02*
X147804762Y-72890476D01*
X147852381Y-73033333D01*
X147852381Y-73128571D01*
X147804762Y-73271429D01*
X147709524Y-73366667D01*
X147614286Y-73414286D01*
X147423810Y-73461905D01*
X147280952Y-73461905D01*
X147090476Y-73414286D01*
X146995238Y-73366667D01*
X146900000Y-73271429D01*
X146852381Y-73128571D01*
X146852381Y-73033333D01*
X146900000Y-72890476D01*
X146947619Y-72842857D01*
X146947619Y-72461905D02*
X146900000Y-72414286D01*
X146852381Y-72319048D01*
X146852381Y-72080952D01*
X146900000Y-71985714D01*
X146947619Y-71938095D01*
X147042857Y-71890476D01*
X147138095Y-71890476D01*
X147280952Y-71938095D01*
X147852381Y-72509524D01*
X147852381Y-71890476D01*
X147852381Y-70938095D02*
X147852381Y-71509524D01*
X147852381Y-71223810D02*
X146852381Y-71223810D01*
X146995238Y-71319048D01*
X147090476Y-71414286D01*
X147138095Y-71509524D01*
X140341473Y-64450610D02*
X140341473Y-64517953D01*
X140274129Y-64652640D01*
X140206786Y-64719984D01*
X140072098Y-64787328D01*
X139937411Y-64787328D01*
X139836396Y-64753656D01*
X139668038Y-64652641D01*
X139567022Y-64551625D01*
X139466007Y-64383266D01*
X139432335Y-64282251D01*
X139432335Y-64147564D01*
X139499679Y-64012877D01*
X139567022Y-63945533D01*
X139701709Y-63878190D01*
X139769053Y-63878190D01*
X140038427Y-63608816D02*
X140038427Y-63541473D01*
X140072098Y-63440458D01*
X140240458Y-63272098D01*
X140341473Y-63238427D01*
X140408816Y-63238427D01*
X140509831Y-63272098D01*
X140577175Y-63339442D01*
X140644518Y-63474129D01*
X140644518Y-64282251D01*
X141082251Y-63844518D01*
X140711862Y-62935381D02*
X140711862Y-62868038D01*
X140745533Y-62767022D01*
X140913893Y-62598663D01*
X141014908Y-62564991D01*
X141082251Y-62564991D01*
X141183266Y-62598663D01*
X141250610Y-62666007D01*
X141317953Y-62800693D01*
X141317953Y-63608816D01*
X141755686Y-63171083D01*
X148357143Y-55357143D02*
X148309524Y-55404762D01*
X148166667Y-55452381D01*
X148071429Y-55452381D01*
X147928571Y-55404762D01*
X147833333Y-55309524D01*
X147785714Y-55214286D01*
X147738095Y-55023810D01*
X147738095Y-54880952D01*
X147785714Y-54690476D01*
X147833333Y-54595238D01*
X147928571Y-54500000D01*
X148071429Y-54452381D01*
X148166667Y-54452381D01*
X148309524Y-54500000D01*
X148357143Y-54547619D01*
X148738095Y-54547619D02*
X148785714Y-54500000D01*
X148880952Y-54452381D01*
X149119048Y-54452381D01*
X149214286Y-54500000D01*
X149261905Y-54547619D01*
X149309524Y-54642857D01*
X149309524Y-54738095D01*
X149261905Y-54880952D01*
X148690476Y-55452381D01*
X149309524Y-55452381D01*
X149642857Y-54452381D02*
X150261905Y-54452381D01*
X149928571Y-54833333D01*
X150071429Y-54833333D01*
X150166667Y-54880952D01*
X150214286Y-54928571D01*
X150261905Y-55023810D01*
X150261905Y-55261905D01*
X150214286Y-55357143D01*
X150166667Y-55404762D01*
X150071429Y-55452381D01*
X149785714Y-55452381D01*
X149690476Y-55404762D01*
X149642857Y-55357143D01*
X141757143Y-55557143D02*
X141709524Y-55604762D01*
X141566667Y-55652381D01*
X141471429Y-55652381D01*
X141328571Y-55604762D01*
X141233333Y-55509524D01*
X141185714Y-55414286D01*
X141138095Y-55223810D01*
X141138095Y-55080952D01*
X141185714Y-54890476D01*
X141233333Y-54795238D01*
X141328571Y-54700000D01*
X141471429Y-54652381D01*
X141566667Y-54652381D01*
X141709524Y-54700000D01*
X141757143Y-54747619D01*
X142138095Y-54747619D02*
X142185714Y-54700000D01*
X142280952Y-54652381D01*
X142519048Y-54652381D01*
X142614286Y-54700000D01*
X142661905Y-54747619D01*
X142709524Y-54842857D01*
X142709524Y-54938095D01*
X142661905Y-55080952D01*
X142090476Y-55652381D01*
X142709524Y-55652381D01*
X143614286Y-54652381D02*
X143138095Y-54652381D01*
X143090476Y-55128571D01*
X143138095Y-55080952D01*
X143233333Y-55033333D01*
X143471429Y-55033333D01*
X143566667Y-55080952D01*
X143614286Y-55128571D01*
X143661905Y-55223810D01*
X143661905Y-55461905D01*
X143614286Y-55557143D01*
X143566667Y-55604762D01*
X143471429Y-55652381D01*
X143233333Y-55652381D01*
X143138095Y-55604762D01*
X143090476Y-55557143D01*
X152397970Y-54107107D02*
X152397970Y-54174450D01*
X152330626Y-54309137D01*
X152263283Y-54376481D01*
X152128595Y-54443825D01*
X151993908Y-54443825D01*
X151892893Y-54410153D01*
X151724535Y-54309138D01*
X151623519Y-54208122D01*
X151522504Y-54039763D01*
X151488832Y-53938748D01*
X151488832Y-53804061D01*
X151556176Y-53669374D01*
X151623519Y-53602030D01*
X151758206Y-53534687D01*
X151825550Y-53534687D01*
X152094924Y-53265313D02*
X152094924Y-53197970D01*
X152128595Y-53096955D01*
X152296955Y-52928595D01*
X152397970Y-52894924D01*
X152465313Y-52894924D01*
X152566328Y-52928595D01*
X152633672Y-52995939D01*
X152701015Y-53130626D01*
X152701015Y-53938748D01*
X153138748Y-53501015D01*
X153037733Y-52187817D02*
X152903045Y-52322504D01*
X152869374Y-52423519D01*
X152869374Y-52490863D01*
X152903045Y-52659222D01*
X153004061Y-52827580D01*
X153273435Y-53096955D01*
X153374450Y-53130626D01*
X153441794Y-53130626D01*
X153542809Y-53096955D01*
X153677496Y-52962267D01*
X153711168Y-52861252D01*
X153711168Y-52793908D01*
X153677496Y-52692893D01*
X153509138Y-52524535D01*
X153408122Y-52490862D01*
X153340778Y-52490862D01*
X153239763Y-52524534D01*
X153105076Y-52659222D01*
X153071404Y-52760237D01*
X153071404Y-52827580D01*
X153105076Y-52928596D01*
X154997970Y-58907107D02*
X154997970Y-58974450D01*
X154930626Y-59109137D01*
X154863283Y-59176481D01*
X154728595Y-59243825D01*
X154593908Y-59243825D01*
X154492893Y-59210153D01*
X154324535Y-59109138D01*
X154223519Y-59008122D01*
X154122504Y-58839763D01*
X154088832Y-58738748D01*
X154088832Y-58604061D01*
X154156176Y-58469374D01*
X154223519Y-58402030D01*
X154358206Y-58334687D01*
X154425550Y-58334687D01*
X154694924Y-58065313D02*
X154694924Y-57997970D01*
X154728595Y-57896955D01*
X154896955Y-57728595D01*
X154997970Y-57694924D01*
X155065313Y-57694924D01*
X155166328Y-57728595D01*
X155233672Y-57795939D01*
X155301015Y-57930626D01*
X155301015Y-58738748D01*
X155738748Y-58301015D01*
X155267343Y-57358206D02*
X155738748Y-56886802D01*
X156142809Y-57896955D01*
X142857143Y-79557143D02*
X142809524Y-79604762D01*
X142666667Y-79652381D01*
X142571429Y-79652381D01*
X142428571Y-79604762D01*
X142333333Y-79509524D01*
X142285714Y-79414286D01*
X142238095Y-79223810D01*
X142238095Y-79080952D01*
X142285714Y-78890476D01*
X142333333Y-78795238D01*
X142428571Y-78700000D01*
X142571429Y-78652381D01*
X142666667Y-78652381D01*
X142809524Y-78700000D01*
X142857143Y-78747619D01*
X143238095Y-78747619D02*
X143285714Y-78700000D01*
X143380952Y-78652381D01*
X143619048Y-78652381D01*
X143714286Y-78700000D01*
X143761905Y-78747619D01*
X143809524Y-78842857D01*
X143809524Y-78938095D01*
X143761905Y-79080952D01*
X143190476Y-79652381D01*
X143809524Y-79652381D01*
X144380952Y-79080952D02*
X144285714Y-79033333D01*
X144238095Y-78985714D01*
X144190476Y-78890476D01*
X144190476Y-78842857D01*
X144238095Y-78747619D01*
X144285714Y-78700000D01*
X144380952Y-78652381D01*
X144571429Y-78652381D01*
X144666667Y-78700000D01*
X144714286Y-78747619D01*
X144761905Y-78842857D01*
X144761905Y-78890476D01*
X144714286Y-78985714D01*
X144666667Y-79033333D01*
X144571429Y-79080952D01*
X144380952Y-79080952D01*
X144285714Y-79128571D01*
X144238095Y-79176190D01*
X144190476Y-79271429D01*
X144190476Y-79461905D01*
X144238095Y-79557143D01*
X144285714Y-79604762D01*
X144380952Y-79652381D01*
X144571429Y-79652381D01*
X144666667Y-79604762D01*
X144714286Y-79557143D01*
X144761905Y-79461905D01*
X144761905Y-79271429D01*
X144714286Y-79176190D01*
X144666667Y-79128571D01*
X144571429Y-79080952D01*
X141157143Y-75842857D02*
X141204762Y-75890476D01*
X141252381Y-76033333D01*
X141252381Y-76128571D01*
X141204762Y-76271429D01*
X141109524Y-76366667D01*
X141014286Y-76414286D01*
X140823810Y-76461905D01*
X140680952Y-76461905D01*
X140490476Y-76414286D01*
X140395238Y-76366667D01*
X140300000Y-76271429D01*
X140252381Y-76128571D01*
X140252381Y-76033333D01*
X140300000Y-75890476D01*
X140347619Y-75842857D01*
X140347619Y-75461905D02*
X140300000Y-75414286D01*
X140252381Y-75319048D01*
X140252381Y-75080952D01*
X140300000Y-74985714D01*
X140347619Y-74938095D01*
X140442857Y-74890476D01*
X140538095Y-74890476D01*
X140680952Y-74938095D01*
X141252381Y-75509524D01*
X141252381Y-74890476D01*
X141252381Y-74414286D02*
X141252381Y-74223810D01*
X141204762Y-74128571D01*
X141157143Y-74080952D01*
X141014286Y-73985714D01*
X140823810Y-73938095D01*
X140442857Y-73938095D01*
X140347619Y-73985714D01*
X140300000Y-74033333D01*
X140252381Y-74128571D01*
X140252381Y-74319048D01*
X140300000Y-74414286D01*
X140347619Y-74461905D01*
X140442857Y-74509524D01*
X140680952Y-74509524D01*
X140776190Y-74461905D01*
X140823810Y-74414286D01*
X140871429Y-74319048D01*
X140871429Y-74128571D01*
X140823810Y-74033333D01*
X140776190Y-73985714D01*
X140680952Y-73938095D01*
X147857143Y-78957143D02*
X147809524Y-79004762D01*
X147666667Y-79052381D01*
X147571429Y-79052381D01*
X147428571Y-79004762D01*
X147333333Y-78909524D01*
X147285714Y-78814286D01*
X147238095Y-78623810D01*
X147238095Y-78480952D01*
X147285714Y-78290476D01*
X147333333Y-78195238D01*
X147428571Y-78100000D01*
X147571429Y-78052381D01*
X147666667Y-78052381D01*
X147809524Y-78100000D01*
X147857143Y-78147619D01*
X148190476Y-78052381D02*
X148809524Y-78052381D01*
X148476190Y-78433333D01*
X148619048Y-78433333D01*
X148714286Y-78480952D01*
X148761905Y-78528571D01*
X148809524Y-78623810D01*
X148809524Y-78861905D01*
X148761905Y-78957143D01*
X148714286Y-79004762D01*
X148619048Y-79052381D01*
X148333333Y-79052381D01*
X148238095Y-79004762D01*
X148190476Y-78957143D01*
X149428571Y-78052381D02*
X149523810Y-78052381D01*
X149619048Y-78100000D01*
X149666667Y-78147619D01*
X149714286Y-78242857D01*
X149761905Y-78433333D01*
X149761905Y-78671429D01*
X149714286Y-78861905D01*
X149666667Y-78957143D01*
X149619048Y-79004762D01*
X149523810Y-79052381D01*
X149428571Y-79052381D01*
X149333333Y-79004762D01*
X149285714Y-78957143D01*
X149238095Y-78861905D01*
X149190476Y-78671429D01*
X149190476Y-78433333D01*
X149238095Y-78242857D01*
X149285714Y-78147619D01*
X149333333Y-78100000D01*
X149428571Y-78052381D01*
X158857143Y-82257143D02*
X158809524Y-82304762D01*
X158666667Y-82352381D01*
X158571429Y-82352381D01*
X158428571Y-82304762D01*
X158333333Y-82209524D01*
X158285714Y-82114286D01*
X158238095Y-81923810D01*
X158238095Y-81780952D01*
X158285714Y-81590476D01*
X158333333Y-81495238D01*
X158428571Y-81400000D01*
X158571429Y-81352381D01*
X158666667Y-81352381D01*
X158809524Y-81400000D01*
X158857143Y-81447619D01*
X159190476Y-81352381D02*
X159809524Y-81352381D01*
X159476190Y-81733333D01*
X159619048Y-81733333D01*
X159714286Y-81780952D01*
X159761905Y-81828571D01*
X159809524Y-81923810D01*
X159809524Y-82161905D01*
X159761905Y-82257143D01*
X159714286Y-82304762D01*
X159619048Y-82352381D01*
X159333333Y-82352381D01*
X159238095Y-82304762D01*
X159190476Y-82257143D01*
X160761905Y-82352381D02*
X160190476Y-82352381D01*
X160476190Y-82352381D02*
X160476190Y-81352381D01*
X160380952Y-81495238D01*
X160285714Y-81590476D01*
X160190476Y-81638095D01*
X161357143Y-78557143D02*
X161309524Y-78604762D01*
X161166667Y-78652381D01*
X161071429Y-78652381D01*
X160928571Y-78604762D01*
X160833333Y-78509524D01*
X160785714Y-78414286D01*
X160738095Y-78223810D01*
X160738095Y-78080952D01*
X160785714Y-77890476D01*
X160833333Y-77795238D01*
X160928571Y-77700000D01*
X161071429Y-77652381D01*
X161166667Y-77652381D01*
X161309524Y-77700000D01*
X161357143Y-77747619D01*
X161690476Y-77652381D02*
X162309524Y-77652381D01*
X161976190Y-78033333D01*
X162119048Y-78033333D01*
X162214286Y-78080952D01*
X162261905Y-78128571D01*
X162309524Y-78223810D01*
X162309524Y-78461905D01*
X162261905Y-78557143D01*
X162214286Y-78604762D01*
X162119048Y-78652381D01*
X161833333Y-78652381D01*
X161738095Y-78604762D01*
X161690476Y-78557143D01*
X162690476Y-77747619D02*
X162738095Y-77700000D01*
X162833333Y-77652381D01*
X163071429Y-77652381D01*
X163166667Y-77700000D01*
X163214286Y-77747619D01*
X163261905Y-77842857D01*
X163261905Y-77938095D01*
X163214286Y-78080952D01*
X162642857Y-78652381D01*
X163261905Y-78652381D01*
X133157143Y-82257143D02*
X133109524Y-82304762D01*
X132966667Y-82352381D01*
X132871429Y-82352381D01*
X132728571Y-82304762D01*
X132633333Y-82209524D01*
X132585714Y-82114286D01*
X132538095Y-81923810D01*
X132538095Y-81780952D01*
X132585714Y-81590476D01*
X132633333Y-81495238D01*
X132728571Y-81400000D01*
X132871429Y-81352381D01*
X132966667Y-81352381D01*
X133109524Y-81400000D01*
X133157143Y-81447619D01*
X133490476Y-81352381D02*
X134109524Y-81352381D01*
X133776190Y-81733333D01*
X133919048Y-81733333D01*
X134014286Y-81780952D01*
X134061905Y-81828571D01*
X134109524Y-81923810D01*
X134109524Y-82161905D01*
X134061905Y-82257143D01*
X134014286Y-82304762D01*
X133919048Y-82352381D01*
X133633333Y-82352381D01*
X133538095Y-82304762D01*
X133490476Y-82257143D01*
X134966667Y-81685714D02*
X134966667Y-82352381D01*
X134728571Y-81304762D02*
X134490476Y-82019048D01*
X135109524Y-82019048D01*
X124257143Y-58842857D02*
X124304762Y-58890476D01*
X124352381Y-59033333D01*
X124352381Y-59128571D01*
X124304762Y-59271429D01*
X124209524Y-59366667D01*
X124114286Y-59414286D01*
X123923810Y-59461905D01*
X123780952Y-59461905D01*
X123590476Y-59414286D01*
X123495238Y-59366667D01*
X123400000Y-59271429D01*
X123352381Y-59128571D01*
X123352381Y-59033333D01*
X123400000Y-58890476D01*
X123447619Y-58842857D01*
X123352381Y-58509524D02*
X123352381Y-57890476D01*
X123733333Y-58223810D01*
X123733333Y-58080952D01*
X123780952Y-57985714D01*
X123828571Y-57938095D01*
X123923810Y-57890476D01*
X124161905Y-57890476D01*
X124257143Y-57938095D01*
X124304762Y-57985714D01*
X124352381Y-58080952D01*
X124352381Y-58366667D01*
X124304762Y-58461905D01*
X124257143Y-58509524D01*
X123352381Y-57557143D02*
X123352381Y-56890476D01*
X124352381Y-57319048D01*
X125557143Y-59042857D02*
X125604762Y-59090476D01*
X125652381Y-59233333D01*
X125652381Y-59328571D01*
X125604762Y-59471429D01*
X125509524Y-59566667D01*
X125414286Y-59614286D01*
X125223810Y-59661905D01*
X125080952Y-59661905D01*
X124890476Y-59614286D01*
X124795238Y-59566667D01*
X124700000Y-59471429D01*
X124652381Y-59328571D01*
X124652381Y-59233333D01*
X124700000Y-59090476D01*
X124747619Y-59042857D01*
X124652381Y-58709524D02*
X124652381Y-58090476D01*
X125033333Y-58423810D01*
X125033333Y-58280952D01*
X125080952Y-58185714D01*
X125128571Y-58138095D01*
X125223810Y-58090476D01*
X125461905Y-58090476D01*
X125557143Y-58138095D01*
X125604762Y-58185714D01*
X125652381Y-58280952D01*
X125652381Y-58566667D01*
X125604762Y-58661905D01*
X125557143Y-58709524D01*
X125080952Y-57519048D02*
X125033333Y-57614286D01*
X124985714Y-57661905D01*
X124890476Y-57709524D01*
X124842857Y-57709524D01*
X124747619Y-57661905D01*
X124700000Y-57614286D01*
X124652381Y-57519048D01*
X124652381Y-57328571D01*
X124700000Y-57233333D01*
X124747619Y-57185714D01*
X124842857Y-57138095D01*
X124890476Y-57138095D01*
X124985714Y-57185714D01*
X125033333Y-57233333D01*
X125080952Y-57328571D01*
X125080952Y-57519048D01*
X125128571Y-57614286D01*
X125176190Y-57661905D01*
X125271429Y-57709524D01*
X125461905Y-57709524D01*
X125557143Y-57661905D01*
X125604762Y-57614286D01*
X125652381Y-57519048D01*
X125652381Y-57328571D01*
X125604762Y-57233333D01*
X125557143Y-57185714D01*
X125461905Y-57138095D01*
X125271429Y-57138095D01*
X125176190Y-57185714D01*
X125128571Y-57233333D01*
X125080952Y-57328571D01*
X125857143Y-68942857D02*
X125904762Y-68990476D01*
X125952381Y-69133333D01*
X125952381Y-69228571D01*
X125904762Y-69371429D01*
X125809524Y-69466667D01*
X125714286Y-69514286D01*
X125523810Y-69561905D01*
X125380952Y-69561905D01*
X125190476Y-69514286D01*
X125095238Y-69466667D01*
X125000000Y-69371429D01*
X124952381Y-69228571D01*
X124952381Y-69133333D01*
X125000000Y-68990476D01*
X125047619Y-68942857D01*
X125285714Y-68085714D02*
X125952381Y-68085714D01*
X124904762Y-68323810D02*
X125619048Y-68561905D01*
X125619048Y-67942857D01*
X124952381Y-67371429D02*
X124952381Y-67276190D01*
X125000000Y-67180952D01*
X125047619Y-67133333D01*
X125142857Y-67085714D01*
X125333333Y-67038095D01*
X125571429Y-67038095D01*
X125761905Y-67085714D01*
X125857143Y-67133333D01*
X125904762Y-67180952D01*
X125952381Y-67276190D01*
X125952381Y-67371429D01*
X125904762Y-67466667D01*
X125857143Y-67514286D01*
X125761905Y-67561905D01*
X125571429Y-67609524D01*
X125333333Y-67609524D01*
X125142857Y-67561905D01*
X125047619Y-67514286D01*
X125000000Y-67466667D01*
X124952381Y-67371429D01*
X171607143Y-58107143D02*
X171559524Y-58154762D01*
X171416667Y-58202381D01*
X171321429Y-58202381D01*
X171178571Y-58154762D01*
X171083333Y-58059524D01*
X171035714Y-57964286D01*
X170988095Y-57773810D01*
X170988095Y-57630952D01*
X171035714Y-57440476D01*
X171083333Y-57345238D01*
X171178571Y-57250000D01*
X171321429Y-57202381D01*
X171416667Y-57202381D01*
X171559524Y-57250000D01*
X171607143Y-57297619D01*
X172464286Y-57535714D02*
X172464286Y-58202381D01*
X172226190Y-57154762D02*
X171988095Y-57869048D01*
X172607143Y-57869048D01*
X173511905Y-58202381D02*
X172940476Y-58202381D01*
X173226190Y-58202381D02*
X173226190Y-57202381D01*
X173130952Y-57345238D01*
X173035714Y-57440476D01*
X172940476Y-57488095D01*
X170857143Y-59607143D02*
X170809524Y-59654762D01*
X170666667Y-59702381D01*
X170571429Y-59702381D01*
X170428571Y-59654762D01*
X170333333Y-59559524D01*
X170285714Y-59464286D01*
X170238095Y-59273810D01*
X170238095Y-59130952D01*
X170285714Y-58940476D01*
X170333333Y-58845238D01*
X170428571Y-58750000D01*
X170571429Y-58702381D01*
X170666667Y-58702381D01*
X170809524Y-58750000D01*
X170857143Y-58797619D01*
X171714286Y-59035714D02*
X171714286Y-59702381D01*
X171476190Y-58654762D02*
X171238095Y-59369048D01*
X171857143Y-59369048D01*
X172190476Y-58797619D02*
X172238095Y-58750000D01*
X172333333Y-58702381D01*
X172571429Y-58702381D01*
X172666667Y-58750000D01*
X172714286Y-58797619D01*
X172761905Y-58892857D01*
X172761905Y-58988095D01*
X172714286Y-59130952D01*
X172142857Y-59702381D01*
X172761905Y-59702381D01*
X173957143Y-65157143D02*
X173909524Y-65204762D01*
X173766667Y-65252381D01*
X173671429Y-65252381D01*
X173528571Y-65204762D01*
X173433333Y-65109524D01*
X173385714Y-65014286D01*
X173338095Y-64823810D01*
X173338095Y-64680952D01*
X173385714Y-64490476D01*
X173433333Y-64395238D01*
X173528571Y-64300000D01*
X173671429Y-64252381D01*
X173766667Y-64252381D01*
X173909524Y-64300000D01*
X173957143Y-64347619D01*
X174814286Y-64585714D02*
X174814286Y-65252381D01*
X174576190Y-64204762D02*
X174338095Y-64919048D01*
X174957143Y-64919048D01*
X175242857Y-64252381D02*
X175861905Y-64252381D01*
X175528571Y-64633333D01*
X175671429Y-64633333D01*
X175766667Y-64680952D01*
X175814286Y-64728571D01*
X175861905Y-64823810D01*
X175861905Y-65061905D01*
X175814286Y-65157143D01*
X175766667Y-65204762D01*
X175671429Y-65252381D01*
X175385714Y-65252381D01*
X175290476Y-65204762D01*
X175242857Y-65157143D01*
X171857143Y-69392857D02*
X171904762Y-69440476D01*
X171952381Y-69583333D01*
X171952381Y-69678571D01*
X171904762Y-69821429D01*
X171809524Y-69916667D01*
X171714286Y-69964286D01*
X171523810Y-70011905D01*
X171380952Y-70011905D01*
X171190476Y-69964286D01*
X171095238Y-69916667D01*
X171000000Y-69821429D01*
X170952381Y-69678571D01*
X170952381Y-69583333D01*
X171000000Y-69440476D01*
X171047619Y-69392857D01*
X171285714Y-68535714D02*
X171952381Y-68535714D01*
X170904762Y-68773810D02*
X171619048Y-69011905D01*
X171619048Y-68392857D01*
X171285714Y-67583333D02*
X171952381Y-67583333D01*
X170904762Y-67821429D02*
X171619048Y-68059524D01*
X171619048Y-67440476D01*
X174761905Y-93202381D02*
X174761905Y-92202381D01*
X175000000Y-92202381D01*
X175142858Y-92250000D01*
X175238096Y-92345238D01*
X175285715Y-92440476D01*
X175333334Y-92630952D01*
X175333334Y-92773810D01*
X175285715Y-92964286D01*
X175238096Y-93059524D01*
X175142858Y-93154762D01*
X175000000Y-93202381D01*
X174761905Y-93202381D01*
X176285715Y-93202381D02*
X175714286Y-93202381D01*
X176000000Y-93202381D02*
X176000000Y-92202381D01*
X175904762Y-92345238D01*
X175809524Y-92440476D01*
X175714286Y-92488095D01*
X122011905Y-43952381D02*
X122011905Y-42952381D01*
X122250000Y-42952381D01*
X122392858Y-43000000D01*
X122488096Y-43095238D01*
X122535715Y-43190476D01*
X122583334Y-43380952D01*
X122583334Y-43523810D01*
X122535715Y-43714286D01*
X122488096Y-43809524D01*
X122392858Y-43904762D01*
X122250000Y-43952381D01*
X122011905Y-43952381D01*
X122964286Y-43047619D02*
X123011905Y-43000000D01*
X123107143Y-42952381D01*
X123345239Y-42952381D01*
X123440477Y-43000000D01*
X123488096Y-43047619D01*
X123535715Y-43142857D01*
X123535715Y-43238095D01*
X123488096Y-43380952D01*
X122916667Y-43952381D01*
X123535715Y-43952381D01*
X138761905Y-40452381D02*
X138761905Y-39452381D01*
X139000000Y-39452381D01*
X139142858Y-39500000D01*
X139238096Y-39595238D01*
X139285715Y-39690476D01*
X139333334Y-39880952D01*
X139333334Y-40023810D01*
X139285715Y-40214286D01*
X139238096Y-40309524D01*
X139142858Y-40404762D01*
X139000000Y-40452381D01*
X138761905Y-40452381D01*
X139666667Y-39452381D02*
X140285715Y-39452381D01*
X139952381Y-39833333D01*
X140095239Y-39833333D01*
X140190477Y-39880952D01*
X140238096Y-39928571D01*
X140285715Y-40023810D01*
X140285715Y-40261905D01*
X140238096Y-40357143D01*
X140190477Y-40404762D01*
X140095239Y-40452381D01*
X139809524Y-40452381D01*
X139714286Y-40404762D01*
X139666667Y-40357143D01*
X156761905Y-40202381D02*
X156761905Y-39202381D01*
X157000000Y-39202381D01*
X157142858Y-39250000D01*
X157238096Y-39345238D01*
X157285715Y-39440476D01*
X157333334Y-39630952D01*
X157333334Y-39773810D01*
X157285715Y-39964286D01*
X157238096Y-40059524D01*
X157142858Y-40154762D01*
X157000000Y-40202381D01*
X156761905Y-40202381D01*
X158190477Y-39535714D02*
X158190477Y-40202381D01*
X157952381Y-39154762D02*
X157714286Y-39869048D01*
X158333334Y-39869048D01*
X173511905Y-43952381D02*
X173511905Y-42952381D01*
X173750000Y-42952381D01*
X173892858Y-43000000D01*
X173988096Y-43095238D01*
X174035715Y-43190476D01*
X174083334Y-43380952D01*
X174083334Y-43523810D01*
X174035715Y-43714286D01*
X173988096Y-43809524D01*
X173892858Y-43904762D01*
X173750000Y-43952381D01*
X173511905Y-43952381D01*
X174988096Y-42952381D02*
X174511905Y-42952381D01*
X174464286Y-43428571D01*
X174511905Y-43380952D01*
X174607143Y-43333333D01*
X174845239Y-43333333D01*
X174940477Y-43380952D01*
X174988096Y-43428571D01*
X175035715Y-43523810D01*
X175035715Y-43761905D01*
X174988096Y-43857143D01*
X174940477Y-43904762D01*
X174845239Y-43952381D01*
X174607143Y-43952381D01*
X174511905Y-43904762D01*
X174464286Y-43857143D01*
X120761905Y-93202381D02*
X120761905Y-92202381D01*
X121000000Y-92202381D01*
X121142858Y-92250000D01*
X121238096Y-92345238D01*
X121285715Y-92440476D01*
X121333334Y-92630952D01*
X121333334Y-92773810D01*
X121285715Y-92964286D01*
X121238096Y-93059524D01*
X121142858Y-93154762D01*
X121000000Y-93202381D01*
X120761905Y-93202381D01*
X122190477Y-92202381D02*
X122000000Y-92202381D01*
X121904762Y-92250000D01*
X121857143Y-92297619D01*
X121761905Y-92440476D01*
X121714286Y-92630952D01*
X121714286Y-93011905D01*
X121761905Y-93107143D01*
X121809524Y-93154762D01*
X121904762Y-93202381D01*
X122095239Y-93202381D01*
X122190477Y-93154762D01*
X122238096Y-93107143D01*
X122285715Y-93011905D01*
X122285715Y-92773810D01*
X122238096Y-92678571D01*
X122190477Y-92630952D01*
X122095239Y-92583333D01*
X121904762Y-92583333D01*
X121809524Y-92630952D01*
X121761905Y-92678571D01*
X121714286Y-92773810D01*
X119951673Y-56473677D02*
X119778025Y-55488869D01*
X120012503Y-55447525D01*
X120161460Y-55469613D01*
X120271789Y-55546866D01*
X120335222Y-55632389D01*
X120415194Y-55811702D01*
X120440001Y-55952390D01*
X120426181Y-56148241D01*
X120395823Y-56250301D01*
X120318570Y-56360630D01*
X120186151Y-56432332D01*
X119951673Y-56473677D01*
X120669042Y-55331759D02*
X121325581Y-55215994D01*
X121077168Y-56275222D01*
X158072458Y-35461141D02*
X159012150Y-35119121D01*
X159093583Y-35342857D01*
X159097697Y-35493386D01*
X159040775Y-35615454D01*
X158967568Y-35692775D01*
X158804865Y-35802668D01*
X158670623Y-35851529D01*
X158475347Y-35871928D01*
X158369566Y-35859754D01*
X158247498Y-35802833D01*
X158153891Y-35684877D01*
X158072458Y-35461141D01*
X158430764Y-36445581D02*
X158495911Y-36624570D01*
X158573232Y-36697778D01*
X158634266Y-36726239D01*
X158801081Y-36766873D01*
X158996356Y-36746474D01*
X159354335Y-36616180D01*
X159427543Y-36538860D01*
X159456003Y-36477826D01*
X159468177Y-36372045D01*
X159403030Y-36193055D01*
X159325710Y-36119847D01*
X159264676Y-36091387D01*
X159158895Y-36079213D01*
X158935159Y-36160646D01*
X158861951Y-36237967D01*
X158833489Y-36299001D01*
X158821315Y-36404782D01*
X158886462Y-36583772D01*
X158963783Y-36656980D01*
X159024818Y-36685440D01*
X159130599Y-36697614D01*
X175325607Y-56134650D02*
X175499255Y-55149842D01*
X175733733Y-55191187D01*
X175866151Y-55262889D01*
X175943405Y-55373218D01*
X175973762Y-55475278D01*
X175987582Y-55671130D01*
X175962775Y-55811817D01*
X175882804Y-55991131D01*
X175819370Y-56076653D01*
X175709041Y-56153906D01*
X175560084Y-56175995D01*
X175325607Y-56134650D01*
X176826266Y-56399257D02*
X176263519Y-56300029D01*
X176544892Y-56349643D02*
X176718540Y-55364835D01*
X176599942Y-55488984D01*
X176489613Y-55566237D01*
X176387553Y-55596595D01*
X177609557Y-55521945D02*
X177703349Y-55538483D01*
X177788871Y-55601917D01*
X177827498Y-55657081D01*
X177857855Y-55759141D01*
X177871675Y-55954993D01*
X177830330Y-56189471D01*
X177750359Y-56368785D01*
X177686925Y-56454307D01*
X177631761Y-56492933D01*
X177529701Y-56523291D01*
X177435909Y-56506753D01*
X177350387Y-56443320D01*
X177311760Y-56388155D01*
X177281402Y-56286095D01*
X177267583Y-56090244D01*
X177308928Y-55855765D01*
X177388899Y-55676452D01*
X177452332Y-55590929D01*
X177507497Y-55552303D01*
X177609557Y-55521945D01*
X157559591Y-29013668D02*
X158499283Y-28671648D01*
X158580717Y-28895384D01*
X158584830Y-29045913D01*
X158527909Y-29167981D01*
X158454701Y-29245301D01*
X158291998Y-29355195D01*
X158157756Y-29404056D01*
X157962480Y-29424455D01*
X157856699Y-29412281D01*
X157734631Y-29355360D01*
X157641024Y-29237404D01*
X157559591Y-29013668D01*
X158080764Y-30445581D02*
X157885324Y-29908613D01*
X157983044Y-30177097D02*
X158922737Y-29835076D01*
X158755922Y-29794442D01*
X158633854Y-29737521D01*
X158556533Y-29664313D01*
X159061256Y-30494112D02*
X159122290Y-30522572D01*
X159199610Y-30595780D01*
X159281044Y-30819517D01*
X159268870Y-30925298D01*
X159240409Y-30986332D01*
X159167202Y-31063653D01*
X159077707Y-31096226D01*
X158927179Y-31100339D01*
X158194771Y-30758811D01*
X158406498Y-31340526D01*
X180825607Y-58834650D02*
X180999255Y-57849842D01*
X181233733Y-57891187D01*
X181366151Y-57962889D01*
X181443405Y-58073218D01*
X181473762Y-58175278D01*
X181487582Y-58371130D01*
X181462775Y-58511817D01*
X181382804Y-58691131D01*
X181319370Y-58776653D01*
X181209041Y-58853906D01*
X181060084Y-58875995D01*
X180825607Y-58834650D01*
X182326266Y-59099257D02*
X181763519Y-59000029D01*
X182044892Y-59049643D02*
X182218540Y-58064835D01*
X182099942Y-58188984D01*
X181989613Y-58266237D01*
X181887553Y-58296595D01*
X182828184Y-58172332D02*
X183437827Y-58279828D01*
X183043405Y-58597110D01*
X183184093Y-58621917D01*
X183269615Y-58685350D01*
X183308242Y-58740515D01*
X183338599Y-58842576D01*
X183297255Y-59077054D01*
X183233821Y-59162576D01*
X183178657Y-59201202D01*
X183076596Y-59231560D01*
X182795222Y-59181946D01*
X182709700Y-59118513D01*
X182671073Y-59063348D01*
X131652381Y-100176190D02*
X130652381Y-100176190D01*
X131557143Y-99128571D02*
X131604762Y-99176190D01*
X131652381Y-99319047D01*
X131652381Y-99414285D01*
X131604762Y-99557143D01*
X131509524Y-99652381D01*
X131414286Y-99700000D01*
X131223810Y-99747619D01*
X131080952Y-99747619D01*
X130890476Y-99700000D01*
X130795238Y-99652381D01*
X130700000Y-99557143D01*
X130652381Y-99414285D01*
X130652381Y-99319047D01*
X130700000Y-99176190D01*
X130747619Y-99128571D01*
X131652381Y-98176190D02*
X131652381Y-98747619D01*
X131652381Y-98461905D02*
X130652381Y-98461905D01*
X130795238Y-98557143D01*
X130890476Y-98652381D01*
X130938095Y-98747619D01*
X149252381Y-99576190D02*
X148252381Y-99576190D01*
X149157143Y-98528571D02*
X149204762Y-98576190D01*
X149252381Y-98719047D01*
X149252381Y-98814285D01*
X149204762Y-98957143D01*
X149109524Y-99052381D01*
X149014286Y-99100000D01*
X148823810Y-99147619D01*
X148680952Y-99147619D01*
X148490476Y-99100000D01*
X148395238Y-99052381D01*
X148300000Y-98957143D01*
X148252381Y-98814285D01*
X148252381Y-98719047D01*
X148300000Y-98576190D01*
X148347619Y-98528571D01*
X148347619Y-98147619D02*
X148300000Y-98100000D01*
X148252381Y-98004762D01*
X148252381Y-97766666D01*
X148300000Y-97671428D01*
X148347619Y-97623809D01*
X148442857Y-97576190D01*
X148538095Y-97576190D01*
X148680952Y-97623809D01*
X149252381Y-98195238D01*
X149252381Y-97576190D01*
X162823810Y-61652381D02*
X162823810Y-60652381D01*
X163871429Y-61557143D02*
X163823810Y-61604762D01*
X163680953Y-61652381D01*
X163585715Y-61652381D01*
X163442857Y-61604762D01*
X163347619Y-61509524D01*
X163300000Y-61414286D01*
X163252381Y-61223810D01*
X163252381Y-61080952D01*
X163300000Y-60890476D01*
X163347619Y-60795238D01*
X163442857Y-60700000D01*
X163585715Y-60652381D01*
X163680953Y-60652381D01*
X163823810Y-60700000D01*
X163871429Y-60747619D01*
X164204762Y-60652381D02*
X164823810Y-60652381D01*
X164490476Y-61033333D01*
X164633334Y-61033333D01*
X164728572Y-61080952D01*
X164776191Y-61128571D01*
X164823810Y-61223810D01*
X164823810Y-61461905D01*
X164776191Y-61557143D01*
X164728572Y-61604762D01*
X164633334Y-61652381D01*
X164347619Y-61652381D01*
X164252381Y-61604762D01*
X164204762Y-61557143D01*
X152202381Y-76976190D02*
X151202381Y-76976190D01*
X152107143Y-75928571D02*
X152154762Y-75976190D01*
X152202381Y-76119047D01*
X152202381Y-76214285D01*
X152154762Y-76357143D01*
X152059524Y-76452381D01*
X151964286Y-76500000D01*
X151773810Y-76547619D01*
X151630952Y-76547619D01*
X151440476Y-76500000D01*
X151345238Y-76452381D01*
X151250000Y-76357143D01*
X151202381Y-76214285D01*
X151202381Y-76119047D01*
X151250000Y-75976190D01*
X151297619Y-75928571D01*
X151202381Y-75023809D02*
X151202381Y-75500000D01*
X151678571Y-75547619D01*
X151630952Y-75500000D01*
X151583333Y-75404762D01*
X151583333Y-75166666D01*
X151630952Y-75071428D01*
X151678571Y-75023809D01*
X151773810Y-74976190D01*
X152011905Y-74976190D01*
X152107143Y-75023809D01*
X152154762Y-75071428D01*
X152202381Y-75166666D01*
X152202381Y-75404762D01*
X152154762Y-75500000D01*
X152107143Y-75547619D01*
X155423810Y-79452381D02*
X155423810Y-78452381D01*
X156471429Y-79357143D02*
X156423810Y-79404762D01*
X156280953Y-79452381D01*
X156185715Y-79452381D01*
X156042857Y-79404762D01*
X155947619Y-79309524D01*
X155900000Y-79214286D01*
X155852381Y-79023810D01*
X155852381Y-78880952D01*
X155900000Y-78690476D01*
X155947619Y-78595238D01*
X156042857Y-78500000D01*
X156185715Y-78452381D01*
X156280953Y-78452381D01*
X156423810Y-78500000D01*
X156471429Y-78547619D01*
X157328572Y-78452381D02*
X157138095Y-78452381D01*
X157042857Y-78500000D01*
X156995238Y-78547619D01*
X156900000Y-78690476D01*
X156852381Y-78880952D01*
X156852381Y-79261905D01*
X156900000Y-79357143D01*
X156947619Y-79404762D01*
X157042857Y-79452381D01*
X157233334Y-79452381D01*
X157328572Y-79404762D01*
X157376191Y-79357143D01*
X157423810Y-79261905D01*
X157423810Y-79023810D01*
X157376191Y-78928571D01*
X157328572Y-78880952D01*
X157233334Y-78833333D01*
X157042857Y-78833333D01*
X156947619Y-78880952D01*
X156900000Y-78928571D01*
X156852381Y-79023810D01*
X129023810Y-79652381D02*
X129023810Y-78652381D01*
X130071429Y-79557143D02*
X130023810Y-79604762D01*
X129880953Y-79652381D01*
X129785715Y-79652381D01*
X129642857Y-79604762D01*
X129547619Y-79509524D01*
X129500000Y-79414286D01*
X129452381Y-79223810D01*
X129452381Y-79080952D01*
X129500000Y-78890476D01*
X129547619Y-78795238D01*
X129642857Y-78700000D01*
X129785715Y-78652381D01*
X129880953Y-78652381D01*
X130023810Y-78700000D01*
X130071429Y-78747619D01*
X130404762Y-78652381D02*
X131071429Y-78652381D01*
X130642857Y-79652381D01*
X149823810Y-53052381D02*
X149823810Y-52052381D01*
X150871429Y-52957143D02*
X150823810Y-53004762D01*
X150680953Y-53052381D01*
X150585715Y-53052381D01*
X150442857Y-53004762D01*
X150347619Y-52909524D01*
X150300000Y-52814286D01*
X150252381Y-52623810D01*
X150252381Y-52480952D01*
X150300000Y-52290476D01*
X150347619Y-52195238D01*
X150442857Y-52100000D01*
X150585715Y-52052381D01*
X150680953Y-52052381D01*
X150823810Y-52100000D01*
X150871429Y-52147619D01*
X151347619Y-53052381D02*
X151538095Y-53052381D01*
X151633334Y-53004762D01*
X151680953Y-52957143D01*
X151776191Y-52814286D01*
X151823810Y-52623810D01*
X151823810Y-52242857D01*
X151776191Y-52147619D01*
X151728572Y-52100000D01*
X151633334Y-52052381D01*
X151442857Y-52052381D01*
X151347619Y-52100000D01*
X151300000Y-52147619D01*
X151252381Y-52242857D01*
X151252381Y-52480952D01*
X151300000Y-52576190D01*
X151347619Y-52623810D01*
X151442857Y-52671429D01*
X151633334Y-52671429D01*
X151728572Y-52623810D01*
X151776191Y-52576190D01*
X151823810Y-52480952D01*
X137833334Y-95352381D02*
X137357143Y-95352381D01*
X137357143Y-94352381D01*
X138690477Y-95352381D02*
X138119048Y-95352381D01*
X138404762Y-95352381D02*
X138404762Y-94352381D01*
X138309524Y-94495238D01*
X138214286Y-94590476D01*
X138119048Y-94638095D01*
X155833334Y-94852381D02*
X155357143Y-94852381D01*
X155357143Y-93852381D01*
X156119048Y-93947619D02*
X156166667Y-93900000D01*
X156261905Y-93852381D01*
X156500001Y-93852381D01*
X156595239Y-93900000D01*
X156642858Y-93947619D01*
X156690477Y-94042857D01*
X156690477Y-94138095D01*
X156642858Y-94280952D01*
X156071429Y-94852381D01*
X156690477Y-94852381D01*
X162061905Y-104052381D02*
X162061905Y-103052381D01*
X162442858Y-103052381D01*
X162538096Y-103100000D01*
X162585715Y-103147619D01*
X162633334Y-103242857D01*
X162633334Y-103385714D01*
X162585715Y-103480952D01*
X162538096Y-103528571D01*
X162442858Y-103576190D01*
X162061905Y-103576190D01*
X163585715Y-104052381D02*
X163014286Y-104052381D01*
X163300000Y-104052381D02*
X163300000Y-103052381D01*
X163204762Y-103195238D01*
X163109524Y-103290476D01*
X163014286Y-103338095D01*
X153261905Y-104652381D02*
X153261905Y-103652381D01*
X153642858Y-103652381D01*
X153738096Y-103700000D01*
X153785715Y-103747619D01*
X153833334Y-103842857D01*
X153833334Y-103985714D01*
X153785715Y-104080952D01*
X153738096Y-104128571D01*
X153642858Y-104176190D01*
X153261905Y-104176190D01*
X154214286Y-103747619D02*
X154261905Y-103700000D01*
X154357143Y-103652381D01*
X154595239Y-103652381D01*
X154690477Y-103700000D01*
X154738096Y-103747619D01*
X154785715Y-103842857D01*
X154785715Y-103938095D01*
X154738096Y-104080952D01*
X154166667Y-104652381D01*
X154785715Y-104652381D01*
X165861905Y-105352381D02*
X165861905Y-104352381D01*
X166242858Y-104352381D01*
X166338096Y-104400000D01*
X166385715Y-104447619D01*
X166433334Y-104542857D01*
X166433334Y-104685714D01*
X166385715Y-104780952D01*
X166338096Y-104828571D01*
X166242858Y-104876190D01*
X165861905Y-104876190D01*
X166766667Y-104352381D02*
X167385715Y-104352381D01*
X167052381Y-104733333D01*
X167195239Y-104733333D01*
X167290477Y-104780952D01*
X167338096Y-104828571D01*
X167385715Y-104923810D01*
X167385715Y-105161905D01*
X167338096Y-105257143D01*
X167290477Y-105304762D01*
X167195239Y-105352381D01*
X166909524Y-105352381D01*
X166814286Y-105304762D01*
X166766667Y-105257143D01*
X139952381Y-108038095D02*
X138952381Y-108038095D01*
X138952381Y-107657142D01*
X139000000Y-107561904D01*
X139047619Y-107514285D01*
X139142857Y-107466666D01*
X139285714Y-107466666D01*
X139380952Y-107514285D01*
X139428571Y-107561904D01*
X139476190Y-107657142D01*
X139476190Y-108038095D01*
X139285714Y-106609523D02*
X139952381Y-106609523D01*
X138904762Y-106847619D02*
X139619048Y-107085714D01*
X139619048Y-106466666D01*
X157152381Y-71738095D02*
X156152381Y-71738095D01*
X156152381Y-71357142D01*
X156200000Y-71261904D01*
X156247619Y-71214285D01*
X156342857Y-71166666D01*
X156485714Y-71166666D01*
X156580952Y-71214285D01*
X156628571Y-71261904D01*
X156676190Y-71357142D01*
X156676190Y-71738095D01*
X156152381Y-70309523D02*
X156152381Y-70500000D01*
X156200000Y-70595238D01*
X156247619Y-70642857D01*
X156390476Y-70738095D01*
X156580952Y-70785714D01*
X156961905Y-70785714D01*
X157057143Y-70738095D01*
X157104762Y-70690476D01*
X157152381Y-70595238D01*
X157152381Y-70404761D01*
X157104762Y-70309523D01*
X157057143Y-70261904D01*
X156961905Y-70214285D01*
X156723810Y-70214285D01*
X156628571Y-70261904D01*
X156580952Y-70309523D01*
X156533333Y-70404761D01*
X156533333Y-70595238D01*
X156580952Y-70690476D01*
X156628571Y-70738095D01*
X156723810Y-70785714D01*
X128972381Y-71738095D02*
X127972381Y-71738095D01*
X127972381Y-71357142D01*
X128020000Y-71261904D01*
X128067619Y-71214285D01*
X128162857Y-71166666D01*
X128305714Y-71166666D01*
X128400952Y-71214285D01*
X128448571Y-71261904D01*
X128496190Y-71357142D01*
X128496190Y-71738095D01*
X127972381Y-70833333D02*
X127972381Y-70166666D01*
X128972381Y-70595238D01*
X155154762Y-43547619D02*
X155059524Y-43500000D01*
X154964286Y-43404762D01*
X154821429Y-43261905D01*
X154726190Y-43214286D01*
X154630952Y-43214286D01*
X154678571Y-43452381D02*
X154583333Y-43404762D01*
X154488095Y-43309524D01*
X154440476Y-43119048D01*
X154440476Y-42785714D01*
X154488095Y-42595238D01*
X154583333Y-42500000D01*
X154678571Y-42452381D01*
X154869048Y-42452381D01*
X154964286Y-42500000D01*
X155059524Y-42595238D01*
X155107143Y-42785714D01*
X155107143Y-43119048D01*
X155059524Y-43309524D01*
X154964286Y-43404762D01*
X154869048Y-43452381D01*
X154678571Y-43452381D01*
X156059524Y-43452381D02*
X155488095Y-43452381D01*
X155773809Y-43452381D02*
X155773809Y-42452381D01*
X155678571Y-42595238D01*
X155583333Y-42690476D01*
X155488095Y-42738095D01*
X141404762Y-43297619D02*
X141309524Y-43250000D01*
X141214286Y-43154762D01*
X141071429Y-43011905D01*
X140976190Y-42964286D01*
X140880952Y-42964286D01*
X140928571Y-43202381D02*
X140833333Y-43154762D01*
X140738095Y-43059524D01*
X140690476Y-42869048D01*
X140690476Y-42535714D01*
X140738095Y-42345238D01*
X140833333Y-42250000D01*
X140928571Y-42202381D01*
X141119048Y-42202381D01*
X141214286Y-42250000D01*
X141309524Y-42345238D01*
X141357143Y-42535714D01*
X141357143Y-42869048D01*
X141309524Y-43059524D01*
X141214286Y-43154762D01*
X141119048Y-43202381D01*
X140928571Y-43202381D01*
X141738095Y-42297619D02*
X141785714Y-42250000D01*
X141880952Y-42202381D01*
X142119048Y-42202381D01*
X142214286Y-42250000D01*
X142261905Y-42297619D01*
X142309524Y-42392857D01*
X142309524Y-42488095D01*
X142261905Y-42630952D01*
X141690476Y-43202381D01*
X142309524Y-43202381D01*
X174733334Y-100252381D02*
X174400000Y-99776190D01*
X174161905Y-100252381D02*
X174161905Y-99252381D01*
X174542858Y-99252381D01*
X174638096Y-99300000D01*
X174685715Y-99347619D01*
X174733334Y-99442857D01*
X174733334Y-99585714D01*
X174685715Y-99680952D01*
X174638096Y-99728571D01*
X174542858Y-99776190D01*
X174161905Y-99776190D01*
X175685715Y-100252381D02*
X175114286Y-100252381D01*
X175400000Y-100252381D02*
X175400000Y-99252381D01*
X175304762Y-99395238D01*
X175209524Y-99490476D01*
X175114286Y-99538095D01*
X136452381Y-101966666D02*
X135976190Y-102300000D01*
X136452381Y-102538095D02*
X135452381Y-102538095D01*
X135452381Y-102157142D01*
X135500000Y-102061904D01*
X135547619Y-102014285D01*
X135642857Y-101966666D01*
X135785714Y-101966666D01*
X135880952Y-102014285D01*
X135928571Y-102061904D01*
X135976190Y-102157142D01*
X135976190Y-102538095D01*
X135547619Y-101585714D02*
X135500000Y-101538095D01*
X135452381Y-101442857D01*
X135452381Y-101204761D01*
X135500000Y-101109523D01*
X135547619Y-101061904D01*
X135642857Y-101014285D01*
X135738095Y-101014285D01*
X135880952Y-101061904D01*
X136452381Y-101633333D01*
X136452381Y-101014285D01*
X137833334Y-105452381D02*
X137500000Y-104976190D01*
X137261905Y-105452381D02*
X137261905Y-104452381D01*
X137642858Y-104452381D01*
X137738096Y-104500000D01*
X137785715Y-104547619D01*
X137833334Y-104642857D01*
X137833334Y-104785714D01*
X137785715Y-104880952D01*
X137738096Y-104928571D01*
X137642858Y-104976190D01*
X137261905Y-104976190D01*
X138166667Y-104452381D02*
X138785715Y-104452381D01*
X138452381Y-104833333D01*
X138595239Y-104833333D01*
X138690477Y-104880952D01*
X138738096Y-104928571D01*
X138785715Y-105023810D01*
X138785715Y-105261905D01*
X138738096Y-105357143D01*
X138690477Y-105404762D01*
X138595239Y-105452381D01*
X138309524Y-105452381D01*
X138214286Y-105404762D01*
X138166667Y-105357143D01*
X154452381Y-98916666D02*
X153976190Y-99250000D01*
X154452381Y-99488095D02*
X153452381Y-99488095D01*
X153452381Y-99107142D01*
X153500000Y-99011904D01*
X153547619Y-98964285D01*
X153642857Y-98916666D01*
X153785714Y-98916666D01*
X153880952Y-98964285D01*
X153928571Y-99011904D01*
X153976190Y-99107142D01*
X153976190Y-99488095D01*
X153785714Y-98059523D02*
X154452381Y-98059523D01*
X153404762Y-98297619D02*
X154119048Y-98535714D01*
X154119048Y-97916666D01*
X158333334Y-104202381D02*
X158000000Y-103726190D01*
X157761905Y-104202381D02*
X157761905Y-103202381D01*
X158142858Y-103202381D01*
X158238096Y-103250000D01*
X158285715Y-103297619D01*
X158333334Y-103392857D01*
X158333334Y-103535714D01*
X158285715Y-103630952D01*
X158238096Y-103678571D01*
X158142858Y-103726190D01*
X157761905Y-103726190D01*
X159238096Y-103202381D02*
X158761905Y-103202381D01*
X158714286Y-103678571D01*
X158761905Y-103630952D01*
X158857143Y-103583333D01*
X159095239Y-103583333D01*
X159190477Y-103630952D01*
X159238096Y-103678571D01*
X159285715Y-103773810D01*
X159285715Y-104011905D01*
X159238096Y-104107143D01*
X159190477Y-104154762D01*
X159095239Y-104202381D01*
X158857143Y-104202381D01*
X158761905Y-104154762D01*
X158714286Y-104107143D01*
X124333334Y-38202381D02*
X124000000Y-37726190D01*
X123761905Y-38202381D02*
X123761905Y-37202381D01*
X124142858Y-37202381D01*
X124238096Y-37250000D01*
X124285715Y-37297619D01*
X124333334Y-37392857D01*
X124333334Y-37535714D01*
X124285715Y-37630952D01*
X124238096Y-37678571D01*
X124142858Y-37726190D01*
X123761905Y-37726190D01*
X125190477Y-37202381D02*
X125000000Y-37202381D01*
X124904762Y-37250000D01*
X124857143Y-37297619D01*
X124761905Y-37440476D01*
X124714286Y-37630952D01*
X124714286Y-38011905D01*
X124761905Y-38107143D01*
X124809524Y-38154762D01*
X124904762Y-38202381D01*
X125095239Y-38202381D01*
X125190477Y-38154762D01*
X125238096Y-38107143D01*
X125285715Y-38011905D01*
X125285715Y-37773810D01*
X125238096Y-37678571D01*
X125190477Y-37630952D01*
X125095239Y-37583333D01*
X124904762Y-37583333D01*
X124809524Y-37630952D01*
X124761905Y-37678571D01*
X124714286Y-37773810D01*
X142083334Y-38202381D02*
X141750000Y-37726190D01*
X141511905Y-38202381D02*
X141511905Y-37202381D01*
X141892858Y-37202381D01*
X141988096Y-37250000D01*
X142035715Y-37297619D01*
X142083334Y-37392857D01*
X142083334Y-37535714D01*
X142035715Y-37630952D01*
X141988096Y-37678571D01*
X141892858Y-37726190D01*
X141511905Y-37726190D01*
X142416667Y-37202381D02*
X143083334Y-37202381D01*
X142654762Y-38202381D01*
X154333334Y-38202381D02*
X154000000Y-37726190D01*
X153761905Y-38202381D02*
X153761905Y-37202381D01*
X154142858Y-37202381D01*
X154238096Y-37250000D01*
X154285715Y-37297619D01*
X154333334Y-37392857D01*
X154333334Y-37535714D01*
X154285715Y-37630952D01*
X154238096Y-37678571D01*
X154142858Y-37726190D01*
X153761905Y-37726190D01*
X154904762Y-37630952D02*
X154809524Y-37583333D01*
X154761905Y-37535714D01*
X154714286Y-37440476D01*
X154714286Y-37392857D01*
X154761905Y-37297619D01*
X154809524Y-37250000D01*
X154904762Y-37202381D01*
X155095239Y-37202381D01*
X155190477Y-37250000D01*
X155238096Y-37297619D01*
X155285715Y-37392857D01*
X155285715Y-37440476D01*
X155238096Y-37535714D01*
X155190477Y-37583333D01*
X155095239Y-37630952D01*
X154904762Y-37630952D01*
X154809524Y-37678571D01*
X154761905Y-37726190D01*
X154714286Y-37821429D01*
X154714286Y-38011905D01*
X154761905Y-38107143D01*
X154809524Y-38154762D01*
X154904762Y-38202381D01*
X155095239Y-38202381D01*
X155190477Y-38154762D01*
X155238096Y-38107143D01*
X155285715Y-38011905D01*
X155285715Y-37821429D01*
X155238096Y-37726190D01*
X155190477Y-37678571D01*
X155095239Y-37630952D01*
X172833334Y-38452381D02*
X172500000Y-37976190D01*
X172261905Y-38452381D02*
X172261905Y-37452381D01*
X172642858Y-37452381D01*
X172738096Y-37500000D01*
X172785715Y-37547619D01*
X172833334Y-37642857D01*
X172833334Y-37785714D01*
X172785715Y-37880952D01*
X172738096Y-37928571D01*
X172642858Y-37976190D01*
X172261905Y-37976190D01*
X173309524Y-38452381D02*
X173500000Y-38452381D01*
X173595239Y-38404762D01*
X173642858Y-38357143D01*
X173738096Y-38214286D01*
X173785715Y-38023810D01*
X173785715Y-37642857D01*
X173738096Y-37547619D01*
X173690477Y-37500000D01*
X173595239Y-37452381D01*
X173404762Y-37452381D01*
X173309524Y-37500000D01*
X173261905Y-37547619D01*
X173214286Y-37642857D01*
X173214286Y-37880952D01*
X173261905Y-37976190D01*
X173309524Y-38023810D01*
X173404762Y-38071429D01*
X173595239Y-38071429D01*
X173690477Y-38023810D01*
X173738096Y-37976190D01*
X173785715Y-37880952D01*
X121357143Y-100352381D02*
X121023809Y-99876190D01*
X120785714Y-100352381D02*
X120785714Y-99352381D01*
X121166667Y-99352381D01*
X121261905Y-99400000D01*
X121309524Y-99447619D01*
X121357143Y-99542857D01*
X121357143Y-99685714D01*
X121309524Y-99780952D01*
X121261905Y-99828571D01*
X121166667Y-99876190D01*
X120785714Y-99876190D01*
X122309524Y-100352381D02*
X121738095Y-100352381D01*
X122023809Y-100352381D02*
X122023809Y-99352381D01*
X121928571Y-99495238D01*
X121833333Y-99590476D01*
X121738095Y-99638095D01*
X122928571Y-99352381D02*
X123023810Y-99352381D01*
X123119048Y-99400000D01*
X123166667Y-99447619D01*
X123214286Y-99542857D01*
X123261905Y-99733333D01*
X123261905Y-99971429D01*
X123214286Y-100161905D01*
X123166667Y-100257143D01*
X123119048Y-100304762D01*
X123023810Y-100352381D01*
X122928571Y-100352381D01*
X122833333Y-100304762D01*
X122785714Y-100257143D01*
X122738095Y-100161905D01*
X122690476Y-99971429D01*
X122690476Y-99733333D01*
X122738095Y-99542857D01*
X122785714Y-99447619D01*
X122833333Y-99400000D01*
X122928571Y-99352381D01*
X169357143Y-105352381D02*
X169023809Y-104876190D01*
X168785714Y-105352381D02*
X168785714Y-104352381D01*
X169166667Y-104352381D01*
X169261905Y-104400000D01*
X169309524Y-104447619D01*
X169357143Y-104542857D01*
X169357143Y-104685714D01*
X169309524Y-104780952D01*
X169261905Y-104828571D01*
X169166667Y-104876190D01*
X168785714Y-104876190D01*
X170309524Y-105352381D02*
X169738095Y-105352381D01*
X170023809Y-105352381D02*
X170023809Y-104352381D01*
X169928571Y-104495238D01*
X169833333Y-104590476D01*
X169738095Y-104638095D01*
X171261905Y-105352381D02*
X170690476Y-105352381D01*
X170976190Y-105352381D02*
X170976190Y-104352381D01*
X170880952Y-104495238D01*
X170785714Y-104590476D01*
X170690476Y-104638095D01*
X165052381Y-104242857D02*
X164576190Y-104576191D01*
X165052381Y-104814286D02*
X164052381Y-104814286D01*
X164052381Y-104433333D01*
X164100000Y-104338095D01*
X164147619Y-104290476D01*
X164242857Y-104242857D01*
X164385714Y-104242857D01*
X164480952Y-104290476D01*
X164528571Y-104338095D01*
X164576190Y-104433333D01*
X164576190Y-104814286D01*
X165052381Y-103290476D02*
X165052381Y-103861905D01*
X165052381Y-103576191D02*
X164052381Y-103576191D01*
X164195238Y-103671429D01*
X164290476Y-103766667D01*
X164338095Y-103861905D01*
X164147619Y-102909524D02*
X164100000Y-102861905D01*
X164052381Y-102766667D01*
X164052381Y-102528571D01*
X164100000Y-102433333D01*
X164147619Y-102385714D01*
X164242857Y-102338095D01*
X164338095Y-102338095D01*
X164480952Y-102385714D01*
X165052381Y-102957143D01*
X165052381Y-102338095D01*
X114857143Y-57052381D02*
X114523809Y-56576190D01*
X114285714Y-57052381D02*
X114285714Y-56052381D01*
X114666667Y-56052381D01*
X114761905Y-56100000D01*
X114809524Y-56147619D01*
X114857143Y-56242857D01*
X114857143Y-56385714D01*
X114809524Y-56480952D01*
X114761905Y-56528571D01*
X114666667Y-56576190D01*
X114285714Y-56576190D01*
X115809524Y-57052381D02*
X115238095Y-57052381D01*
X115523809Y-57052381D02*
X115523809Y-56052381D01*
X115428571Y-56195238D01*
X115333333Y-56290476D01*
X115238095Y-56338095D01*
X116142857Y-56052381D02*
X116761905Y-56052381D01*
X116428571Y-56433333D01*
X116571429Y-56433333D01*
X116666667Y-56480952D01*
X116714286Y-56528571D01*
X116761905Y-56623810D01*
X116761905Y-56861905D01*
X116714286Y-56957143D01*
X116666667Y-57004762D01*
X116571429Y-57052381D01*
X116285714Y-57052381D01*
X116190476Y-57004762D01*
X116142857Y-56957143D01*
X129052381Y-63242857D02*
X128576190Y-63576191D01*
X129052381Y-63814286D02*
X128052381Y-63814286D01*
X128052381Y-63433333D01*
X128100000Y-63338095D01*
X128147619Y-63290476D01*
X128242857Y-63242857D01*
X128385714Y-63242857D01*
X128480952Y-63290476D01*
X128528571Y-63338095D01*
X128576190Y-63433333D01*
X128576190Y-63814286D01*
X129052381Y-62290476D02*
X129052381Y-62861905D01*
X129052381Y-62576191D02*
X128052381Y-62576191D01*
X128195238Y-62671429D01*
X128290476Y-62766667D01*
X128338095Y-62861905D01*
X128385714Y-61433333D02*
X129052381Y-61433333D01*
X128004762Y-61671429D02*
X128719048Y-61909524D01*
X128719048Y-61290476D01*
X115657143Y-63252381D02*
X115323809Y-62776190D01*
X115085714Y-63252381D02*
X115085714Y-62252381D01*
X115466667Y-62252381D01*
X115561905Y-62300000D01*
X115609524Y-62347619D01*
X115657143Y-62442857D01*
X115657143Y-62585714D01*
X115609524Y-62680952D01*
X115561905Y-62728571D01*
X115466667Y-62776190D01*
X115085714Y-62776190D01*
X116609524Y-63252381D02*
X116038095Y-63252381D01*
X116323809Y-63252381D02*
X116323809Y-62252381D01*
X116228571Y-62395238D01*
X116133333Y-62490476D01*
X116038095Y-62538095D01*
X117514286Y-62252381D02*
X117038095Y-62252381D01*
X116990476Y-62728571D01*
X117038095Y-62680952D01*
X117133333Y-62633333D01*
X117371429Y-62633333D01*
X117466667Y-62680952D01*
X117514286Y-62728571D01*
X117561905Y-62823810D01*
X117561905Y-63061905D01*
X117514286Y-63157143D01*
X117466667Y-63204762D01*
X117371429Y-63252381D01*
X117133333Y-63252381D01*
X117038095Y-63204762D01*
X116990476Y-63157143D01*
X127652381Y-69642857D02*
X127176190Y-69976191D01*
X127652381Y-70214286D02*
X126652381Y-70214286D01*
X126652381Y-69833333D01*
X126700000Y-69738095D01*
X126747619Y-69690476D01*
X126842857Y-69642857D01*
X126985714Y-69642857D01*
X127080952Y-69690476D01*
X127128571Y-69738095D01*
X127176190Y-69833333D01*
X127176190Y-70214286D01*
X127652381Y-68690476D02*
X127652381Y-69261905D01*
X127652381Y-68976191D02*
X126652381Y-68976191D01*
X126795238Y-69071429D01*
X126890476Y-69166667D01*
X126938095Y-69261905D01*
X126652381Y-67833333D02*
X126652381Y-68023810D01*
X126700000Y-68119048D01*
X126747619Y-68166667D01*
X126890476Y-68261905D01*
X127080952Y-68309524D01*
X127461905Y-68309524D01*
X127557143Y-68261905D01*
X127604762Y-68214286D01*
X127652381Y-68119048D01*
X127652381Y-67928571D01*
X127604762Y-67833333D01*
X127557143Y-67785714D01*
X127461905Y-67738095D01*
X127223810Y-67738095D01*
X127128571Y-67785714D01*
X127080952Y-67833333D01*
X127033333Y-67928571D01*
X127033333Y-68119048D01*
X127080952Y-68214286D01*
X127128571Y-68261905D01*
X127223810Y-68309524D01*
X181107143Y-57202381D02*
X180773809Y-56726190D01*
X180535714Y-57202381D02*
X180535714Y-56202381D01*
X180916667Y-56202381D01*
X181011905Y-56250000D01*
X181059524Y-56297619D01*
X181107143Y-56392857D01*
X181107143Y-56535714D01*
X181059524Y-56630952D01*
X181011905Y-56678571D01*
X180916667Y-56726190D01*
X180535714Y-56726190D01*
X182059524Y-57202381D02*
X181488095Y-57202381D01*
X181773809Y-57202381D02*
X181773809Y-56202381D01*
X181678571Y-56345238D01*
X181583333Y-56440476D01*
X181488095Y-56488095D01*
X182392857Y-56202381D02*
X183059524Y-56202381D01*
X182630952Y-57202381D01*
X168652381Y-63642857D02*
X168176190Y-63976191D01*
X168652381Y-64214286D02*
X167652381Y-64214286D01*
X167652381Y-63833333D01*
X167700000Y-63738095D01*
X167747619Y-63690476D01*
X167842857Y-63642857D01*
X167985714Y-63642857D01*
X168080952Y-63690476D01*
X168128571Y-63738095D01*
X168176190Y-63833333D01*
X168176190Y-64214286D01*
X168652381Y-62690476D02*
X168652381Y-63261905D01*
X168652381Y-62976191D02*
X167652381Y-62976191D01*
X167795238Y-63071429D01*
X167890476Y-63166667D01*
X167938095Y-63261905D01*
X168080952Y-62119048D02*
X168033333Y-62214286D01*
X167985714Y-62261905D01*
X167890476Y-62309524D01*
X167842857Y-62309524D01*
X167747619Y-62261905D01*
X167700000Y-62214286D01*
X167652381Y-62119048D01*
X167652381Y-61928571D01*
X167700000Y-61833333D01*
X167747619Y-61785714D01*
X167842857Y-61738095D01*
X167890476Y-61738095D01*
X167985714Y-61785714D01*
X168033333Y-61833333D01*
X168080952Y-61928571D01*
X168080952Y-62119048D01*
X168128571Y-62214286D01*
X168176190Y-62261905D01*
X168271429Y-62309524D01*
X168461905Y-62309524D01*
X168557143Y-62261905D01*
X168604762Y-62214286D01*
X168652381Y-62119048D01*
X168652381Y-61928571D01*
X168604762Y-61833333D01*
X168557143Y-61785714D01*
X168461905Y-61738095D01*
X168271429Y-61738095D01*
X168176190Y-61785714D01*
X168128571Y-61833333D01*
X168080952Y-61928571D01*
X180057143Y-63252381D02*
X179723809Y-62776190D01*
X179485714Y-63252381D02*
X179485714Y-62252381D01*
X179866667Y-62252381D01*
X179961905Y-62300000D01*
X180009524Y-62347619D01*
X180057143Y-62442857D01*
X180057143Y-62585714D01*
X180009524Y-62680952D01*
X179961905Y-62728571D01*
X179866667Y-62776190D01*
X179485714Y-62776190D01*
X181009524Y-63252381D02*
X180438095Y-63252381D01*
X180723809Y-63252381D02*
X180723809Y-62252381D01*
X180628571Y-62395238D01*
X180533333Y-62490476D01*
X180438095Y-62538095D01*
X181485714Y-63252381D02*
X181676190Y-63252381D01*
X181771429Y-63204762D01*
X181819048Y-63157143D01*
X181914286Y-63014286D01*
X181961905Y-62823810D01*
X181961905Y-62442857D01*
X181914286Y-62347619D01*
X181866667Y-62300000D01*
X181771429Y-62252381D01*
X181580952Y-62252381D01*
X181485714Y-62300000D01*
X181438095Y-62347619D01*
X181390476Y-62442857D01*
X181390476Y-62680952D01*
X181438095Y-62776190D01*
X181485714Y-62823810D01*
X181580952Y-62871429D01*
X181771429Y-62871429D01*
X181866667Y-62823810D01*
X181914286Y-62776190D01*
X181961905Y-62680952D01*
X170202381Y-69642857D02*
X169726190Y-69976191D01*
X170202381Y-70214286D02*
X169202381Y-70214286D01*
X169202381Y-69833333D01*
X169250000Y-69738095D01*
X169297619Y-69690476D01*
X169392857Y-69642857D01*
X169535714Y-69642857D01*
X169630952Y-69690476D01*
X169678571Y-69738095D01*
X169726190Y-69833333D01*
X169726190Y-70214286D01*
X169297619Y-69261905D02*
X169250000Y-69214286D01*
X169202381Y-69119048D01*
X169202381Y-68880952D01*
X169250000Y-68785714D01*
X169297619Y-68738095D01*
X169392857Y-68690476D01*
X169488095Y-68690476D01*
X169630952Y-68738095D01*
X170202381Y-69309524D01*
X170202381Y-68690476D01*
X169202381Y-68071429D02*
X169202381Y-67976190D01*
X169250000Y-67880952D01*
X169297619Y-67833333D01*
X169392857Y-67785714D01*
X169583333Y-67738095D01*
X169821429Y-67738095D01*
X170011905Y-67785714D01*
X170107143Y-67833333D01*
X170154762Y-67880952D01*
X170202381Y-67976190D01*
X170202381Y-68071429D01*
X170154762Y-68166667D01*
X170107143Y-68214286D01*
X170011905Y-68261905D01*
X169821429Y-68309524D01*
X169583333Y-68309524D01*
X169392857Y-68261905D01*
X169297619Y-68214286D01*
X169250000Y-68166667D01*
X169202381Y-68071429D01*
X153252381Y-45042857D02*
X152776190Y-45376191D01*
X153252381Y-45614286D02*
X152252381Y-45614286D01*
X152252381Y-45233333D01*
X152300000Y-45138095D01*
X152347619Y-45090476D01*
X152442857Y-45042857D01*
X152585714Y-45042857D01*
X152680952Y-45090476D01*
X152728571Y-45138095D01*
X152776190Y-45233333D01*
X152776190Y-45614286D01*
X152347619Y-44661905D02*
X152300000Y-44614286D01*
X152252381Y-44519048D01*
X152252381Y-44280952D01*
X152300000Y-44185714D01*
X152347619Y-44138095D01*
X152442857Y-44090476D01*
X152538095Y-44090476D01*
X152680952Y-44138095D01*
X153252381Y-44709524D01*
X153252381Y-44090476D01*
X153252381Y-43138095D02*
X153252381Y-43709524D01*
X153252381Y-43423810D02*
X152252381Y-43423810D01*
X152395238Y-43519048D01*
X152490476Y-43614286D01*
X152538095Y-43709524D01*
X122416667Y-109404762D02*
X122559524Y-109452381D01*
X122797620Y-109452381D01*
X122892858Y-109404762D01*
X122940477Y-109357143D01*
X122988096Y-109261905D01*
X122988096Y-109166667D01*
X122940477Y-109071429D01*
X122892858Y-109023810D01*
X122797620Y-108976190D01*
X122607143Y-108928571D01*
X122511905Y-108880952D01*
X122464286Y-108833333D01*
X122416667Y-108738095D01*
X122416667Y-108642857D01*
X122464286Y-108547619D01*
X122511905Y-108500000D01*
X122607143Y-108452381D01*
X122845239Y-108452381D01*
X122988096Y-108500000D01*
X123321429Y-108452381D02*
X123559524Y-109452381D01*
X123750001Y-108738095D01*
X123940477Y-109452381D01*
X124178572Y-108452381D01*
X125083334Y-109452381D02*
X124511905Y-109452381D01*
X124797619Y-109452381D02*
X124797619Y-108452381D01*
X124702381Y-108595238D01*
X124607143Y-108690476D01*
X124511905Y-108738095D01*
X171666667Y-109404762D02*
X171809524Y-109452381D01*
X172047620Y-109452381D01*
X172142858Y-109404762D01*
X172190477Y-109357143D01*
X172238096Y-109261905D01*
X172238096Y-109166667D01*
X172190477Y-109071429D01*
X172142858Y-109023810D01*
X172047620Y-108976190D01*
X171857143Y-108928571D01*
X171761905Y-108880952D01*
X171714286Y-108833333D01*
X171666667Y-108738095D01*
X171666667Y-108642857D01*
X171714286Y-108547619D01*
X171761905Y-108500000D01*
X171857143Y-108452381D01*
X172095239Y-108452381D01*
X172238096Y-108500000D01*
X172571429Y-108452381D02*
X172809524Y-109452381D01*
X173000001Y-108738095D01*
X173190477Y-109452381D01*
X173428572Y-108452381D01*
X173761905Y-108547619D02*
X173809524Y-108500000D01*
X173904762Y-108452381D01*
X174142858Y-108452381D01*
X174238096Y-108500000D01*
X174285715Y-108547619D01*
X174333334Y-108642857D01*
X174333334Y-108738095D01*
X174285715Y-108880952D01*
X173714286Y-109452381D01*
X174333334Y-109452381D01*
X167657143Y-77642857D02*
X167704762Y-77690476D01*
X167752381Y-77833333D01*
X167752381Y-77928571D01*
X167704762Y-78071429D01*
X167609524Y-78166667D01*
X167514286Y-78214286D01*
X167323810Y-78261905D01*
X167180952Y-78261905D01*
X166990476Y-78214286D01*
X166895238Y-78166667D01*
X166800000Y-78071429D01*
X166752381Y-77928571D01*
X166752381Y-77833333D01*
X166800000Y-77690476D01*
X166847619Y-77642857D01*
X166752381Y-77309524D02*
X166752381Y-76690476D01*
X167133333Y-77023810D01*
X167133333Y-76880952D01*
X167180952Y-76785714D01*
X167228571Y-76738095D01*
X167323810Y-76690476D01*
X167561905Y-76690476D01*
X167657143Y-76738095D01*
X167704762Y-76785714D01*
X167752381Y-76880952D01*
X167752381Y-77166667D01*
X167704762Y-77261905D01*
X167657143Y-77309524D01*
X166752381Y-76357143D02*
X166752381Y-75738095D01*
X167133333Y-76071429D01*
X167133333Y-75928571D01*
X167180952Y-75833333D01*
X167228571Y-75785714D01*
X167323810Y-75738095D01*
X167561905Y-75738095D01*
X167657143Y-75785714D01*
X167704762Y-75833333D01*
X167752381Y-75928571D01*
X167752381Y-76214286D01*
X167704762Y-76309524D01*
X167657143Y-76357143D01*
X135157143Y-78757143D02*
X135109524Y-78804762D01*
X134966667Y-78852381D01*
X134871429Y-78852381D01*
X134728571Y-78804762D01*
X134633333Y-78709524D01*
X134585714Y-78614286D01*
X134538095Y-78423810D01*
X134538095Y-78280952D01*
X134585714Y-78090476D01*
X134633333Y-77995238D01*
X134728571Y-77900000D01*
X134871429Y-77852381D01*
X134966667Y-77852381D01*
X135109524Y-77900000D01*
X135157143Y-77947619D01*
X135490476Y-77852381D02*
X136109524Y-77852381D01*
X135776190Y-78233333D01*
X135919048Y-78233333D01*
X136014286Y-78280952D01*
X136061905Y-78328571D01*
X136109524Y-78423810D01*
X136109524Y-78661905D01*
X136061905Y-78757143D01*
X136014286Y-78804762D01*
X135919048Y-78852381D01*
X135633333Y-78852381D01*
X135538095Y-78804762D01*
X135490476Y-78757143D01*
X137014286Y-77852381D02*
X136538095Y-77852381D01*
X136490476Y-78328571D01*
X136538095Y-78280952D01*
X136633333Y-78233333D01*
X136871429Y-78233333D01*
X136966667Y-78280952D01*
X137014286Y-78328571D01*
X137061905Y-78423810D01*
X137061905Y-78661905D01*
X137014286Y-78757143D01*
X136966667Y-78804762D01*
X136871429Y-78852381D01*
X136633333Y-78852381D01*
X136538095Y-78804762D01*
X136490476Y-78757143D01*
X138157143Y-80757143D02*
X138109524Y-80804762D01*
X137966667Y-80852381D01*
X137871429Y-80852381D01*
X137728571Y-80804762D01*
X137633333Y-80709524D01*
X137585714Y-80614286D01*
X137538095Y-80423810D01*
X137538095Y-80280952D01*
X137585714Y-80090476D01*
X137633333Y-79995238D01*
X137728571Y-79900000D01*
X137871429Y-79852381D01*
X137966667Y-79852381D01*
X138109524Y-79900000D01*
X138157143Y-79947619D01*
X138490476Y-79852381D02*
X139109524Y-79852381D01*
X138776190Y-80233333D01*
X138919048Y-80233333D01*
X139014286Y-80280952D01*
X139061905Y-80328571D01*
X139109524Y-80423810D01*
X139109524Y-80661905D01*
X139061905Y-80757143D01*
X139014286Y-80804762D01*
X138919048Y-80852381D01*
X138633333Y-80852381D01*
X138538095Y-80804762D01*
X138490476Y-80757143D01*
X139966667Y-79852381D02*
X139776190Y-79852381D01*
X139680952Y-79900000D01*
X139633333Y-79947619D01*
X139538095Y-80090476D01*
X139490476Y-80280952D01*
X139490476Y-80661905D01*
X139538095Y-80757143D01*
X139585714Y-80804762D01*
X139680952Y-80852381D01*
X139871429Y-80852381D01*
X139966667Y-80804762D01*
X140014286Y-80757143D01*
X140061905Y-80661905D01*
X140061905Y-80423810D01*
X140014286Y-80328571D01*
X139966667Y-80280952D01*
X139871429Y-80233333D01*
X139680952Y-80233333D01*
X139585714Y-80280952D01*
X139538095Y-80328571D01*
X139490476Y-80423810D01*
X121757143Y-65257143D02*
X121709524Y-65304762D01*
X121566667Y-65352381D01*
X121471429Y-65352381D01*
X121328571Y-65304762D01*
X121233333Y-65209524D01*
X121185714Y-65114286D01*
X121138095Y-64923810D01*
X121138095Y-64780952D01*
X121185714Y-64590476D01*
X121233333Y-64495238D01*
X121328571Y-64400000D01*
X121471429Y-64352381D01*
X121566667Y-64352381D01*
X121709524Y-64400000D01*
X121757143Y-64447619D01*
X122090476Y-64352381D02*
X122709524Y-64352381D01*
X122376190Y-64733333D01*
X122519048Y-64733333D01*
X122614286Y-64780952D01*
X122661905Y-64828571D01*
X122709524Y-64923810D01*
X122709524Y-65161905D01*
X122661905Y-65257143D01*
X122614286Y-65304762D01*
X122519048Y-65352381D01*
X122233333Y-65352381D01*
X122138095Y-65304762D01*
X122090476Y-65257143D01*
X123185714Y-65352381D02*
X123376190Y-65352381D01*
X123471429Y-65304762D01*
X123519048Y-65257143D01*
X123614286Y-65114286D01*
X123661905Y-64923810D01*
X123661905Y-64542857D01*
X123614286Y-64447619D01*
X123566667Y-64400000D01*
X123471429Y-64352381D01*
X123280952Y-64352381D01*
X123185714Y-64400000D01*
X123138095Y-64447619D01*
X123090476Y-64542857D01*
X123090476Y-64780952D01*
X123138095Y-64876190D01*
X123185714Y-64923810D01*
X123280952Y-64971429D01*
X123471429Y-64971429D01*
X123566667Y-64923810D01*
X123614286Y-64876190D01*
X123661905Y-64780952D01*
X153452381Y-50442857D02*
X152976190Y-50776191D01*
X153452381Y-51014286D02*
X152452381Y-51014286D01*
X152452381Y-50633333D01*
X152500000Y-50538095D01*
X152547619Y-50490476D01*
X152642857Y-50442857D01*
X152785714Y-50442857D01*
X152880952Y-50490476D01*
X152928571Y-50538095D01*
X152976190Y-50633333D01*
X152976190Y-51014286D01*
X152547619Y-50061905D02*
X152500000Y-50014286D01*
X152452381Y-49919048D01*
X152452381Y-49680952D01*
X152500000Y-49585714D01*
X152547619Y-49538095D01*
X152642857Y-49490476D01*
X152738095Y-49490476D01*
X152880952Y-49538095D01*
X153452381Y-50109524D01*
X153452381Y-49490476D01*
X152547619Y-49109524D02*
X152500000Y-49061905D01*
X152452381Y-48966667D01*
X152452381Y-48728571D01*
X152500000Y-48633333D01*
X152547619Y-48585714D01*
X152642857Y-48538095D01*
X152738095Y-48538095D01*
X152880952Y-48585714D01*
X153452381Y-49157143D01*
X153452381Y-48538095D01*
X144652381Y-45042857D02*
X144176190Y-45376191D01*
X144652381Y-45614286D02*
X143652381Y-45614286D01*
X143652381Y-45233333D01*
X143700000Y-45138095D01*
X143747619Y-45090476D01*
X143842857Y-45042857D01*
X143985714Y-45042857D01*
X144080952Y-45090476D01*
X144128571Y-45138095D01*
X144176190Y-45233333D01*
X144176190Y-45614286D01*
X143747619Y-44661905D02*
X143700000Y-44614286D01*
X143652381Y-44519048D01*
X143652381Y-44280952D01*
X143700000Y-44185714D01*
X143747619Y-44138095D01*
X143842857Y-44090476D01*
X143938095Y-44090476D01*
X144080952Y-44138095D01*
X144652381Y-44709524D01*
X144652381Y-44090476D01*
X143652381Y-43757143D02*
X143652381Y-43138095D01*
X144033333Y-43471429D01*
X144033333Y-43328571D01*
X144080952Y-43233333D01*
X144128571Y-43185714D01*
X144223810Y-43138095D01*
X144461905Y-43138095D01*
X144557143Y-43185714D01*
X144604762Y-43233333D01*
X144652381Y-43328571D01*
X144652381Y-43614286D01*
X144604762Y-43709524D01*
X144557143Y-43757143D01*
X140557143Y-47652381D02*
X140223809Y-47176190D01*
X139985714Y-47652381D02*
X139985714Y-46652381D01*
X140366667Y-46652381D01*
X140461905Y-46700000D01*
X140509524Y-46747619D01*
X140557143Y-46842857D01*
X140557143Y-46985714D01*
X140509524Y-47080952D01*
X140461905Y-47128571D01*
X140366667Y-47176190D01*
X139985714Y-47176190D01*
X140938095Y-46747619D02*
X140985714Y-46700000D01*
X141080952Y-46652381D01*
X141319048Y-46652381D01*
X141414286Y-46700000D01*
X141461905Y-46747619D01*
X141509524Y-46842857D01*
X141509524Y-46938095D01*
X141461905Y-47080952D01*
X140890476Y-47652381D01*
X141509524Y-47652381D01*
X142366667Y-46985714D02*
X142366667Y-47652381D01*
X142128571Y-46604762D02*
X141890476Y-47319048D01*
X142509524Y-47319048D01*
X127152381Y-108238095D02*
X126152381Y-108238095D01*
X126152381Y-107857142D01*
X126200000Y-107761904D01*
X126247619Y-107714285D01*
X126342857Y-107666666D01*
X126485714Y-107666666D01*
X126580952Y-107714285D01*
X126628571Y-107761904D01*
X126676190Y-107857142D01*
X126676190Y-108238095D01*
X126152381Y-106761904D02*
X126152381Y-107238095D01*
X126628571Y-107285714D01*
X126580952Y-107238095D01*
X126533333Y-107142857D01*
X126533333Y-106904761D01*
X126580952Y-106809523D01*
X126628571Y-106761904D01*
X126723810Y-106714285D01*
X126961905Y-106714285D01*
X127057143Y-106761904D01*
X127104762Y-106809523D01*
X127152381Y-106904761D01*
X127152381Y-107142857D01*
X127104762Y-107238095D01*
X127057143Y-107285714D01*
X132623810Y-61302381D02*
X132623810Y-60302381D01*
X133671429Y-61207143D02*
X133623810Y-61254762D01*
X133480953Y-61302381D01*
X133385715Y-61302381D01*
X133242857Y-61254762D01*
X133147619Y-61159524D01*
X133100000Y-61064286D01*
X133052381Y-60873810D01*
X133052381Y-60730952D01*
X133100000Y-60540476D01*
X133147619Y-60445238D01*
X133242857Y-60350000D01*
X133385715Y-60302381D01*
X133480953Y-60302381D01*
X133623810Y-60350000D01*
X133671429Y-60397619D01*
X134242857Y-60730952D02*
X134147619Y-60683333D01*
X134100000Y-60635714D01*
X134052381Y-60540476D01*
X134052381Y-60492857D01*
X134100000Y-60397619D01*
X134147619Y-60350000D01*
X134242857Y-60302381D01*
X134433334Y-60302381D01*
X134528572Y-60350000D01*
X134576191Y-60397619D01*
X134623810Y-60492857D01*
X134623810Y-60540476D01*
X134576191Y-60635714D01*
X134528572Y-60683333D01*
X134433334Y-60730952D01*
X134242857Y-60730952D01*
X134147619Y-60778571D01*
X134100000Y-60826190D01*
X134052381Y-60921429D01*
X134052381Y-61111905D01*
X134100000Y-61207143D01*
X134147619Y-61254762D01*
X134242857Y-61302381D01*
X134433334Y-61302381D01*
X134528572Y-61254762D01*
X134576191Y-61207143D01*
X134623810Y-61111905D01*
X134623810Y-60921429D01*
X134576191Y-60826190D01*
X134528572Y-60778571D01*
X134433334Y-60730952D01*
%LPC*%
D13*
X114169827Y-60871239D03*
X116671239Y-60430173D03*
X139759044Y-38027775D03*
X140627775Y-35640956D03*
X139959044Y-32027775D03*
X140827775Y-29640956D03*
D10*
G36*
X158548008Y-65038820D02*
X159361180Y-65851992D01*
X158512652Y-66700520D01*
X157699480Y-65887348D01*
X158548008Y-65038820D01*
X158548008Y-65038820D01*
G37*
G36*
X157487348Y-66099480D02*
X158300520Y-66912652D01*
X157451992Y-67761180D01*
X156638820Y-66948008D01*
X157487348Y-66099480D01*
X157487348Y-66099480D01*
G37*
G36*
X155447324Y-61396358D02*
X155906943Y-61855977D01*
X154916994Y-62845926D01*
X154457375Y-62386307D01*
X155447324Y-61396358D01*
X155447324Y-61396358D01*
G37*
G36*
X155093771Y-61042804D02*
X155553390Y-61502423D01*
X154563441Y-62492372D01*
X154103822Y-62032753D01*
X155093771Y-61042804D01*
X155093771Y-61042804D01*
G37*
G36*
X154740217Y-60689251D02*
X155199836Y-61148870D01*
X154209887Y-62138819D01*
X153750268Y-61679200D01*
X154740217Y-60689251D01*
X154740217Y-60689251D01*
G37*
G36*
X154386664Y-60335698D02*
X154846283Y-60795317D01*
X153856334Y-61785266D01*
X153396715Y-61325647D01*
X154386664Y-60335698D01*
X154386664Y-60335698D01*
G37*
G36*
X154033111Y-59982144D02*
X154492730Y-60441763D01*
X153502781Y-61431712D01*
X153043162Y-60972093D01*
X154033111Y-59982144D01*
X154033111Y-59982144D01*
G37*
G36*
X153679557Y-59628591D02*
X154139176Y-60088210D01*
X153149227Y-61078159D01*
X152689608Y-60618540D01*
X153679557Y-59628591D01*
X153679557Y-59628591D01*
G37*
G36*
X153326004Y-59275037D02*
X153785623Y-59734656D01*
X152795674Y-60724605D01*
X152336055Y-60264986D01*
X153326004Y-59275037D01*
X153326004Y-59275037D01*
G37*
G36*
X152972450Y-58921484D02*
X153432069Y-59381103D01*
X152442120Y-60371052D01*
X151982501Y-59911433D01*
X152972450Y-58921484D01*
X152972450Y-58921484D01*
G37*
G36*
X152618897Y-58567931D02*
X153078516Y-59027550D01*
X152088567Y-60017499D01*
X151628948Y-59557880D01*
X152618897Y-58567931D01*
X152618897Y-58567931D01*
G37*
G36*
X152265344Y-58214377D02*
X152724963Y-58673996D01*
X151735014Y-59663945D01*
X151275395Y-59204326D01*
X152265344Y-58214377D01*
X152265344Y-58214377D01*
G37*
G36*
X151911790Y-57860824D02*
X152371409Y-58320443D01*
X151381460Y-59310392D01*
X150921841Y-58850773D01*
X151911790Y-57860824D01*
X151911790Y-57860824D01*
G37*
G36*
X151558237Y-57507270D02*
X152017856Y-57966889D01*
X151027907Y-58956838D01*
X150568288Y-58497219D01*
X151558237Y-57507270D01*
X151558237Y-57507270D01*
G37*
G36*
X151204683Y-57153717D02*
X151664302Y-57613336D01*
X150674353Y-58603285D01*
X150214734Y-58143666D01*
X151204683Y-57153717D01*
X151204683Y-57153717D01*
G37*
G36*
X150851130Y-56800164D02*
X151310749Y-57259783D01*
X150320800Y-58249732D01*
X149861181Y-57790113D01*
X150851130Y-56800164D01*
X150851130Y-56800164D01*
G37*
G36*
X150497577Y-56446610D02*
X150957196Y-56906229D01*
X149967247Y-57896178D01*
X149507628Y-57436559D01*
X150497577Y-56446610D01*
X150497577Y-56446610D01*
G37*
G36*
X150144023Y-56093057D02*
X150603642Y-56552676D01*
X149613693Y-57542625D01*
X149154074Y-57083006D01*
X150144023Y-56093057D01*
X150144023Y-56093057D01*
G37*
G36*
X146396358Y-56552676D02*
X146855977Y-56093057D01*
X147845926Y-57083006D01*
X147386307Y-57542625D01*
X146396358Y-56552676D01*
X146396358Y-56552676D01*
G37*
G36*
X146042804Y-56906229D02*
X146502423Y-56446610D01*
X147492372Y-57436559D01*
X147032753Y-57896178D01*
X146042804Y-56906229D01*
X146042804Y-56906229D01*
G37*
G36*
X145689251Y-57259783D02*
X146148870Y-56800164D01*
X147138819Y-57790113D01*
X146679200Y-58249732D01*
X145689251Y-57259783D01*
X145689251Y-57259783D01*
G37*
G36*
X145335698Y-57613336D02*
X145795317Y-57153717D01*
X146785266Y-58143666D01*
X146325647Y-58603285D01*
X145335698Y-57613336D01*
X145335698Y-57613336D01*
G37*
G36*
X144982144Y-57966889D02*
X145441763Y-57507270D01*
X146431712Y-58497219D01*
X145972093Y-58956838D01*
X144982144Y-57966889D01*
X144982144Y-57966889D01*
G37*
G36*
X144628591Y-58320443D02*
X145088210Y-57860824D01*
X146078159Y-58850773D01*
X145618540Y-59310392D01*
X144628591Y-58320443D01*
X144628591Y-58320443D01*
G37*
G36*
X144275037Y-58673996D02*
X144734656Y-58214377D01*
X145724605Y-59204326D01*
X145264986Y-59663945D01*
X144275037Y-58673996D01*
X144275037Y-58673996D01*
G37*
G36*
X143921484Y-59027550D02*
X144381103Y-58567931D01*
X145371052Y-59557880D01*
X144911433Y-60017499D01*
X143921484Y-59027550D01*
X143921484Y-59027550D01*
G37*
G36*
X143567931Y-59381103D02*
X144027550Y-58921484D01*
X145017499Y-59911433D01*
X144557880Y-60371052D01*
X143567931Y-59381103D01*
X143567931Y-59381103D01*
G37*
G36*
X143214377Y-59734656D02*
X143673996Y-59275037D01*
X144663945Y-60264986D01*
X144204326Y-60724605D01*
X143214377Y-59734656D01*
X143214377Y-59734656D01*
G37*
G36*
X142860824Y-60088210D02*
X143320443Y-59628591D01*
X144310392Y-60618540D01*
X143850773Y-61078159D01*
X142860824Y-60088210D01*
X142860824Y-60088210D01*
G37*
G36*
X142507270Y-60441763D02*
X142966889Y-59982144D01*
X143956838Y-60972093D01*
X143497219Y-61431712D01*
X142507270Y-60441763D01*
X142507270Y-60441763D01*
G37*
G36*
X142153717Y-60795317D02*
X142613336Y-60335698D01*
X143603285Y-61325647D01*
X143143666Y-61785266D01*
X142153717Y-60795317D01*
X142153717Y-60795317D01*
G37*
G36*
X141800164Y-61148870D02*
X142259783Y-60689251D01*
X143249732Y-61679200D01*
X142790113Y-62138819D01*
X141800164Y-61148870D01*
X141800164Y-61148870D01*
G37*
G36*
X141446610Y-61502423D02*
X141906229Y-61042804D01*
X142896178Y-62032753D01*
X142436559Y-62492372D01*
X141446610Y-61502423D01*
X141446610Y-61502423D01*
G37*
G36*
X141093057Y-61855977D02*
X141552676Y-61396358D01*
X142542625Y-62386307D01*
X142083006Y-62845926D01*
X141093057Y-61855977D01*
X141093057Y-61855977D01*
G37*
G36*
X142083006Y-64154074D02*
X142542625Y-64613693D01*
X141552676Y-65603642D01*
X141093057Y-65144023D01*
X142083006Y-64154074D01*
X142083006Y-64154074D01*
G37*
G36*
X142436559Y-64507628D02*
X142896178Y-64967247D01*
X141906229Y-65957196D01*
X141446610Y-65497577D01*
X142436559Y-64507628D01*
X142436559Y-64507628D01*
G37*
G36*
X142790113Y-64861181D02*
X143249732Y-65320800D01*
X142259783Y-66310749D01*
X141800164Y-65851130D01*
X142790113Y-64861181D01*
X142790113Y-64861181D01*
G37*
G36*
X143143666Y-65214734D02*
X143603285Y-65674353D01*
X142613336Y-66664302D01*
X142153717Y-66204683D01*
X143143666Y-65214734D01*
X143143666Y-65214734D01*
G37*
G36*
X143497219Y-65568288D02*
X143956838Y-66027907D01*
X142966889Y-67017856D01*
X142507270Y-66558237D01*
X143497219Y-65568288D01*
X143497219Y-65568288D01*
G37*
G36*
X143850773Y-65921841D02*
X144310392Y-66381460D01*
X143320443Y-67371409D01*
X142860824Y-66911790D01*
X143850773Y-65921841D01*
X143850773Y-65921841D01*
G37*
G36*
X144204326Y-66275395D02*
X144663945Y-66735014D01*
X143673996Y-67724963D01*
X143214377Y-67265344D01*
X144204326Y-66275395D01*
X144204326Y-66275395D01*
G37*
G36*
X144557880Y-66628948D02*
X145017499Y-67088567D01*
X144027550Y-68078516D01*
X143567931Y-67618897D01*
X144557880Y-66628948D01*
X144557880Y-66628948D01*
G37*
G36*
X144911433Y-66982501D02*
X145371052Y-67442120D01*
X144381103Y-68432069D01*
X143921484Y-67972450D01*
X144911433Y-66982501D01*
X144911433Y-66982501D01*
G37*
G36*
X145264986Y-67336055D02*
X145724605Y-67795674D01*
X144734656Y-68785623D01*
X144275037Y-68326004D01*
X145264986Y-67336055D01*
X145264986Y-67336055D01*
G37*
G36*
X145618540Y-67689608D02*
X146078159Y-68149227D01*
X145088210Y-69139176D01*
X144628591Y-68679557D01*
X145618540Y-67689608D01*
X145618540Y-67689608D01*
G37*
G36*
X145972093Y-68043162D02*
X146431712Y-68502781D01*
X145441763Y-69492730D01*
X144982144Y-69033111D01*
X145972093Y-68043162D01*
X145972093Y-68043162D01*
G37*
G36*
X146325647Y-68396715D02*
X146785266Y-68856334D01*
X145795317Y-69846283D01*
X145335698Y-69386664D01*
X146325647Y-68396715D01*
X146325647Y-68396715D01*
G37*
G36*
X146679200Y-68750268D02*
X147138819Y-69209887D01*
X146148870Y-70199836D01*
X145689251Y-69740217D01*
X146679200Y-68750268D01*
X146679200Y-68750268D01*
G37*
G36*
X147032753Y-69103822D02*
X147492372Y-69563441D01*
X146502423Y-70553390D01*
X146042804Y-70093771D01*
X147032753Y-69103822D01*
X147032753Y-69103822D01*
G37*
G36*
X147386307Y-69457375D02*
X147845926Y-69916994D01*
X146855977Y-70906943D01*
X146396358Y-70447324D01*
X147386307Y-69457375D01*
X147386307Y-69457375D01*
G37*
G36*
X149154074Y-69916994D02*
X149613693Y-69457375D01*
X150603642Y-70447324D01*
X150144023Y-70906943D01*
X149154074Y-69916994D01*
X149154074Y-69916994D01*
G37*
G36*
X149507628Y-69563441D02*
X149967247Y-69103822D01*
X150957196Y-70093771D01*
X150497577Y-70553390D01*
X149507628Y-69563441D01*
X149507628Y-69563441D01*
G37*
G36*
X149861181Y-69209887D02*
X150320800Y-68750268D01*
X151310749Y-69740217D01*
X150851130Y-70199836D01*
X149861181Y-69209887D01*
X149861181Y-69209887D01*
G37*
G36*
X150214734Y-68856334D02*
X150674353Y-68396715D01*
X151664302Y-69386664D01*
X151204683Y-69846283D01*
X150214734Y-68856334D01*
X150214734Y-68856334D01*
G37*
G36*
X150568288Y-68502781D02*
X151027907Y-68043162D01*
X152017856Y-69033111D01*
X151558237Y-69492730D01*
X150568288Y-68502781D01*
X150568288Y-68502781D01*
G37*
G36*
X150921841Y-68149227D02*
X151381460Y-67689608D01*
X152371409Y-68679557D01*
X151911790Y-69139176D01*
X150921841Y-68149227D01*
X150921841Y-68149227D01*
G37*
G36*
X151275395Y-67795674D02*
X151735014Y-67336055D01*
X152724963Y-68326004D01*
X152265344Y-68785623D01*
X151275395Y-67795674D01*
X151275395Y-67795674D01*
G37*
G36*
X151628948Y-67442120D02*
X152088567Y-66982501D01*
X153078516Y-67972450D01*
X152618897Y-68432069D01*
X151628948Y-67442120D01*
X151628948Y-67442120D01*
G37*
G36*
X151982501Y-67088567D02*
X152442120Y-66628948D01*
X153432069Y-67618897D01*
X152972450Y-68078516D01*
X151982501Y-67088567D01*
X151982501Y-67088567D01*
G37*
G36*
X152336055Y-66735014D02*
X152795674Y-66275395D01*
X153785623Y-67265344D01*
X153326004Y-67724963D01*
X152336055Y-66735014D01*
X152336055Y-66735014D01*
G37*
G36*
X152689608Y-66381460D02*
X153149227Y-65921841D01*
X154139176Y-66911790D01*
X153679557Y-67371409D01*
X152689608Y-66381460D01*
X152689608Y-66381460D01*
G37*
G36*
X153043162Y-66027907D02*
X153502781Y-65568288D01*
X154492730Y-66558237D01*
X154033111Y-67017856D01*
X153043162Y-66027907D01*
X153043162Y-66027907D01*
G37*
G36*
X153396715Y-65674353D02*
X153856334Y-65214734D01*
X154846283Y-66204683D01*
X154386664Y-66664302D01*
X153396715Y-65674353D01*
X153396715Y-65674353D01*
G37*
G36*
X153750268Y-65320800D02*
X154209887Y-64861181D01*
X155199836Y-65851130D01*
X154740217Y-66310749D01*
X153750268Y-65320800D01*
X153750268Y-65320800D01*
G37*
G36*
X154103822Y-64967247D02*
X154563441Y-64507628D01*
X155553390Y-65497577D01*
X155093771Y-65957196D01*
X154103822Y-64967247D01*
X154103822Y-64967247D01*
G37*
G36*
X154457375Y-64613693D02*
X154916994Y-64154074D01*
X155906943Y-65144023D01*
X155447324Y-65603642D01*
X154457375Y-64613693D01*
X154457375Y-64613693D01*
G37*
D14*
X145250000Y-53000000D03*
X146750000Y-53000000D03*
X134750000Y-104500000D03*
X133250000Y-104500000D03*
X152250000Y-103500000D03*
X150750000Y-103500000D03*
X134750000Y-102500000D03*
X133250000Y-102500000D03*
X152250000Y-101500000D03*
X150750000Y-101500000D03*
X134750000Y-96500000D03*
X133250000Y-96500000D03*
X152250000Y-95500000D03*
X150750000Y-95500000D03*
X138750000Y-101500000D03*
X137250000Y-101500000D03*
X156750000Y-101000000D03*
X155250000Y-101000000D03*
D15*
X159000000Y-100250000D03*
X159000000Y-101750000D03*
X140750000Y-99750000D03*
X140750000Y-101250000D03*
D16*
X159000000Y-98000000D03*
X162000000Y-98000000D03*
X141500000Y-97500000D03*
X144500000Y-97500000D03*
D14*
X165750000Y-66500000D03*
X164250000Y-66500000D03*
D15*
X161500000Y-62750000D03*
X161500000Y-64250000D03*
D14*
X166000000Y-60750000D03*
X167500000Y-60750000D03*
X129250000Y-60250000D03*
X130750000Y-60250000D03*
X141750000Y-56750000D03*
X143250000Y-56750000D03*
D15*
X144000000Y-71850000D03*
X144000000Y-73350000D03*
D14*
X167750000Y-101000000D03*
X166250000Y-101000000D03*
D15*
X145600000Y-71850000D03*
X145600000Y-73350000D03*
D10*
G36*
X139748008Y-61038820D02*
X140561180Y-61851992D01*
X139712652Y-62700520D01*
X138899480Y-61887348D01*
X139748008Y-61038820D01*
X139748008Y-61038820D01*
G37*
G36*
X138687348Y-62099480D02*
X139500520Y-62912652D01*
X138651992Y-63761180D01*
X137838820Y-62948008D01*
X138687348Y-62099480D01*
X138687348Y-62099480D01*
G37*
D14*
X145250000Y-54750000D03*
X146750000Y-54750000D03*
X143250000Y-53750000D03*
X141750000Y-53750000D03*
D10*
G36*
X153138820Y-54201992D02*
X153951992Y-53388820D01*
X154800520Y-54237348D01*
X153987348Y-55050520D01*
X153138820Y-54201992D01*
X153138820Y-54201992D01*
G37*
G36*
X154199480Y-55262652D02*
X155012652Y-54449480D01*
X155861180Y-55298008D01*
X155048008Y-56111180D01*
X154199480Y-55262652D01*
X154199480Y-55262652D01*
G37*
G36*
X151888820Y-55701992D02*
X152701992Y-54888820D01*
X153550520Y-55737348D01*
X152737348Y-56550520D01*
X151888820Y-55701992D01*
X151888820Y-55701992D01*
G37*
G36*
X152949480Y-56762652D02*
X153762652Y-55949480D01*
X154611180Y-56798008D01*
X153798008Y-57611180D01*
X152949480Y-56762652D01*
X152949480Y-56762652D01*
G37*
D14*
X144250000Y-77300000D03*
X142750000Y-77300000D03*
X144250000Y-75250000D03*
X142750000Y-75250000D03*
X147750000Y-80500000D03*
X149250000Y-80500000D03*
X160250000Y-80000000D03*
X158750000Y-80000000D03*
D15*
X162500000Y-75250000D03*
X162500000Y-76750000D03*
D14*
X134550000Y-80000000D03*
X133050000Y-80000000D03*
X123150000Y-60600000D03*
X121650000Y-60600000D03*
D15*
X125000000Y-60750000D03*
X125000000Y-62250000D03*
X125000000Y-65750000D03*
X125000000Y-64250000D03*
D14*
X173850000Y-60600000D03*
X175350000Y-60600000D03*
D15*
X172000000Y-62250000D03*
X172000000Y-60750000D03*
D14*
X173850000Y-63000000D03*
X175350000Y-63000000D03*
D15*
X172000000Y-64750000D03*
X172000000Y-66250000D03*
D17*
X176549020Y-94500000D03*
X174450980Y-94500000D03*
X123849020Y-41600000D03*
X121750980Y-41600000D03*
X142649020Y-41600000D03*
X140550980Y-41600000D03*
X154350980Y-41600000D03*
X156449020Y-41600000D03*
X173150980Y-41600000D03*
X175249020Y-41600000D03*
X120450980Y-94500000D03*
X122549020Y-94500000D03*
D13*
X119569827Y-58271239D03*
X122071239Y-57830173D03*
X156172225Y-35640956D03*
X157040956Y-38027775D03*
X174928761Y-57830173D03*
X177430173Y-58271239D03*
X155972225Y-29640956D03*
X156840956Y-32027775D03*
X180328761Y-60430173D03*
X182830173Y-60871239D03*
D18*
X132900000Y-98550000D03*
X132900000Y-99500000D03*
X132900000Y-100450000D03*
X135100000Y-100450000D03*
X135100000Y-98550000D03*
X135100000Y-99500000D03*
X150400000Y-97550000D03*
X150400000Y-98500000D03*
X150400000Y-99450000D03*
X152600000Y-99450000D03*
X152600000Y-97550000D03*
X152600000Y-98500000D03*
X163900000Y-62800000D03*
X163900000Y-63750000D03*
X163900000Y-64700000D03*
X166100000Y-64700000D03*
X166100000Y-62800000D03*
D19*
X149500000Y-74400000D03*
X149100000Y-74400000D03*
X148700000Y-74400000D03*
X148300000Y-74400000D03*
X147900000Y-74400000D03*
X147500000Y-74400000D03*
D20*
X146900000Y-75000000D03*
X146900000Y-75400000D03*
X146900000Y-75800000D03*
X146900000Y-76200000D03*
X146900000Y-76600000D03*
X146900000Y-77000000D03*
D19*
X147500000Y-77600000D03*
X147900000Y-77600000D03*
X148300000Y-77600000D03*
X148700000Y-77600000D03*
X149100000Y-77600000D03*
X149500000Y-77600000D03*
D20*
X150100000Y-77000000D03*
X150100000Y-76600000D03*
X150100000Y-76200000D03*
X150100000Y-75800000D03*
X150100000Y-75400000D03*
X150100000Y-75000000D03*
D21*
X148100000Y-76435000D03*
X148900000Y-76435000D03*
X148100000Y-75565000D03*
X148900000Y-75565000D03*
D22*
X159750000Y-77500000D03*
X159250000Y-77500000D03*
X158750000Y-77500000D03*
X158250000Y-77500000D03*
X157750000Y-77500000D03*
X157250000Y-77500000D03*
X159750000Y-75500000D03*
X159250000Y-75500000D03*
X158750000Y-75500000D03*
X158250000Y-75500000D03*
X157750000Y-75500000D03*
X157250000Y-75500000D03*
D23*
X158500000Y-76500000D03*
D22*
X133750000Y-77500000D03*
X133250000Y-77500000D03*
X132750000Y-77500000D03*
X132250000Y-77500000D03*
X131750000Y-77500000D03*
X131250000Y-77500000D03*
X133750000Y-75500000D03*
X133250000Y-75500000D03*
X132750000Y-75500000D03*
X132250000Y-75500000D03*
X131750000Y-75500000D03*
X131250000Y-75500000D03*
D23*
X132500000Y-76500000D03*
D24*
X151350000Y-50875000D03*
X151350000Y-50225000D03*
X151350000Y-49575000D03*
X151350000Y-48925000D03*
X145450000Y-48925000D03*
X145450000Y-49575000D03*
X145450000Y-50225000D03*
X145450000Y-50875000D03*
D25*
X137050000Y-97000000D03*
X138950000Y-97000000D03*
X155050000Y-96500000D03*
X156950000Y-96500000D03*
D26*
X161600000Y-107800000D03*
D27*
X159600000Y-107800000D03*
D26*
X154400000Y-107800000D03*
D27*
X152400000Y-107800000D03*
D28*
X166400000Y-107400000D03*
D29*
X168940000Y-107400000D03*
D30*
X147000000Y-107400000D03*
D31*
X144460000Y-107400000D03*
X141920000Y-107400000D03*
D32*
X159750000Y-72250000D03*
D33*
X159750000Y-69710000D03*
X162290000Y-72250000D03*
X162290000Y-69710000D03*
X164830000Y-72250000D03*
X164830000Y-69710000D03*
D32*
X131670000Y-72250000D03*
D33*
X131670000Y-69710000D03*
X134210000Y-72250000D03*
X134210000Y-69710000D03*
X136750000Y-72250000D03*
X136750000Y-69710000D03*
D34*
X154300000Y-46250760D03*
X156200000Y-46250760D03*
X155250000Y-44251780D03*
X140550000Y-46000760D03*
X142450000Y-46000760D03*
X141500000Y-44001780D03*
D35*
X174250000Y-98000000D03*
X175750000Y-98000000D03*
X138750000Y-99500000D03*
X137250000Y-99500000D03*
X137250000Y-103500000D03*
X138750000Y-103500000D03*
X156750000Y-99000000D03*
X155250000Y-99000000D03*
X155250000Y-103000000D03*
X156750000Y-103000000D03*
X122650000Y-39400000D03*
X124150000Y-39400000D03*
X141450000Y-39400000D03*
X142950000Y-39400000D03*
X155550000Y-39600000D03*
X154050000Y-39600000D03*
X174350000Y-39600000D03*
X172850000Y-39600000D03*
X122750000Y-98000000D03*
X121250000Y-98000000D03*
X170750000Y-103000000D03*
X169250000Y-103000000D03*
X167750000Y-103000000D03*
X166250000Y-103000000D03*
X119950000Y-60600000D03*
X118450000Y-60600000D03*
D36*
X127000000Y-61250000D03*
X127000000Y-62750000D03*
D35*
X119950000Y-63000000D03*
X118450000Y-63000000D03*
D36*
X127000000Y-66750000D03*
X127000000Y-65250000D03*
D35*
X177050000Y-60600000D03*
X178550000Y-60600000D03*
D36*
X170000000Y-62750000D03*
X170000000Y-61250000D03*
D35*
X177050000Y-63000000D03*
X178550000Y-63000000D03*
D36*
X170000000Y-65250000D03*
X170000000Y-66750000D03*
D35*
X151000000Y-46750000D03*
X152500000Y-46750000D03*
D37*
X124200000Y-107200000D03*
X121800000Y-107200000D03*
X124200000Y-102800000D03*
X121800000Y-102800000D03*
X175200000Y-107200000D03*
X172800000Y-107200000D03*
X175200000Y-102800000D03*
X172800000Y-102800000D03*
D38*
X165000000Y-75500000D03*
X165000000Y-78500000D03*
D15*
X136000000Y-75250000D03*
X136000000Y-76750000D03*
D38*
X138500000Y-75500000D03*
X138500000Y-78500000D03*
D14*
X123150000Y-63000000D03*
X121650000Y-63000000D03*
D39*
X154750000Y-48550000D03*
X154750000Y-51450000D03*
D35*
X146000000Y-46750000D03*
X144500000Y-46750000D03*
D39*
X142250000Y-48550000D03*
X142250000Y-51450000D03*
D30*
X137000000Y-107400000D03*
D31*
X134460000Y-107400000D03*
X131920000Y-107400000D03*
X129380000Y-107400000D03*
D24*
X130650000Y-62450000D03*
X130650000Y-63100000D03*
X130650000Y-63750000D03*
X130650000Y-64400000D03*
X130650000Y-65050000D03*
X130650000Y-65700000D03*
X130650000Y-66350000D03*
X136550000Y-66350000D03*
X136550000Y-65700000D03*
X136550000Y-65050000D03*
X136550000Y-64400000D03*
X136550000Y-63750000D03*
X136550000Y-63100000D03*
X136550000Y-62450000D03*
M02*
